<?xml version="1.0" encoding="utf-8"?>
<!-- Generator: Adobe Illustrator 27.8.0, SVG Export Plug-In . SVG Version: 6.00 Build 0)  -->
<svg version="1.1" id="Layer_1" xmlns="http://www.w3.org/2000/svg" xmlns:xlink="http://www.w3.org/1999/xlink" x="0px" y="0px"
	 viewBox="0 0 400 290" style="enable-background:new 0 0 400 290;" xml:space="preserve">
<style type="text/css">
	.st0{fill:#F3E6FF;}
	.st1{fill:#FFFFFF;}
	.st2{fill:#6E00BE;}
	.st3{fill:#F500A3;}
</style>
<g id="Career_growth">
	<g>
		<rect x="74.6" y="214.1" class="st0" width="44.6" height="51.2"/>
		<rect x="153" y="172.1" class="st0" width="44.6" height="93.2"/>
		<rect x="231.5" y="137.7" class="st0" width="44.6" height="127.6"/>
		<rect x="309.2" y="105" class="st0" width="44.6" height="160.3"/>
	</g>
	<g>
		<g>
			<g>
				<polygon class="st1" points="265.4,121.6 138.1,209.1 96.1,236.5 86.4,188.6 51.2,183.7 				"/>
				<path d="M96.1,236.8c0,0-0.1,0-0.1,0c-0.1,0-0.1-0.1-0.2-0.2l-9.7-47.6l-35-4.9c-0.1,0-0.2-0.1-0.2-0.3c0-0.1,0.1-0.3,0.2-0.3
					l214.1-62c0.1,0,0.3,0,0.3,0.1c0.1,0.1,0,0.3-0.1,0.4l-127.3,87.5l-42,27.3C96.3,236.7,96.2,236.8,96.1,236.8z M52.6,183.6
					l33.8,4.8c0.1,0,0.2,0.1,0.2,0.2l9.6,47.4l41.6-27.1l125.8-86.5L52.6,183.6L52.6,183.6z"/>
			</g>
			<path d="M90.7,187.8c-0.1,0-0.2-0.1-0.3-0.2c-0.1-0.1,0-0.3,0.2-0.4l174.7-65.9c0.1-0.1,0.3,0,0.4,0.2c0.1,0.1,0,0.3-0.2,0.4
				L90.7,187.8C90.8,187.8,90.7,187.8,90.7,187.8L90.7,187.8z"/>
		</g>
		<g>
			<g>
				<path class="st1" d="M173.8,143.6l-7.9,27.2l-43.1,14.4c0,0,5.6-14.5,20.3-34L173.8,143.6L173.8,143.6z"/>
				<path d="M122.9,185.5c-0.1,0-0.1,0-0.2-0.1c-0.1-0.1-0.1-0.2-0.1-0.3c0.1-0.1,5.7-14.8,20.4-34.1c0,0,0.1-0.1,0.2-0.1l30.6-7.6
					c0.1,0,0.2,0,0.3,0.1c0.1,0.1,0.1,0.2,0.1,0.3l-7.9,27.2c0,0.1-0.1,0.2-0.2,0.2L122.9,185.5C123,185.4,122.9,185.5,122.9,185.5
					L122.9,185.5z M143.4,151.4c-12.9,17-18.8,30.4-20,33.3l42.3-14.2l7.7-26.6L143.4,151.4L143.4,151.4z"/>
			</g>
			<g>
				<g>
					<path d="M156.9,92.8c1.5-1.3,3.5-2.7,4.1-5.1c0.2-0.6,0.2-1.2,0.1-1.9c-0.5-3.6-0.1-4.2,1.8-6.9c2.3-3.1,5.7-3.2,6.8-3.3
						c3.3-0.2,6.8,0.7,7.9,1c1.7,0.5,4.2,1.1,5.2,3.9c0.6,1.9-1.3,4.7-0.6,7.1c0.8,2.9-0.3,3.7,0.1,5.9c0.7,3.6,0.1,5.6,2.5,7.5
						c4.3,3.3,5.6,6.9,5.7,7.4c0.4,3.2-7.7,6-22,11.6c-15.6,6.1-19.1,7.9-23.5,5.9c-3.7-1.7-7.5-5.8-7.4-10.3
						c0.1-3.5,2.6-6.1,3.9-7.4c4.1-4.3,6.9-2.6,10.4-6.6C155.2,97.9,153.3,95.8,156.9,92.8L156.9,92.8z"/>
					<path d="M164.2,81.3c-3.2,0.9-7.4,0.5-9.1-4.6c-1.6-5.1,4-8.1,7.3-5.4c3.3,2.7,3.4,5.9,2.8,8.1S164.2,81.3,164.2,81.3z"/>
				</g>
				<g>
					<g>
						<path class="st1" d="M171.1,92.4l-3,14.3c0,0-5.3,0.6-3.3,1.9c3.4,2.4,15.4,5.9,19,4.7c5.7-1.9,2.9-8.2-1.9-9.1l-3.2,0.3
							l1.2-11.6L171.1,92.4L171.1,92.4z"/>
						<path d="M178.5,105.8C178.5,105.8,178.5,105.8,178.5,105.8c-0.2,0-0.3-0.2-0.3-0.3l1.2-12.3l-8.4-0.6c-0.2,0-0.3-0.1-0.3-0.3
							s0.1-0.3,0.3-0.3l8.7,0.6c0.1,0,0.1,0,0.2,0.1c0.1,0.1,0.1,0.1,0.1,0.2l-1.2,12.6C178.8,105.7,178.7,105.8,178.5,105.8
							L178.5,105.8z"/>
					</g>
					<g>
						<g>
							<path class="st1" d="M182.5,85.8c0.6,1.6,1,3.5,0.9,5.1s-0.9,3.3-2.3,4.3c-1.2,0.8-2.7,1.1-4.2,0.9s-3.6-1.7-4.8-2.6
								c-1.3,0.9-3.1,0.7-4.2-0.3c-0.6-0.6-1.1-1.5-0.9-2.4c0.2-0.9,1.1-1.6,2-1.6c0.5,0,0.8,0.1,1.3,0.2c0.6,0.1,1.6-0.4,2.1-0.7
								c1.2-0.8,5.7-5.2,6.4-9.6C180,80.7,181.8,84,182.5,85.8L182.5,85.8z"/>
							<path d="M177.8,96.5c-0.3,0-0.6,0-1-0.1c-1.1-0.1-2.6-1-4.8-2.5c-1.4,0.8-3.2,0.6-4.4-0.5c-0.8-0.7-1.1-1.7-1-2.6
								c0.2-0.9,1.2-1.8,2.3-1.8c0.3,0,0.6,0,0.9,0.1c0.1,0,0.3,0.1,0.4,0.1c0.4,0.1,1.4-0.3,1.9-0.6c1.1-0.7,5.6-5.1,6.2-9.4
								c0-0.1,0.1-0.2,0.2-0.2c0.1,0,0.2,0,0.3,0.1c1.3,1.5,3.1,4.7,3.8,6.7c0.7,1.8,1,3.7,0.9,5.3c-0.2,1.9-1.1,3.6-2.4,4.5
								C180.3,96.1,179.1,96.5,177.8,96.5L177.8,96.5z M172.1,93.3c0.1,0,0.1,0,0.2,0.1c0.8,0.6,3.2,2.3,4.7,2.5
								c1.4,0.2,2.9-0.1,3.9-0.9c1.2-0.9,2-2.4,2.2-4.1c0.1-1.5-0.2-3.3-0.8-5c-0.7-1.7-2.2-4.5-3.3-6.1c-1,4.4-5.2,8.4-6.4,9.2
								c-0.4,0.3-1.6,0.8-2.3,0.7c-0.2,0-0.4-0.1-0.5-0.1c-0.2-0.1-0.4-0.1-0.7-0.1c-0.8,0-1.6,0.7-1.8,1.4s0.2,1.5,0.8,2.1
								c1,0.9,2.7,1.1,3.9,0.3C171.9,93.3,172,93.2,172.1,93.3L172.1,93.3z"/>
						</g>
						<g>
							<path class="st1" d="M169.3,91.7c0.8-0.2,1.7,0,2.2,0.6L169.3,91.7z"/>
							<path d="M171.5,92.6c-0.1,0-0.2,0-0.2-0.1c-0.4-0.5-1.2-0.8-1.9-0.6c-0.1,0.1-0.3,0-0.4-0.2c-0.1-0.1,0-0.3,0.2-0.4
								c0.9-0.3,1.9,0,2.5,0.7c0.1,0.1,0.1,0.3,0,0.4C171.6,92.6,171.6,92.6,171.5,92.6L171.5,92.6z"/>
						</g>
					</g>
				</g>
			</g>
			<g>
				<g>
					<g>
						<path class="st1" d="M168.1,158.3c2.4-0.8,4.6-2,7.1-2.4s5.4,0.4,6.6,2.6c-11.2,4.8-19,8.1-22.4,9.8c-0.8,0.4-2.6,1.3-4.9,1
							c-1.9-0.2-3.3-1.1-4-1.7c2.7-2.7,5.5-5.3,8.4-7.8c0.5-0.4,1.3-1.5,2-1.5c0.6-0.1,1.5,0.6,2.1,0.7
							C164.7,159.2,166.5,158.9,168.1,158.3L168.1,158.3z"/>
						<path d="M155.3,169.7c-0.3,0-0.6,0-0.9,0c-1.5-0.2-2.9-0.8-4.2-1.8c-0.1,0-0.1-0.1-0.1-0.2s0-0.2,0.1-0.2
							c2.7-2.7,5.5-5.4,8.4-7.8c0.1-0.1,0.3-0.2,0.4-0.4c0.5-0.5,1.1-1.1,1.7-1.2c0.4,0,0.9,0.2,1.4,0.4c0.3,0.1,0.6,0.3,0.8,0.3
							c1.4,0.2,3.1,0,5-0.6c0.8-0.3,1.6-0.6,2.3-0.9c1.5-0.6,3.1-1.3,4.8-1.5c2.5-0.4,5.6,0.3,6.9,2.7c0,0.1,0.1,0.2,0,0.2
							c0,0.1-0.1,0.1-0.2,0.2c-10.6,4.5-18.9,8.1-22.4,9.8l0,0C158.8,168.9,157.2,169.7,155.3,169.7L155.3,169.7z M150.9,167.5
							c1.1,0.8,2.4,1.3,3.6,1.5c2.2,0.3,4-0.6,4.7-1l0,0c3.5-1.7,11.7-5.2,22.1-9.6c-1.2-1.9-3.9-2.5-6.1-2.1
							c-1.6,0.2-3.2,0.9-4.7,1.5c-0.8,0.3-1.6,0.6-2.4,0.9c-2,0.7-3.7,0.9-5.3,0.6c-0.3,0-0.6-0.2-1-0.4c-0.4-0.2-0.8-0.4-1.1-0.3
							c-0.4,0-1,0.6-1.4,1c-0.2,0.2-0.3,0.3-0.4,0.4C156.2,162.4,153.5,164.9,150.9,167.5L150.9,167.5z M168.1,158.3L168.1,158.3
							L168.1,158.3z"/>
					</g>
					<path d="M165.1,161.3c-0.3,0-0.6,0-0.9-0.1c-0.2,0-0.3-0.2-0.2-0.3c0-0.2,0.2-0.3,0.3-0.2c1.6,0.2,3.3-0.3,4.7-0.9
						c0.3-0.1,0.6-0.3,1-0.4c1.2-0.5,2.5-1,3.8-1.3c2-0.3,3.8,0.1,4.9,1.3c0.1,0.1,0.1,0.3,0,0.4c-0.1,0.1-0.3,0.1-0.4,0
						c-1-1-2.6-1.4-4.4-1.1c-1.3,0.2-2.5,0.7-3.7,1.2c-0.3,0.1-0.6,0.3-1,0.4C168,160.9,166.5,161.3,165.1,161.3L165.1,161.3z"/>
				</g>
				<g>
					<g>
						<path class="st1" d="M242.7,70.9l0.2-1.3c0,0,15.9-8.3,21.6-9.8s0.2,3.7-5.1,5.7c0,0,5.1,0.5,2.2,3.9c0,0,2.8,0.8-0.6,4.3
							c0,0,0.9,3.1-1.9,4.4c-2.8,1.3-4.7,0.1-4.7-0.8c0,0-5.2,4.1-10.9,6.1S242.7,70.9,242.7,70.9L242.7,70.9z"/>
						<path d="M242.5,83.9c-0.5,0-0.9-0.2-1.2-0.5c-2.3-2.2,0.9-11.9,1.1-12.5l0.2-1.3c0-0.1,0.1-0.2,0.1-0.2
							c0.6-0.3,16-8.3,21.6-9.8c1-0.3,2.5-0.5,2.7,0.3c0.4,1.3-3.3,4.1-6.8,5.6c0.8,0.2,1.9,0.7,2.3,1.6c0.3,0.7,0.1,1.4-0.6,2.3
							c0.3,0.2,0.7,0.5,0.8,1c0.2,0.9-0.3,2.1-1.5,3.5c0.1,0.7,0.5,3.4-2.1,4.5c-1.6,0.7-3.2,0.8-4.2,0.1c-0.4-0.2-0.6-0.5-0.8-0.8
							c-1.2,0.9-5.8,4.2-10.7,5.9C243.2,83.8,242.9,83.9,242.5,83.9L242.5,83.9z M243.2,69.8L243,71c0,0,0,0,0,0
							c-0.9,2.8-3,10.3-1.3,11.9c0.4,0.4,1,0.4,1.8,0.1c5.6-2,10.8-6.1,10.8-6.1c0.1-0.1,0.2-0.1,0.3,0c0.1,0,0.2,0.1,0.2,0.2
							c0,0.3,0.3,0.6,0.6,0.8c0.3,0.2,1.6,0.8,3.7-0.2c2.5-1.1,1.7-3.9,1.7-4c0-0.1,0-0.2,0.1-0.3c1.5-1.6,1.6-2.5,1.5-3
							c-0.2-0.6-0.8-0.8-0.8-0.8c-0.1,0-0.2-0.1-0.2-0.2c0-0.1,0-0.2,0.1-0.3c0.7-0.8,0.9-1.5,0.7-2c-0.4-0.9-2.1-1.3-2.8-1.4
							c-0.1,0-0.2-0.1-0.3-0.2c0-0.1,0.1-0.3,0.2-0.3c4-1.5,7.5-4.6,7.3-5.3c0,0-0.2-0.4-2,0.1C259.3,61.5,244.7,69,243.2,69.8
							L243.2,69.8z M242.7,70.9L242.7,70.9L242.7,70.9z"/>
					</g>
					<path d="M247.9,75.9c-0.1,0-0.3-0.1-0.3-0.3c0-0.2,0.1-0.3,0.3-0.3c0.8,0,1.4-0.8,1.6-1.2c0.2-0.2,0.3-0.5,0.5-0.8
						c0.2-0.4,0.5-0.9,0.8-1.3c0.9-1,2.2-1.5,3.5-1.9c1.1-0.4,2.1-0.7,2.9-1.5c0.3-0.3,0.6-0.8,0.4-1.1c-0.2-0.2-0.5-0.2-1.1-0.1
						l-7.8,1.5c-0.2,0-0.3-0.1-0.3-0.2c0-0.2,0.1-0.3,0.2-0.3l7.8-1.5c0.3-0.1,1.2-0.2,1.7,0.4c0.5,0.6,0.1,1.4-0.5,1.9
						c-0.9,0.8-2,1.2-3.1,1.6c-1.2,0.4-2.4,0.8-3.2,1.8c-0.3,0.4-0.5,0.8-0.8,1.2c-0.1,0.3-0.3,0.5-0.5,0.8
						C249.5,75.4,248.7,75.9,247.9,75.9C248,75.9,248,75.9,247.9,75.9L247.9,75.9z"/>
					<path d="M255,73.5c-0.1,0-0.2,0-0.3,0c-0.5-0.1-0.9-0.3-1.1-0.6c-0.2-0.4-0.3-0.9-0.1-1.4c0.1-0.4,0.4-0.8,0.6-1.1
						c0.1-0.1,0.3-0.1,0.4-0.1c0.1,0.1,0.1,0.3,0.1,0.4c-0.2,0.3-0.4,0.6-0.6,0.9c-0.1,0.3-0.1,0.6,0,0.9c0.1,0.2,0.4,0.4,0.7,0.4
						c0.3,0,0.6,0,1-0.1c1.9-0.4,4-1.8,5.6-3.6c0.1-0.1,0.3-0.1,0.4,0s0.1,0.3,0,0.4c-1.7,1.9-3.9,3.3-5.9,3.7
						C255.6,73.4,255.3,73.5,255,73.5L255,73.5z"/>
					<path d="M255.7,76.3c-0.1,0-0.1,0-0.2,0c-0.7,0-1.2-0.2-1.5-0.6c-0.3-0.4-0.3-0.9-0.1-1.4c0.1-0.4,0.4-0.7,0.7-1
						c0.1-0.1,0.3-0.1,0.4,0c0.1,0.1,0.1,0.3,0,0.4c-0.2,0.3-0.5,0.6-0.6,0.9c-0.1,0.2-0.1,0.6,0,0.8c0.2,0.2,0.5,0.4,1.1,0.4
						c1.9,0.1,4-0.8,5.3-2.2c0.1-0.1,0.3-0.1,0.4,0s0.1,0.3,0,0.4C259.9,75.4,257.7,76.3,255.7,76.3L255.7,76.3z"/>
					<path d="M254.4,77.5c-0.1,0-0.2-0.1-0.3-0.2c-0.1-0.7,0.2-1.3,0.8-1.6c0.1-0.1,0.3,0,0.4,0.1s0,0.3-0.1,0.4
						c-0.4,0.2-0.6,0.5-0.5,0.9C254.7,77.3,254.6,77.5,254.4,77.5C254.5,77.5,254.4,77.5,254.4,77.5L254.4,77.5z"/>
					<path d="M257.7,66.7c-0.1,0-0.2-0.1-0.3-0.2c-0.1-0.1,0-0.3,0.1-0.4l1.7-0.8c0.1-0.1,0.3,0,0.4,0.1s0,0.3-0.1,0.4l-1.7,0.8
						C257.8,66.6,257.7,66.7,257.7,66.7L257.7,66.7z"/>
				</g>
				<g>
					<path class="st2" d="M161,158.2c-2.7,2.8-7.1,7.2-11.2,10.3c-2.3,1.8-5.4,2.4-8.2,1.6c-6.1-1.7-16.7-5.9-19.4-14.4
						c-2.6-8.3,21.6-35,38.6-47c7.9-5.6,12.7-2.4,15-3.2c0.5-0.2,2.3-3.4,6.2-5.5c17.2-9.1,60.2-30.6,61.4-31.1
						c0,0,1.7,18.7-3.9,23.9s-42.2,20.1-49.2,27.1c0,0-5.7,13.1-8.2,19.3c-2.5,6.2-6.7,12.3-26.2,13.3l4.3,1.7
						C161.8,154.7,162.2,156.9,161,158.2L161,158.2z"/>
					<path d="M190.8,119c0,0-0.1,0-0.1,0c-0.1-0.1-0.2-0.2-0.2-0.4c0.7-1.8,1.4-3.7,2.5-5.4c1.2-1.9,2.8-3.2,4.5-3.9
						c0.1-0.1,0.3,0,0.4,0.2c0.1,0.1,0,0.3-0.2,0.4c-2,0.8-3.4,2.5-4.2,3.7c-1.1,1.6-1.8,3.5-2.5,5.2C191.1,118.9,191,119,190.8,119
						L190.8,119z"/>
					<path d="M154.5,152.3C154.5,152.3,154.5,152.3,154.5,152.3l-10.7-2.6c-0.6-0.1-1.3-0.3-1.8-0.8c-0.6-0.5-0.9-1.3-0.6-2
						c0.1-0.1,0.2-0.2,0.4-0.1c0.1,0.1,0.2,0.2,0.1,0.4c-0.2,0.4,0.1,1,0.4,1.3c0.4,0.4,1.1,0.5,1.6,0.6l10.6,2.6
						c0.2,0,0.2,0.2,0.2,0.4C154.8,152.2,154.6,152.3,154.5,152.3L154.5,152.3z"/>
					<path d="M145.9,149.9c-0.1,0-0.2,0-0.2-0.1c-0.1-0.1-0.1-0.3,0-0.4l12.9-11.6c0.1-0.1,0.3-0.1,0.4,0c0.1,0.1,0.1,0.3,0,0.4
						l-12.9,11.6C146,149.8,146,149.8,145.9,149.9L145.9,149.9z"/>
				</g>
			</g>
			<g>
				<g>
					<polygon class="st3" points="138.8,190.7 98.6,203 98.6,173 138.8,160.7 					"/>
					<g>
						<path class="st1" d="M114.8,186.4c-0.1,0-0.2,0-0.3-0.1c-0.1-0.1-0.2-0.2-0.2-0.4v-6.7c0-0.2,0.1-0.4,0.3-0.4l7.7-2.4
							c0.1,0,0.3,0,0.4,0.1c0.1,0.1,0.2,0.2,0.2,0.4v6.7c0,0.2-0.1,0.4-0.3,0.4l-7.7,2.4C115,186.3,114.9,186.4,114.8,186.4z
							 M115.3,179.5v5.8l6.9-2.1v-5.8L115.3,179.5z M122.6,183.6L122.6,183.6L122.6,183.6z"/>
						<path class="st1" d="M114.8,183.4c-0.1,0-0.1,0-0.2,0l-14.3-5.7c-0.2-0.1-0.3-0.3-0.2-0.6c0.1-0.2,0.3-0.3,0.6-0.2l14.3,5.7
							c0.2,0.1,0.3,0.3,0.2,0.6C115.2,183.3,115,183.4,114.8,183.4L114.8,183.4z"/>
						<path class="st1" d="M122.6,181.1c-0.1,0-0.2,0-0.3-0.1c-0.2-0.2-0.2-0.4,0-0.6l14.3-14.4c0.2-0.2,0.4-0.2,0.6,0
							c0.2,0.2,0.2,0.4,0,0.6L122.9,181C122.8,181,122.7,181.1,122.6,181.1z"/>
					</g>
				</g>
				<g>
					<path class="st3" d="M108.8,168c-0.2,0-0.3-0.1-0.3-0.3v-2.8c0-1.7,1.4-3.5,3.1-4l14.1-4.3c0.9-0.3,1.7-0.2,2.4,0.3
						c0.6,0.4,0.9,1.1,0.9,2v2.8c0,0.2-0.1,0.3-0.3,0.3s-0.3-0.1-0.3-0.3v-2.8c0-0.6-0.2-1.2-0.7-1.5c-0.5-0.4-1.1-0.4-1.8-0.2
						l-14.1,4.3c-1.5,0.5-2.7,2-2.7,3.5v2.8C109.1,167.9,108.9,168,108.8,168L108.8,168z"/>
					<path class="st3" d="M126.5,163.6c-0.1,0-0.2-0.1-0.3-0.2c-0.1-0.1,0-0.3,0.2-0.4l4.2-1.3c0.1,0,0.3,0,0.4,0.2
						c0.1,0.1,0,0.3-0.2,0.4L126.5,163.6C126.6,163.6,126.6,163.6,126.5,163.6L126.5,163.6z"/>
					<path class="st3" d="M106.7,169.6c-0.1,0-0.2-0.1-0.3-0.2c-0.1-0.1,0-0.3,0.2-0.4l4.2-1.3c0.1,0,0.3,0,0.4,0.2
						c0.1,0.1,0,0.3-0.2,0.4L106.7,169.6C106.8,169.6,106.7,169.6,106.7,169.6L106.7,169.6z"/>
				</g>
			</g>
			<g>
				<g>
					<path class="st1" d="M175.7,105.5l-7.9-1.8l-1.9,3.3c1.8,3.4,5.9,4.9,10,3.6L175.7,105.5L175.7,105.5z"/>
					<path class="st1" d="M175.7,105.5l3.6-3.5l1.9,2c0.7,1.2,0.5,3.8-2.1,5.6L175.7,105.5L175.7,105.5z"/>
				</g>
				<path d="M165.9,107.3c0,0-0.1,0-0.1,0c-0.1-0.1-0.2-0.3-0.1-0.4l1.9-3.3c0.1-0.1,0.2-0.2,0.3-0.1l7.8,1.8l3.4-3.4
					c0.1-0.1,0.1-0.1,0.2-0.1c0.1,0,0.1,0,0.2,0.1l1.8,1.9c0.1,0.1,0.1,0.3,0,0.4c-0.1,0.1-0.3,0.1-0.4,0l-1.6-1.7l-3.4,3.3
					c-0.1,0.1-0.2,0.1-0.3,0.1l-7.7-1.8l-1.8,3.1C166.1,107.2,166,107.3,165.9,107.3L165.9,107.3z"/>
			</g>
		</g>
		<g>
			<polygon class="st1" points="114.4,201.5 103.6,193.1 101.8,203.8 			"/>
			<g>
				<polygon class="st1" points="103.5,192.9 147.4,226.8 265.4,121.6 				"/>
				<path d="M147.4,227c-0.1,0-0.1,0-0.2-0.1l-43.9-33.9c-0.1-0.1-0.1-0.2-0.1-0.3s0.1-0.2,0.2-0.2l161.9-71.2
					c0.1-0.1,0.3,0,0.4,0.1s0.1,0.3,0,0.4L147.5,227C147.5,227,147.4,227,147.4,227L147.4,227z M104.1,192.9l43.3,33.4l116.5-103.7
					L104.1,192.9L104.1,192.9z"/>
			</g>
			<g>
				<path class="st1" d="M103.5,192.9l-6.3,37.5L103.5,192.9z"/>
				<path d="M97.2,230.7C97.2,230.7,97.1,230.7,97.2,230.7c-0.2,0-0.3-0.2-0.3-0.3l6.3-37.5c0-0.2,0.2-0.3,0.3-0.2
					c0.2,0,0.3,0.2,0.2,0.3l-6.3,37.5C97.4,230.6,97.3,230.7,97.2,230.7L97.2,230.7z"/>
			</g>
		</g>
	</g>
	<g>
		<g>
			<path d="M196.7,72.5c-0.1,0-0.2,0-0.2-0.1c-0.1-0.1-0.1-0.3,0.1-0.4l19.8-13.3c0.1-0.1,0.3-0.1,0.4,0.1s0,0.3-0.1,0.4l-19.8,13.3
				C196.8,72.4,196.7,72.5,196.7,72.5L196.7,72.5z"/>
			<g>
				<path d="M246.4,113.6c-0.1,0-0.2-0.1-0.2-0.1c-0.1-0.1,0-0.3,0.1-0.4l56.2-36.6c0.1-0.1,0.3-0.1,0.4,0.1s0,0.3-0.1,0.4
					l-56.2,36.7C246.6,113.5,246.5,113.6,246.4,113.6L246.4,113.6z"/>
				<path d="M301.6,80.2c0,0-0.1,0-0.1,0c-0.1-0.1-0.2-0.2-0.2-0.4l1.1-3.1l-3.2-0.2c-0.2,0-0.3-0.1-0.3-0.3c0-0.2,0.1-0.3,0.3-0.3
					l3.6,0.2c0.1,0,0.2,0.1,0.2,0.1s0.1,0.2,0,0.3l-1.2,3.4C301.8,80.1,301.7,80.2,301.6,80.2L301.6,80.2z"/>
			</g>
			<g>
				<path d="M195.8,58.6c-0.1,0-0.2,0-0.2-0.1c-0.1-0.1-0.1-0.3,0.1-0.4l40.8-27.5c0.1-0.1,0.3-0.1,0.4,0.1s0,0.3-0.1,0.4L196,58.6
					C196,58.6,195.8,58.6,195.8,58.6L195.8,58.6z"/>
				<path d="M235.9,34.3c0,0-0.1,0-0.1,0c-0.1-0.1-0.2-0.2-0.2-0.4l1.1-3.1l-3.2-0.2c-0.2,0-0.3-0.1-0.3-0.3c0-0.2,0.1-0.3,0.3-0.3
					l3.6,0.2c0.1,0,0.2,0.1,0.2,0.1s0.1,0.2,0,0.3l-1.2,3.4C236.1,34.2,236,34.2,235.9,34.3L235.9,34.3z"/>
			</g>
			<g>
				<path d="M128.2,65.8c-0.1,0-0.2,0-0.2-0.1c-0.1-0.1-0.1-0.3,0.1-0.4L155.2,47c0.1-0.1,0.3-0.1,0.4,0.1s0.1,0.3-0.1,0.4
					l-27.1,18.3C128.3,65.8,128.2,65.8,128.2,65.8L128.2,65.8z"/>
				<path d="M154.6,50.5c0,0-0.1,0-0.1,0c-0.1-0.1-0.2-0.2-0.2-0.4l1.1-2.9l-3.1-0.2c-0.2,0-0.3-0.1-0.3-0.3c0-0.2,0.1-0.3,0.3-0.3
					l3.5,0.2c0.1,0,0.2,0.1,0.2,0.1s0.1,0.2,0,0.3l-1.2,3.2C154.9,50.4,154.8,50.5,154.6,50.5L154.6,50.5z"/>
			</g>
			<g>
				<path d="M263.5,47.1c-0.1,0-0.2,0-0.2-0.1c-0.1-0.1,0-0.3,0.1-0.4l31.5-21.2c0.1-0.1,0.3-0.1,0.4,0.1s0,0.3-0.1,0.4L263.7,47
					C263.7,47,263.6,47.1,263.5,47.1z"/>
				<path d="M294.2,29.3c0,0-0.1,0-0.1,0c-0.1-0.1-0.2-0.2-0.2-0.4l1.2-3.4l-3.6-0.2c-0.2,0-0.3-0.1-0.3-0.3c0-0.2,0.1-0.3,0.3-0.3
					l4,0.2c0.1,0,0.2,0.1,0.2,0.1s0.1,0.2,0,0.3l-1.4,3.8C294.5,29.2,294.3,29.3,294.2,29.3L294.2,29.3z"/>
			</g>
		</g>
		<g>
			<g>
				<g>
					<ellipse class="st1" cx="70.3" cy="65.1" rx="22.7" ry="22.7"/>
					<path class="st3" d="M70.3,88.1c-12.7,0-23-10.3-23-23s10.3-23,23-23s23,10.3,23,23S83,88.1,70.3,88.1z M70.3,42.7
						c-12.4,0-22.4,10.1-22.4,22.4s10.1,22.4,22.4,22.4s22.4-10.1,22.4-22.4S82.6,42.7,70.3,42.7z"/>
				</g>
				<g>
					<ellipse class="st1" cx="70.3" cy="65.1" rx="17.8" ry="17.8"/>
					<path class="st3" d="M70.3,83.3c-10,0-18.1-8.1-18.1-18.1S60.3,47,70.3,47s18.1,8.1,18.1,18.1S80.3,83.3,70.3,83.3z M70.3,47.6
						c-9.7,0-17.6,7.9-17.6,17.6s7.9,17.6,17.6,17.6s17.6-7.9,17.6-17.6S80,47.6,70.3,47.6z"/>
				</g>
			</g>
			<g>
				<g>
					<ellipse class="st1" cx="56.6" cy="65.1" rx="22.7" ry="22.7"/>
					<path class="st3" d="M56.6,88.1c-12.7,0-23-10.3-23-23s10.3-23,23-23s23,10.3,23,23S69.3,88.1,56.6,88.1z M56.6,42.7
						c-12.4,0-22.4,10.1-22.4,22.4s10.1,22.4,22.4,22.4S79,77.5,79,65.1S69,42.7,56.6,42.7z"/>
				</g>
				<g>
					<ellipse class="st1" cx="56.6" cy="65.1" rx="17.8" ry="17.8"/>
					<path class="st3" d="M56.6,83.3c-10,0-18.1-8.1-18.1-18.1S46.6,47,56.6,47s18.1,8.1,18.1,18.1S66.6,83.3,56.6,83.3z M56.6,47.6
						c-9.7,0-17.6,7.9-17.6,17.6s7.9,17.6,17.6,17.6s17.6-7.9,17.6-17.6S66.3,47.6,56.6,47.6z"/>
				</g>
			</g>
			<g>
				<ellipse class="st3" cx="42.9" cy="65.1" rx="22.7" ry="22.7"/>
				<path class="st1" d="M42.9,83.3c-10,0-18.1-8.1-18.1-18.1S32.9,47,42.9,47s18.1,8.1,18.1,18.1S52.9,83.3,42.9,83.3z M42.9,47.6
					c-9.7,0-17.6,7.9-17.6,17.6s7.9,17.6,17.6,17.6s17.6-7.9,17.6-17.6S52.6,47.6,42.9,47.6z"/>
				<path class="st1" d="M37.3,71.4c0.1-0.6,0.2-1.4,0.3-2.1c0.1-0.4,0.1-0.9,0.2-1.3c0.1-0.3,0-0.6-0.3-0.8
					c-0.8-0.8-1.5-1.5-2.3-2.3c-0.5-0.5-0.6-1.1-0.4-1.8c0.2-0.6,0.7-1,1.4-1.1c0.7-0.1,1.3-0.2,1.9-0.3c0.4-0.1,0.8-0.1,1.1-0.2
					c0.4,0,0.6-0.2,0.7-0.5c0.5-1,0.9-2,1.4-3c0.5-1,1.7-1.2,2.5-0.6c0.2,0.2,0.4,0.4,0.5,0.7c0.5,1,0.9,1.9,1.4,2.9
					c0.1,0.3,0.3,0.4,0.7,0.5c1,0.1,2.1,0.3,3.1,0.5c0.7,0.1,1.1,0.5,1.3,1.1c0.2,0.7,0.1,1.3-0.4,1.8c-0.7,0.8-1.5,1.5-2.2,2.3
					C48,67.4,48,67.7,48,68c0.2,1.1,0.4,2.1,0.5,3.2c0.1,0.7-0.1,1.3-0.7,1.7s-1.2,0.4-1.8,0c-0.9-0.5-1.8-1-2.7-1.5
					c-0.3-0.2-0.6-0.2-0.8,0c-0.9,0.5-1.8,1-2.8,1.5C38.5,73.6,37.3,72.8,37.3,71.4L37.3,71.4z M38.3,71.4c0,0.6,0.4,0.9,0.9,0.6
					c0.9-0.5,1.9-1,2.8-1.5c0.6-0.3,1.1-0.3,1.7,0c0.9,0.5,1.8,1,2.7,1.5c0.2,0.1,0.5,0.2,0.7,0.1c0.2-0.2,0.3-0.4,0.2-0.7
					c-0.2-1-0.3-2.1-0.5-3.1c-0.1-0.7,0-1.3,0.6-1.8c0.7-0.7,1.5-1.5,2.2-2.2c0.2-0.2,0.3-0.4,0.2-0.7c-0.1-0.3-0.3-0.4-0.6-0.4
					c-1-0.1-2-0.3-2.9-0.4c-0.7-0.1-1.2-0.4-1.5-1.1c-0.4-1-0.9-1.9-1.3-2.9c-0.1-0.2-0.3-0.5-0.6-0.5c-0.3,0-0.4,0.2-0.6,0.5
					c-0.5,1-0.9,2-1.4,2.9c-0.3,0.6-0.7,0.9-1.3,1c-1,0.2-2,0.3-3,0.5c-0.3,0-0.6,0.1-0.7,0.4c-0.1,0.3,0,0.6,0.3,0.8
					c0.7,0.7,1.5,1.5,2.2,2.2c0.4,0.4,0.6,1,0.5,1.6c0,0.3-0.1,0.6-0.2,0.9C38.6,69.8,38.5,70.7,38.3,71.4L38.3,71.4z"/>
			</g>
		</g>
		<g>
			<g>
				<circle class="st3" cx="375.9" cy="145" r="3.9"/>
				<g>
					<circle class="st1" cx="375.9" cy="156.5" r="3.9"/>
					<path d="M375.9,160.7c-2.3,0-4.2-1.9-4.2-4.2s1.9-4.2,4.2-4.2s4.2,1.9,4.2,4.2S378.2,160.7,375.9,160.7z M375.9,152.8
						c-2,0-3.6,1.6-3.6,3.6s1.6,3.6,3.6,3.6s3.6-1.6,3.6-3.6S377.9,152.8,375.9,152.8z"/>
				</g>
				<g>
					<circle class="st1" cx="375.9" cy="168" r="3.9"/>
					<path d="M375.9,172.2c-2.3,0-4.2-1.9-4.2-4.2s1.9-4.2,4.2-4.2s4.2,1.9,4.2,4.2S378.2,172.2,375.9,172.2z M375.9,164.3
						c-2,0-3.6,1.6-3.6,3.6s1.6,3.6,3.6,3.6s3.6-1.6,3.6-3.6S377.9,164.3,375.9,164.3z"/>
				</g>
			</g>
			<path d="M375.9,238.2h-14.7c-0.2,0-0.3-0.1-0.3-0.3s0.1-0.3,0.3-0.3h14.4v-59.9c0-0.2,0.1-0.3,0.3-0.3s0.3,0.1,0.3,0.3v60.2
				C376.1,238,376,238.2,375.9,238.2z"/>
		</g>
		<g>
			<g>
				<g>
					<path class="st1" d="M55.1,160c1.1-1.7,0.6-4.1-1.1-5.2c-0.1-0.1-0.3-0.2-0.4-0.2c0.5-1.5,0.8-3,0.8-4.5c0.2,0,0.3,0,0.4-0.1
						c2-0.4,3.3-2.4,2.9-4.5c-0.4-2-2.4-3.3-4.5-2.9c-0.2,0-0.3,0.1-0.4,0.1c-0.7-1.4-1.5-2.6-2.6-3.8c0.1-0.1,0.2-0.2,0.3-0.4
						c1.1-1.7,0.6-4.1-1.1-5.2c-1.7-1.1-4.1-0.6-5.2,1.1c-0.1,0.1-0.2,0.3-0.2,0.4c-1.5-0.5-3-0.8-4.5-0.8c0-0.1,0-0.3-0.1-0.4
						c-0.4-2-2.4-3.3-4.5-2.9s-3.3,2.4-2.9,4.5c0,0.1,0.1,0.3,0.1,0.4c-1.4,0.7-2.6,1.5-3.8,2.6c-0.1-0.1-0.2-0.2-0.4-0.3
						c-1.7-1.1-4.1-0.6-5.2,1.1c-1.1,1.7-0.6,4.1,1.1,5.2c0.1,0.1,0.3,0.2,0.4,0.2c-0.5,1.5-0.8,3-0.8,4.5c-0.2,0-0.3,0-0.4,0.1
						c-2,0.4-3.3,2.4-2.9,4.5c0.4,2,2.4,3.3,4.5,2.9c0.2,0,0.3-0.1,0.4-0.1c0.7,1.4,1.5,2.6,2.6,3.8c-0.1,0.1-0.2,0.2-0.3,0.4
						c-1.1,1.7-0.6,4.1,1.1,5.2c1.7,1.1,4.1,0.6,5.2-1.1c0.1-0.1,0.2-0.3,0.2-0.4c1.5,0.5,3,0.8,4.5,0.8c0,0.1,0,0.3,0.1,0.5
						c0.4,2,2.4,3.3,4.5,2.9s3.3-2.4,2.9-4.5c0-0.1-0.1-0.3-0.1-0.4c1.4-0.7,2.6-1.5,3.8-2.6c0.1,0.1,0.2,0.2,0.4,0.3
						C51.7,162.3,54,161.8,55.1,160z M44.9,153.4c-2.1,3.2-6.4,4.2-9.6,2.1c-3.2-2.1-4.2-6.4-2.1-9.6c2.1-3.2,6.4-4.2,9.6-2.1
						C46,145.9,47,150.2,44.9,153.4z"/>
					<path d="M42.3,168.7c-1.9,0-3.5-1.3-3.9-3.2c0-0.1,0-0.1,0-0.2c-1.4-0.1-2.8-0.3-4.1-0.7c0,0.1-0.1,0.1-0.1,0.2
						c-1.2,1.9-3.7,2.4-5.6,1.2c-0.9-0.6-1.5-1.5-1.8-2.5c-0.2-1,0-2.1,0.6-3c0-0.1,0.1-0.1,0.1-0.2c-0.9-1-1.7-2.2-2.4-3.4
						c-0.1,0-0.2,0-0.2,0.1c-2.2,0.5-4.3-0.9-4.8-3.1c-0.2-1,0-2.1,0.6-3c0.6-0.9,1.5-1.5,2.5-1.8c0.1,0,0.2,0,0.2,0
						c0.1-1.4,0.3-2.8,0.8-4.1c-0.1,0-0.1-0.1-0.2-0.1c-0.9-0.6-1.5-1.5-1.8-2.5c-0.2-1.1,0-2.1,0.6-3c1.2-1.9,3.7-2.4,5.6-1.2
						c0.1,0,0.1,0.1,0.2,0.1c1-0.9,2.2-1.7,3.4-2.4c0-0.1,0-0.1-0.1-0.2c-0.2-1.1,0-2.1,0.6-3c0.6-0.9,1.5-1.5,2.5-1.8
						c2.2-0.5,4.3,0.9,4.8,3.1c0,0.1,0,0.1,0,0.2c1.4,0.1,2.8,0.3,4.1,0.7c0-0.1,0.1-0.1,0.1-0.2c1.2-1.9,3.7-2.4,5.6-1.2
						c0.9,0.6,1.5,1.5,1.8,2.5c0.2,1.1,0,2.1-0.6,3c0,0.1-0.1,0.1-0.1,0.2c0.9,1,1.7,2.2,2.4,3.4c0.1,0,0.2,0,0.2-0.1
						c2.2-0.5,4.3,0.9,4.8,3.1c0.2,1,0,2.1-0.6,3c-0.6,0.9-1.5,1.5-2.5,1.8c-0.1,0-0.2,0-0.2,0c-0.1,1.4-0.3,2.8-0.8,4.1
						c0.1,0,0.1,0.1,0.2,0.1c0.9,0.6,1.5,1.5,1.8,2.5c0.2,1,0,2.1-0.6,3c-1.2,1.9-3.7,2.4-5.6,1.2c-0.1,0-0.1-0.1-0.2-0.1
						c-1,0.9-2.2,1.7-3.4,2.4c0,0.1,0,0.1,0.1,0.2c0.2,1,0,2.1-0.6,3c-0.6,0.9-1.5,1.5-2.5,1.8C42.8,168.7,42.5,168.7,42.3,168.7
						L42.3,168.7z M34,163.9C34,163.9,34.1,163.9,34,163.9c1.5,0.5,3,0.8,4.5,0.8c0.2,0,0.3,0.1,0.3,0.3c0,0.2,0,0.3,0.1,0.4
						c0.4,1.9,2.2,3,4.1,2.6c0.9-0.2,1.7-0.7,2.2-1.5s0.7-1.7,0.5-2.6c0-0.1-0.1-0.3-0.1-0.4c-0.1-0.1,0-0.3,0.2-0.4
						c1.3-0.7,2.6-1.5,3.7-2.5c0.1-0.1,0.3-0.1,0.4,0c0.1,0.1,0.2,0.2,0.3,0.2c1.6,1,3.8,0.6,4.8-1l0,0c0.5-0.8,0.7-1.7,0.5-2.6
						c-0.2-0.9-0.7-1.7-1.5-2.2c-0.1-0.1-0.2-0.1-0.4-0.2c-0.1-0.1-0.2-0.2-0.2-0.4c0.5-1.4,0.8-2.9,0.8-4.4c0-0.1,0.1-0.3,0.3-0.3
						c0.2,0,0.3,0,0.4-0.1c0.9-0.2,1.7-0.7,2.2-1.5s0.7-1.7,0.5-2.6c-0.4-1.9-2.2-3.1-4.1-2.6c-0.1,0-0.3,0.1-0.4,0.1
						c-0.1,0.1-0.3,0-0.4-0.1c-0.7-1.4-1.5-2.6-2.6-3.7c-0.1-0.1-0.1-0.3,0-0.4c0.1-0.1,0.2-0.2,0.2-0.3c0.5-0.8,0.7-1.7,0.5-2.6
						c-0.2-0.9-0.7-1.7-1.5-2.2c-1.6-1-3.8-0.6-4.8,1c-0.1,0.1-0.1,0.2-0.2,0.4c-0.1,0.1-0.2,0.2-0.3,0.1c-1.4-0.5-2.9-0.8-4.4-0.8
						c-0.2,0-0.3-0.1-0.3-0.3c0-0.2,0-0.3-0.1-0.4c-0.4-1.9-2.2-3.1-4.1-2.6c-0.9,0.2-1.7,0.7-2.2,1.5s-0.7,1.7-0.5,2.6
						c0,0.1,0.1,0.3,0.1,0.4c0.1,0.1,0,0.3-0.2,0.4c-1.3,0.7-2.6,1.5-3.7,2.6c-0.1,0.1-0.3,0.1-0.4,0c-0.1-0.1-0.2-0.2-0.3-0.2
						c-1.6-1-3.8-0.6-4.8,1c-0.5,0.8-0.7,1.7-0.5,2.6c0.2,0.9,0.7,1.7,1.5,2.2c0.1,0.1,0.2,0.1,0.4,0.2c0.1,0.1,0.2,0.2,0.2,0.4
						c-0.5,1.4-0.8,2.9-0.8,4.4c0,0.1-0.1,0.3-0.3,0.3c-0.2,0-0.3,0-0.4,0.1c-0.9,0.2-1.7,0.7-2.2,1.5s-0.7,1.7-0.5,2.6
						c0.4,1.9,2.2,3,4.1,2.6c0.1,0,0.3-0.1,0.4-0.1c0.1,0,0.3,0,0.4,0.1c0.7,1.4,1.5,2.6,2.6,3.7c0.1,0.1,0.1,0.3,0,0.4
						c-0.1,0.1-0.2,0.2-0.2,0.3c-0.5,0.8-0.7,1.7-0.5,2.6c0.2,0.9,0.7,1.7,1.5,2.2c1.6,1,3.8,0.6,4.8-1c0.1-0.1,0.1-0.2,0.2-0.4
						C33.8,164,33.9,163.9,34,163.9L34,163.9z M39,156.9c-1.3,0-2.7-0.4-3.9-1.2c-1.6-1-2.8-2.7-3.2-4.6c-0.4-1.9-0.1-3.8,1-5.5
						c2.2-3.4,6.7-4.3,10-2.2c1.6,1.1,2.8,2.7,3.2,4.6s0.1,3.8-1,5.5C43.7,155.7,41.4,156.9,39,156.9z M39,143
						c-2.2,0-4.3,1.1-5.6,3.1c-1,1.5-1.3,3.3-0.9,5c0.4,1.7,1.4,3.2,2.9,4.2c3.1,2,7.2,1.1,9.2-2c1-1.5,1.3-3.3,0.9-5
						c-0.4-1.7-1.4-3.2-2.9-4.2C41.5,143.3,40.3,143,39,143L39,143z M44.9,153.4L44.9,153.4L44.9,153.4z"/>
				</g>
				<g>
					<path class="st1" d="M72.7,131.4c0.3-1.1-0.3-2.1-1.4-2.4c-0.1,0-0.2,0-0.2-0.1c0-0.8-0.1-1.6-0.3-2.4c0.1,0,0.1-0.1,0.2-0.1
						c0.9-0.5,1.3-1.7,0.7-2.7c-0.5-0.9-1.7-1.3-2.7-0.7c-0.1,0-0.1,0.1-0.2,0.1c-0.5-0.6-1.2-1.1-1.9-1.5c0-0.1,0.1-0.1,0.1-0.2
						c0.3-1.1-0.3-2.1-1.4-2.4s-2.1,0.3-2.4,1.4c0,0.1,0,0.2-0.1,0.2c-0.8,0-1.6,0.1-2.4,0.3c0-0.1-0.1-0.1-0.1-0.2
						c-0.5-0.9-1.7-1.3-2.7-0.7s-1.3,1.7-0.7,2.7c0,0.1,0.1,0.1,0.1,0.2c-0.6,0.5-1.1,1.2-1.5,1.9c-0.1,0-0.2-0.1-0.2-0.1
						c-1.1-0.3-2.1,0.3-2.4,1.4c-0.3,1.1,0.3,2.1,1.4,2.4c0.1,0,0.2,0,0.2,0.1c0,0.8,0.1,1.6,0.3,2.4c-0.1,0-0.1,0.1-0.2,0.1
						c-0.9,0.5-1.3,1.7-0.7,2.7c0.5,0.9,1.7,1.3,2.7,0.7c0.1,0,0.1-0.1,0.2-0.1c0.5,0.6,1.2,1.1,1.9,1.5c0,0.1-0.1,0.1-0.1,0.2
						c-0.3,1.1,0.3,2.1,1.4,2.4s2.1-0.3,2.4-1.4c0-0.1,0-0.2,0.1-0.2c0.8,0,1.6-0.1,2.4-0.3c0,0.1,0.1,0.1,0.1,0.2
						c0.5,0.9,1.7,1.3,2.7,0.7c0.9-0.5,1.3-1.7,0.7-2.7c0-0.1-0.1-0.1-0.1-0.2c0.6-0.5,1.1-1.2,1.5-1.9c0.1,0,0.2,0.1,0.2,0.1
						C71.4,133.1,72.4,132.5,72.7,131.4L72.7,131.4z M66.6,129.7c-0.5,1.9-2.6,3.1-4.5,2.5c-1.9-0.5-3.1-2.5-2.6-4.5
						c0.5-1.9,2.6-3.1,4.5-2.5C66,125.8,67.1,127.8,66.6,129.7z"/>
					<path d="M60.9,138.8c-0.2,0-0.4,0-0.6-0.1c-0.6-0.2-1.1-0.5-1.4-1.1s-0.4-1.1-0.2-1.7c0,0,0,0,0,0c-0.6-0.3-1.1-0.8-1.6-1.2
						c0,0,0,0,0,0c-1.1,0.6-2.5,0.2-3.1-0.9c-0.3-0.5-0.4-1.1-0.2-1.7s0.5-1.1,1.1-1.4c0,0,0,0,0,0c-0.2-0.6-0.2-1.3-0.2-2
						c0,0,0,0,0,0c-0.6-0.2-1.1-0.5-1.4-1.1c-0.3-0.5-0.4-1.1-0.2-1.7c0.3-1.2,1.6-1.9,2.8-1.6c0,0,0,0,0,0c0.3-0.6,0.8-1.1,1.2-1.6
						c0,0,0,0,0,0c-0.3-0.5-0.4-1.1-0.2-1.7s0.5-1.1,1.1-1.4c1.1-0.6,2.5-0.2,3.1,0.9c0,0,0,0,0,0c0.7-0.2,1.3-0.2,2-0.2
						c0,0,0,0,0,0c0.3-1.2,1.6-1.9,2.8-1.6c0.6,0.2,1.1,0.5,1.4,1.1s0.4,1.1,0.2,1.7c0,0,0,0,0,0c0.6,0.3,1.1,0.8,1.6,1.2
						c0,0,0,0,0,0c1.1-0.6,2.5-0.2,3.1,0.9c0.3,0.5,0.4,1.1,0.2,1.7s-0.5,1.1-1.1,1.4c0,0,0,0,0,0c0.2,0.6,0.2,1.3,0.2,2
						c0,0,0,0,0,0c0.6,0.2,1.1,0.5,1.4,1.1s0.4,1.1,0.2,1.7c-0.3,1.2-1.6,1.9-2.8,1.6c0,0,0,0,0,0c-0.3,0.6-0.8,1.1-1.2,1.6
						c0,0,0,0,0,0c0.3,0.5,0.4,1.1,0.2,1.7s-0.5,1.1-1.1,1.4c-1.1,0.6-2.5,0.2-3.1-0.9c0,0,0,0,0,0c-0.7,0.2-1.3,0.2-2,0.2
						c0,0,0,0,0,0C62.8,138.1,61.9,138.8,60.9,138.8L60.9,138.8z M57.2,134c0.1,0,0.2,0,0.2,0.1c0.5,0.6,1.1,1,1.8,1.4
						c0.1,0.1,0.2,0.2,0.1,0.4c0,0.1-0.1,0.1-0.1,0.2c-0.1,0.4-0.1,0.9,0.2,1.3s0.6,0.7,1,0.8c0.9,0.2,1.8-0.3,2.1-1.2
						c0-0.1,0-0.1,0-0.2c0-0.1,0.1-0.2,0.3-0.2c0.8,0,1.5-0.1,2.3-0.3c0.1,0,0.3,0,0.3,0.2c0,0.1,0.1,0.1,0.1,0.2
						c0.5,0.8,1.5,1.1,2.3,0.6c0.4-0.2,0.7-0.6,0.8-1s0.1-0.9-0.2-1.3c0-0.1-0.1-0.1-0.1-0.2c-0.1-0.1-0.1-0.3,0-0.4
						c0.6-0.5,1-1.1,1.4-1.8c0.1-0.1,0.2-0.2,0.4-0.1c0.1,0,0.1,0.1,0.2,0.1c0.9,0.2,1.8-0.3,2.1-1.2c0.1-0.4,0.1-0.9-0.2-1.3
						s-0.6-0.7-1-0.8c-0.1,0-0.1,0-0.2,0c-0.1,0-0.2-0.1-0.2-0.3c0-0.8-0.1-1.5-0.3-2.3c0-0.1,0-0.3,0.2-0.4c0.1,0,0.1-0.1,0.2-0.1
						c0.4-0.2,0.7-0.6,0.8-1s0.1-0.9-0.2-1.3c-0.5-0.8-1.5-1.1-2.3-0.6c-0.1,0-0.1,0.1-0.2,0.1c-0.1,0.1-0.3,0.1-0.4,0
						c-0.5-0.6-1.1-1-1.8-1.4c-0.1-0.1-0.2-0.2-0.1-0.4c0-0.1,0.1-0.1,0.1-0.2c0.1-0.4,0.1-0.9-0.2-1.3s-0.6-0.7-1-0.8
						c-0.9-0.2-1.8,0.3-2.1,1.2c0,0.1,0,0.1,0,0.2c0,0.1-0.1,0.2-0.3,0.2c-0.8,0-1.5,0.1-2.3,0.3c-0.1,0-0.3,0-0.3-0.2
						c0-0.1-0.1-0.1-0.1-0.2c-0.5-0.8-1.5-1.1-2.3-0.6c-0.4,0.2-0.7,0.6-0.8,1s-0.1,0.9,0.2,1.3c0,0.1,0.1,0.1,0.1,0.2
						c0.1,0.1,0.1,0.3,0,0.4c-0.6,0.5-1,1.1-1.4,1.8c-0.1,0.1-0.2,0.2-0.4,0.1c-0.1,0-0.1-0.1-0.2-0.1c-0.9-0.2-1.8,0.3-2.1,1.2
						c-0.1,0.4-0.1,0.9,0.2,1.3s0.6,0.7,1,0.8c0.1,0,0.1,0,0.2,0c0.1,0,0.2,0.1,0.2,0.3c0,0.8,0.1,1.5,0.3,2.3c0,0.1,0,0.3-0.2,0.4
						c-0.1,0-0.1,0.1-0.2,0.1c-0.4,0.2-0.7,0.6-0.8,1s-0.1,0.9,0.2,1.3c0.5,0.8,1.5,1.1,2.3,0.6c0.1,0,0.1-0.1,0.2-0.1
						C57.1,134.1,57.1,134,57.2,134z M72.7,131.4L72.7,131.4L72.7,131.4z M63.1,132.7c-0.3,0-0.7-0.1-1.1-0.1
						c-1-0.3-1.9-0.9-2.4-1.9s-0.7-2-0.4-3c0.6-2.1,2.8-3.3,4.8-2.8c1,0.3,1.9,0.9,2.4,1.9s0.7,2,0.4,3
						C66.4,131.6,64.8,132.7,63.1,132.7z M63.1,125.4c-1.5,0-2.8,1-3.2,2.5c-0.2,0.9-0.1,1.8,0.3,2.6c0.4,0.8,1.2,1.3,2,1.6
						c1.8,0.5,3.6-0.6,4.1-2.3c0.2-0.9,0.1-1.8-0.3-2.6c-0.4-0.8-1.2-1.3-2-1.6C63.6,125.5,63.3,125.4,63.1,125.4L63.1,125.4z
						 M66.6,129.8L66.6,129.8L66.6,129.8z"/>
				</g>
			</g>
			<path d="M35.6,226c-0.1,0-0.2,0-0.2-0.1c-0.1,0-0.1-0.1-0.1-0.2v-52.1c0-0.2,0.1-0.3,0.3-0.3s0.3,0.1,0.3,0.3v51.9l30.1-0.1l0,0
				c0.2,0,0.3,0.1,0.3,0.3s-0.1,0.3-0.3,0.3L35.6,226L35.6,226L35.6,226z"/>
		</g>
		<g>
			<path d="M329.6,101.7c-0.2,0-0.3-0.1-0.3-0.3V28.8c0-0.2,0.1-0.3,0.3-0.3s0.3,0.1,0.3,0.3v72.6
				C329.9,101.6,329.8,101.7,329.6,101.7z"/>
			<path class="st3" d="M331.2,28.1v20.3c0,0,6.2-5.8,18.1-0.5c11.4,5.1,23.6,1.3,30.5-6.6c0,0-8.4-1.1-13.1-3.6
				c0,0,10.5-5.6,11.9-9c0,0-13.6,2.2-21.6-0.8C350.6,25.5,342.6,22.3,331.2,28.1L331.2,28.1z"/>
		</g>
	</g>
</g>
</svg>
