<svg width="40" height="40" viewBox="0 0 40 40" fill="none" xmlns="http://www.w3.org/2000/svg">
<path d="M15.8062 23.8074C15.5324 23.8074 15.3115 23.5873 15.3115 23.3145C15.3115 20.8501 16.8153 19.2571 19.1406 19.2571H21.7441C24.0693 19.2571 25.5731 20.8501 25.5731 23.3145C25.5731 23.5851 25.3523 23.8074 25.0785 23.8074H15.8062ZM24.5596 22.8216C24.3895 21.1824 23.3649 20.2428 21.7441 20.2428H19.1406C17.5197 20.2428 16.4951 21.1824 16.3251 22.8216H24.5596Z" fill="#00A3FF"/>
<path d="M20.4522 18.069C19.0279 18.069 18.0696 16.9622 18.0696 15.3141C18.0696 13.6661 19.0279 12.5593 20.4522 12.5593C21.8766 12.5593 22.8349 13.6661 22.8349 15.3141C22.8349 16.9622 21.8766 18.069 20.4522 18.069ZM20.4522 13.5451C19.1582 13.5451 19.0589 14.8983 19.0589 15.3141C19.0589 15.73 19.1582 17.0832 20.4522 17.0832C21.7463 17.0832 21.8456 15.73 21.8456 15.3141C21.8456 14.8983 21.7463 13.5451 20.4522 13.5451Z" fill="#00A3FF"/>
<path d="M10.8841 33.0841C10.6102 33.0841 10.3894 32.864 10.3894 32.5912V10.2072C10.3894 9.93659 10.6102 9.71436 10.8841 9.71436H15.7819C16.0557 9.71436 16.2765 9.93439 16.2765 10.2072C16.2765 10.4801 16.0557 10.7001 15.7819 10.7001H11.3787V32.0983H29.5082V29.2577C29.5082 28.9848 29.729 28.7648 30.0028 28.7648C30.2767 28.7648 30.4975 28.9848 30.4975 29.2577V32.5912C30.4975 32.8618 30.2767 33.0841 30.0028 33.0841H10.8841Z" fill="#E119A0"/>
<path d="M30.0027 22.6061C29.7289 22.6061 29.5081 22.3861 29.5081 22.1132V10.7001H25.8203C25.5487 10.7001 25.3257 10.4801 25.3257 10.2072C25.3257 9.93439 25.5465 9.71436 25.8203 9.71436H30.0027C30.2743 9.71436 30.4973 9.93439 30.4973 10.2072V22.1132C30.4973 22.3861 30.2765 22.6061 30.0027 22.6061Z" fill="#E119A0"/>
<path d="M8.49464 35.4647C8.22082 35.4647 8 35.2447 8 34.9718V7.82637C8 7.55353 8.22082 7.3335 8.49464 7.3335H15.1856C15.4594 7.3335 15.6802 7.55353 15.6802 7.82637C15.6802 8.09921 15.4594 8.31924 15.1856 8.31924H8.98928V34.479H31.8974V26.8768C31.8974 26.604 32.1182 26.384 32.392 26.384C32.6658 26.384 32.8867 26.604 32.8867 26.8768V34.9718C32.8867 35.2447 32.6658 35.4647 32.392 35.4647H8.49464Z" fill="#E119A0"/>
<path d="M32.3919 20.2252C32.118 20.2252 31.8972 20.0052 31.8972 19.7324V8.31924H25.7009C25.4271 8.31924 25.2063 8.09921 25.2063 7.82637C25.2063 7.55353 25.4271 7.3335 25.7009 7.3335H32.3919C32.6657 7.3335 32.8865 7.55353 32.8865 7.82637V19.7324C32.8865 20.003 32.6657 20.2252 32.3919 20.2252Z" fill="#E119A0"/>
<path d="M17.575 28.3202C17.3034 28.3202 17.0803 28.1002 17.0803 27.8273C17.0803 27.5545 17.3011 27.3345 17.575 27.3345H26.6552C26.929 27.3345 27.1498 27.5545 27.1498 27.8273C27.1498 28.1002 26.929 28.3202 26.6552 28.3202H17.575Z" fill="#00A3FF"/>
<path d="M15.1856 10.7C14.9117 10.7 14.6909 10.48 14.6909 10.2071V5.92089C14.6909 5.65025 14.9117 5.42801 15.1856 5.42801H18.2594C18.626 4.56548 19.4894 4 20.4433 4C21.3973 4 22.2607 4.56548 22.6427 5.43902L25.7011 5.43021C25.9727 5.43021 26.1958 5.65025 26.1958 5.92309V10.2093C26.1958 10.4822 25.9749 10.7022 25.7011 10.7022H15.1856V10.7ZM25.2065 9.71426V6.41376H22.2872C22.062 6.41376 21.8654 6.26194 21.808 6.04411C21.6468 5.42141 21.0837 4.98575 20.4433 4.98575C19.803 4.98575 19.2399 5.42141 19.0787 6.04411C19.0234 6.26194 18.8247 6.41376 18.5995 6.41376H15.6802V9.71426H25.2065Z" fill="#E119A0"/>
<path d="M29.4771 27.5237C29.3446 27.5237 29.221 27.4731 29.1282 27.3807L27.0967 25.363C27.0039 25.2706 26.9509 25.1474 26.9509 25.0154C26.9509 24.8833 27.0017 24.7601 27.0945 24.6655L35.8633 15.8928C35.9561 15.7982 36.0797 15.7476 36.2122 15.7476C36.3447 15.7476 36.4684 15.7982 36.5611 15.8906L38.5927 17.9061C38.6854 17.9985 38.7384 18.1239 38.7384 18.2537C38.7384 18.3858 38.6876 18.509 38.5949 18.6014L29.8238 27.3741C29.7311 27.4665 29.6074 27.5193 29.4749 27.5193L29.4771 27.5237ZM29.4749 26.3333L37.546 18.2581L36.2144 16.9379L28.1434 25.0131L29.4749 26.3333Z" fill="#00A3FF"/>
<path d="M26.7742 28.2014C26.6439 28.2014 26.5181 28.1486 26.4253 28.0584C26.3017 27.9374 26.2531 27.7569 26.2951 27.5897L26.9663 24.8943C27.0105 24.7227 27.143 24.5863 27.313 24.5379C27.3572 24.5269 27.4014 24.5203 27.4455 24.5203C27.578 24.5203 27.7017 24.5709 27.7944 24.6633L29.826 26.681C29.9519 26.8064 30.0004 26.989 29.9541 27.1607C29.9077 27.3323 29.7708 27.4643 29.5986 27.5083L26.8957 28.186C26.8559 28.1948 26.8162 28.2014 26.7742 28.2014ZM27.4522 27.0308L28.5077 26.7646L27.7127 25.9769L27.45 27.0308H27.4522Z" fill="#00A3FF"/>
<path d="M14.3596 29.1342C14.2271 29.1342 14.0968 29.0792 14.0041 28.9824L12.9441 27.8867C12.8514 27.792 12.8028 27.6666 12.805 27.5346C12.8072 27.4026 12.8602 27.2794 12.9574 27.1892C13.0501 27.1011 13.1716 27.0505 13.2997 27.0505C13.4344 27.0505 13.5624 27.1033 13.6552 27.2024L14.3088 27.8779L15.6757 26.0274C15.7684 25.902 15.9186 25.8271 16.0754 25.8271C16.1814 25.8271 16.283 25.8602 16.3669 25.924C16.4729 26.001 16.5435 26.1176 16.5634 26.2474C16.5833 26.3772 16.5502 26.5071 16.4729 26.6127L14.7571 28.934C14.671 29.0506 14.5363 29.1232 14.3905 29.1342H14.3574H14.3596Z" fill="#00A3FF"/>
</svg>
