<svg width="40" height="40" viewBox="0 0 40 40" fill="none" xmlns="http://www.w3.org/2000/svg">
<path d="M36.2048 27.8251H18.9606C18.6806 27.8251 18.4529 27.5974 18.4529 27.3174V5.50774C18.4529 5.22775 18.6806 5 18.9606 5H36.2048C36.4848 5 36.7126 5.22775 36.7126 5.50774V27.3174C36.7126 27.5974 36.4848 27.8251 36.2048 27.8251ZM19.4684 26.8097H35.6992V6.01338H19.4684V26.8097Z" fill="#E119A0"/>
<path d="M33.1752 22.752H22.0175C21.7375 22.752 21.5098 22.5243 21.5098 22.2443C21.5098 21.9643 21.7375 21.7366 22.0175 21.7366H33.1752C33.4551 21.7366 33.6829 21.9643 33.6829 22.2443C33.6829 22.5243 33.4551 22.752 33.1752 22.752Z" fill="#E119A0"/>
<path d="M33.1752 25.2884H22.0175C21.7375 25.2884 21.5098 25.0607 21.5098 24.7807C21.5098 24.5007 21.7375 24.2729 22.0175 24.2729H33.1752C33.4551 24.2729 33.6829 24.5007 33.6829 24.7807C33.6829 25.0607 33.4551 25.2884 33.1752 25.2884Z" fill="#E119A0"/>
<path d="M21.0019 34.8791H3.75774C3.47775 34.8791 3.25 34.6513 3.25 34.3713V12.5617C3.25 12.2817 3.47775 12.054 3.75774 12.054H16.9442C17.2242 12.054 17.452 12.2817 17.452 12.5617C17.452 12.8417 17.2242 13.0694 16.9442 13.0694H4.26338V33.8657H20.4942V29.3462C20.4942 29.0662 20.722 28.8385 21.0019 28.8385C21.2819 28.8385 21.5097 29.0662 21.5097 29.3462V34.3713C21.5097 34.6513 21.2819 34.8791 21.0019 34.8791Z" fill="#E119A0"/>
<path d="M17.9724 29.808H6.81267C6.53268 29.808 6.30493 29.5802 6.30493 29.3002C6.30493 29.0202 6.53268 28.7925 6.81267 28.7925H17.9703C18.2503 28.7925 18.4781 29.0202 18.4781 29.3002C18.4781 29.5802 18.2503 29.808 17.9703 29.808H17.9724Z" fill="#E119A0"/>
<path d="M17.9724 32.3424H6.81267C6.53268 32.3424 6.30493 32.1146 6.30493 31.8346C6.30493 31.5547 6.53268 31.3269 6.81267 31.3269H17.9703C18.2503 31.3269 18.4781 31.5547 18.4781 31.8346C18.4781 32.1146 18.2503 32.3424 17.9703 32.3424H17.9724Z" fill="#E119A0"/>
<path d="M16.8439 25.8922H7.91569C7.63571 25.8922 7.40796 25.6645 7.40796 25.3845C7.40796 22.9837 8.86639 21.4333 11.1251 21.4333H13.6324C15.8911 21.4333 17.3495 22.9837 17.3495 25.3845C17.3495 25.6645 17.1218 25.8922 16.8418 25.8922H16.8439ZM8.45059 24.8768H16.309C16.1377 23.3452 15.164 22.4467 13.6324 22.4467H11.1251C9.59352 22.4467 8.62193 23.3452 8.4485 24.8768H8.45059Z" fill="#00A3FF"/>
<path d="M12.3893 20.3469C10.9977 20.3469 10.0637 19.2646 10.0637 17.6536C10.0637 16.0426 10.9977 14.9624 12.3893 14.9624C13.7808 14.9624 14.7148 16.0447 14.7148 17.6536C14.7148 19.2625 13.7808 20.3469 12.3893 20.3469ZM12.3893 15.9758C11.1732 15.9758 11.0792 17.2608 11.0792 17.6536C11.0792 18.0464 11.1732 19.3314 12.3893 19.3314C13.6053 19.3314 13.6994 18.0464 13.6994 17.6536C13.6994 17.2608 13.6053 15.9758 12.3893 15.9758Z" fill="#00A3FF"/>
<g clip-path="url(#clip0_2875_28763)">
<path d="M31.9563 18.3145H30.2213C30.2213 18.2628 30.2213 18.2193 30.2213 18.1738C30.2213 17.2362 30.2213 16.3008 30.2171 15.3632C30.2171 15.1852 30.1984 15.0031 30.1672 14.8272C30.0695 14.2477 29.6742 13.9724 29.0896 14.0635C28.6091 14.138 28.3283 14.4091 28.2346 14.9182C28.1972 15.119 28.1826 15.3239 28.1806 15.5288C28.1743 16.4063 28.1785 17.2859 28.1785 18.1634C28.1785 18.209 28.1785 18.2545 28.1785 18.3104H26.4727V12.6561H28.1743V13.4033C28.2555 13.2998 28.3095 13.2191 28.3761 13.1466C28.7194 12.772 29.1604 12.594 29.6596 12.5568C30.0944 12.5237 30.525 12.5651 30.9286 12.7472C31.4383 12.9749 31.7149 13.395 31.8273 13.9165C31.9001 14.2498 31.9479 14.5933 31.9521 14.9348C31.9687 16.0379 31.9604 17.1431 31.9604 18.2462C31.9604 18.2669 31.9583 18.2876 31.9563 18.3145Z" fill="#0077B5"/>
<path d="M23.5977 12.656H25.3472V18.3165H23.5977V12.656Z" fill="#0077B5"/>
<path d="M24.4942 11.8717C23.9263 11.8717 23.4624 11.4081 23.4624 10.841C23.4624 10.276 23.9284 9.81445 24.4963 9.81445C25.0663 9.81445 25.5281 10.2781 25.5281 10.8431C25.5281 11.4101 25.0621 11.8717 24.4942 11.8696V11.8717Z" fill="#0077B5"/>
</g>
<defs>
<clipPath id="clip0_2875_28763">
<rect width="8.5" height="8.5" fill="white" transform="translate(23.4624 9.81445)"/>
</clipPath>
</defs>
</svg>
