<svg width="80" height="80" viewBox="0 0 80 80" fill="none" xmlns="http://www.w3.org/2000/svg">
<g clip-path="url(#clip0_5479_1133)">
<path d="M75.5119 14.2314L76.7446 12.9358L75.1698 11.4289L73.9346 12.7245L75.5119 14.2314Z" fill="white"/>
<path d="M75.512 14.2893C75.4969 14.2893 75.4818 14.2842 75.4717 14.2742L73.8969 12.7672C73.8742 12.7446 73.8742 12.7094 73.8969 12.6867L75.1296 11.3911C75.1296 11.3911 75.1547 11.3735 75.1698 11.3735C75.1849 11.3735 75.2 11.3786 75.2101 11.3886L76.7849 12.8955C76.8076 12.9182 76.8076 12.9534 76.7849 12.9761L75.5522 14.2716C75.5522 14.2716 75.5271 14.2893 75.512 14.2893ZM74.0176 12.722L75.5094 14.1484L76.6642 12.9358L75.1723 11.5094L74.0176 12.722Z" fill="#340160"/>
<path d="M78.8025 17.3434L80.0025 16.0805L80.0201 16.0654L78.4604 14.5735L77.2402 15.8541L78.8025 17.3434Z" fill="white"/>
<path d="M78.8026 17.4012C78.7875 17.4012 78.7724 17.3962 78.7623 17.3861L77.2001 15.8968C77.1774 15.8742 77.1774 15.8389 77.2001 15.8163L78.4202 14.5358C78.4202 14.5358 78.4454 14.5182 78.4605 14.5182C78.4756 14.5182 78.4907 14.5232 78.5007 14.5333L80.0605 16.0226C80.0831 16.0452 80.0831 16.0805 80.0605 16.1031L80.0454 16.1182L78.8454 17.3811C78.8454 17.3811 78.8202 17.3987 78.8051 17.3987L78.8026 17.4012ZM77.3208 15.8515L78.8001 17.2628L79.9372 16.0679L78.4605 14.6566L77.3208 15.854V15.8515Z" fill="#340160"/>
<path d="M77.2404 15.854L74.5713 18.6566C74.136 19.1144 73.4492 19.1647 73.0392 18.7723L72.8128 18.5559C72.4027 18.1635 72.4228 17.4742 72.858 17.0163L75.5121 14.2289L73.9348 12.7245L71.2933 15.4968C70.0882 16.7597 70.0354 18.6666 71.17 19.7509L71.9046 20.4528C73.0417 21.5396 74.9385 21.3962 76.1436 20.1308L78.8027 17.3408L77.243 15.8515L77.2404 15.854Z" fill="white"/>
<path d="M73.7711 21.2427C73.0441 21.2427 72.3699 20.9786 71.8642 20.4981L71.1296 19.7962C69.9724 18.6893 70.0252 16.7446 71.2504 15.4591L73.8919 12.6867C73.8919 12.6867 73.917 12.6691 73.9321 12.6691C73.9472 12.6691 73.9623 12.6742 73.9724 12.6842L75.5497 14.1886C75.5724 14.2113 75.5724 14.2465 75.5497 14.2691L72.8957 17.0565C72.4831 17.4893 72.4629 18.1433 72.8504 18.5132L73.0768 18.7295C73.2504 18.8955 73.4843 18.9836 73.7359 18.976C74.0277 18.9685 74.3145 18.8377 74.5284 18.6138L77.1975 15.8113C77.1975 15.8113 77.2227 15.7937 77.2378 15.7937C77.2554 15.7937 77.268 15.7987 77.278 15.8088L78.8378 17.2981C78.8604 17.3207 78.8604 17.3559 78.8378 17.3786L76.1787 20.1685C75.5523 20.8276 74.6969 21.215 73.8365 21.2352C73.8139 21.2352 73.7887 21.2352 73.7661 21.2352L73.7711 21.2427ZM73.9347 12.8075L71.3334 15.5371C70.1535 16.7748 70.0982 18.649 71.2101 19.7106L71.9447 20.4125C72.4428 20.888 73.117 21.1421 73.8391 21.1245C74.6692 21.1043 75.4944 20.7295 76.1007 20.093L78.7196 17.3433L77.2428 15.9345L74.6114 18.6943C74.3774 18.9383 74.0604 19.0842 73.7384 19.0918C73.4541 19.0993 73.1925 18.9987 72.9963 18.8125L72.7699 18.5962C72.3372 18.1811 72.3548 17.4565 72.8126 16.976L75.429 14.2314L73.9347 12.8075Z" fill="#340160"/>
<path d="M37.034 74.2314H68.629C70.2615 74.2314 71.585 72.908 71.585 71.2755L71.585 8.82516C71.585 7.19261 70.2615 5.86918 68.629 5.86918H37.034C35.4015 5.86918 34.078 7.19261 34.078 8.82516L34.078 71.2755C34.078 72.908 35.4015 74.2314 37.034 74.2314Z" fill="white"/>
<path d="M68.629 74.3144H37.0366C35.3611 74.3144 33.9976 72.9509 33.9976 71.2754V8.82513C33.9976 7.14965 35.3611 5.78613 37.0366 5.78613H68.629C70.3045 5.78613 71.668 7.14965 71.668 8.82513V71.2754C71.668 72.9509 70.3045 74.3144 68.629 74.3144ZM37.034 5.94965C35.4491 5.94965 34.1586 7.24022 34.1586 8.82513V71.2754C34.1586 72.8603 35.4491 74.1509 37.034 74.1509H68.6265C70.2114 74.1509 71.502 72.8603 71.502 71.2754V8.82513C71.502 7.24022 70.2114 5.94965 68.6265 5.94965H37.034Z" fill="#340160"/>
<path d="M67.0238 72.1434H38.6389C37.8716 72.1434 37.1547 71.8364 36.6188 71.278C36.5861 71.2452 36.5886 71.1924 36.6188 71.1622C36.6515 71.1295 36.7043 71.132 36.7345 71.1622C37.2377 71.688 37.9144 71.9773 38.6364 71.9773H67.0213C68.4754 71.9773 69.6603 70.7924 69.6603 69.3383V55.1295C69.6603 55.0842 69.6981 55.0465 69.7433 55.0465C69.7886 55.0465 69.8264 55.0842 69.8264 55.1295V69.3383C69.8264 70.8855 68.5685 72.1434 67.0213 72.1434H67.0238Z" fill="#340160"/>
<path d="M35.917 36.8679C35.8717 36.8679 35.834 36.8301 35.834 36.7849V10.571C35.834 9.02385 37.0918 7.76599 38.639 7.76599H67.0239C68.5711 7.76599 69.829 9.02385 69.829 10.571V28.8276C69.829 28.8729 69.7912 28.9106 69.7459 28.9106C69.7006 28.9106 69.6629 28.8729 69.6629 28.8276V10.571C69.6629 9.11693 68.478 7.93203 67.0239 7.93203H38.639C37.1849 7.93203 36 9.11693 36 10.571V36.7849C36 36.8301 35.9623 36.8679 35.917 36.8679Z" fill="#340160"/>
<path d="M56.3447 9.86666H48.8906C48.8454 9.86666 48.8076 9.82892 48.8076 9.78364C48.8076 9.73836 48.8454 9.70062 48.8906 9.70062H56.3447C56.39 9.70062 56.4277 9.73836 56.4277 9.78364C56.4277 9.82892 56.39 9.86666 56.3447 9.86666Z" fill="#340160"/>
<path d="M66.3521 30.8403L44.2363 30.8302C43.8036 30.8302 43.4439 30.478 43.4338 30.0453C43.4237 29.6126 43.7634 29.2604 44.1961 29.2604L66.3118 29.2704C66.7445 29.2704 67.1043 29.6226 67.1143 30.0553C67.1244 30.488 66.7848 30.8403 66.3521 30.8403Z" fill="#F5E9FF"/>
<path d="M41.3005 29.9899C41.3131 30.5157 40.9005 30.9384 40.3747 30.9384C39.8515 30.9384 39.4163 30.5132 39.4012 29.9874C39.3886 29.4616 39.8012 29.039 40.3269 29.039C40.8502 29.039 41.2854 29.4642 41.3005 29.9899Z" fill="#F5E9FF"/>
<path d="M66.3472 27.4792L44.2314 27.4692C43.7987 27.4692 43.439 27.117 43.4289 26.6843C43.4189 26.2516 43.7585 25.8994 44.1912 25.8994L66.3069 25.9094C66.7396 25.9094 67.0994 26.2616 67.1094 26.6943C67.1195 27.127 66.7799 27.4792 66.3472 27.4792Z" fill="#F5E9FF"/>
<path d="M41.2956 26.6289C41.3082 27.1547 40.8956 27.5774 40.3699 27.5774C39.8466 27.5774 39.4114 27.1522 39.3963 26.6264C39.3837 26.1006 39.7963 25.678 40.3195 25.678C40.8428 25.678 41.278 26.1031 41.2931 26.6289H41.2956Z" fill="#F5E9FF"/>
<path d="M66.3823 34.4L44.2666 34.3899C43.8339 34.3899 43.4741 34.0377 43.4641 33.605C43.454 33.1723 43.7936 32.8201 44.2263 32.8226L66.3421 32.8327C66.7748 32.8327 67.1345 33.1849 67.1446 33.6176C67.1547 34.0503 66.815 34.4025 66.3823 34.4025V34.4Z" fill="#F5E9FF"/>
<path d="M41.3308 33.5497C41.3434 34.0755 40.9308 34.4981 40.405 34.4981C39.8817 34.4981 39.4465 34.073 39.4314 33.5472C39.4189 33.0214 39.8314 32.5988 40.3572 32.5988C40.8805 32.5988 41.3157 33.0239 41.3308 33.5497Z" fill="#F5E9FF"/>
<path d="M51.6455 37.8339H39.3989V50.0805H51.6455V37.8339Z" fill="#F5E9FF"/>
<path d="M66.9863 37.8339H54.7397V50.0805H66.9863V37.8339Z" fill="#F5E9FF"/>
<path d="M49.0616 39.1824H0V69.4717H49.0616V39.1824Z" fill="#F500A3"/>
<path d="M35.7661 48.9408C35.1623 48.2062 34.312 47.6729 33.3711 47.5144C32.9913 47.4515 32.5711 47.4289 32.2869 47.1698C31.834 46.7572 32.0051 45.9773 32.4126 45.5169C32.8202 45.0591 33.3963 44.7849 33.8391 44.3622C34.9183 43.3308 34.9384 41.3962 33.8793 40.3421C32.8026 39.2704 30.9887 39.1798 29.9875 38.0377C29.2428 37.1874 29.1321 35.9522 29.2579 34.8276C29.3837 33.7056 29.7082 32.6012 29.6982 31.4691C29.6806 29.6654 28.7397 27.8943 27.2579 26.8679C25.7737 25.8415 23.7862 25.5849 22.0932 26.2037C20.1259 25.0943 17.507 25.2779 15.7133 26.649C13.9196 28.0201 13.0567 30.5031 13.6126 32.6893C13.8064 33.4515 14.1535 34.254 13.8743 34.9886C13.4944 35.9823 12.1334 36.3522 11.8139 37.3685C11.5171 38.3144 12.2843 39.3333 12.0604 40.2993C11.9171 40.9232 11.3963 41.3811 11.0843 41.9421C10.6013 42.81 10.6516 43.9018 11.0089 44.8276C11.3661 45.7559 11.9976 46.5484 12.6516 47.2981C16.7221 51.9698 22.2416 55.5899 28.3799 56.4427C31.6101 56.8905 37.0743 55.215 36.6592 51.0264C36.5837 50.2591 36.2592 49.5345 35.7711 48.9383L35.7661 48.9408Z" fill="#340160"/>
<path d="M25.0216 45.4893C25.0216 45.4893 40.3901 59.3006 42.3373 62.0352C44.2845 64.7698 44.5235 68.6943 38.77 68.2415C33.0165 67.7886 23.6304 60.0125 23.6304 60.0125L25.0216 45.4868V45.4893Z" fill="white"/>
<path d="M25.1549 45.8314C27.1272 47.61 40.4228 59.6301 42.204 62.1333C42.7448 62.8955 43.1272 63.7056 43.3058 64.4804C43.497 65.3056 43.4417 66.0452 43.1448 66.6188C42.6417 67.5974 41.4316 68.1132 39.6455 68.1132C39.3738 68.1132 39.0819 68.1006 38.7826 68.0779C36.458 67.8943 33.1222 66.4226 29.1348 63.8213C26.3951 62.0352 24.2065 60.2716 23.8014 59.9421L25.1524 45.8314H25.1549ZM25.0216 45.4893L23.6304 60.015C23.6304 60.015 33.019 67.7886 38.77 68.244C39.0794 68.2691 39.3712 68.2792 39.6455 68.2792C44.4907 68.2792 44.1813 64.6264 42.3373 62.0377C40.3901 59.3031 25.0216 45.4918 25.0216 45.4918V45.4893Z" fill="#340160"/>
<path d="M7.49454 43.9798C7.49454 43.9798 12.1587 42.7773 16.0329 43.0339C19.9071 43.2905 25.0241 45.4892 25.0241 45.4892C25.0241 45.4892 27.2077 53.1597 27.8895 57.9295C28.1713 59.8943 27.3964 61.8867 25.7989 63.0666C25.5574 63.2452 25.3033 63.3987 25.0442 63.5144L23.8467 69.4716H4.7373L6.66938 62.7999L7.49454 43.9798Z" fill="#6E00BE"/>
<path d="M26.9082 70.4226H35.2604C35.756 70.4226 36.2013 70.1207 36.385 69.6628L43.9019 50.9207C44.2214 50.1257 43.6353 49.2603 42.7774 49.2603H35.1422C34.2139 49.2603 33.3812 49.8238 33.034 50.6867L25.7837 68.7647C25.4642 69.5597 26.0504 70.4251 26.9082 70.4251V70.4226Z" fill="#340160"/>
<path d="M31.8489 53.7257C31.8489 53.7257 31.8288 53.7257 31.8187 53.7207C31.776 53.7031 31.7558 53.6553 31.7735 53.6125L32.9609 50.654C33.3206 49.7559 34.1785 49.1773 35.1445 49.1773C35.1898 49.1773 35.2275 49.215 35.2275 49.2603C35.2275 49.3056 35.1898 49.3433 35.1445 49.3433C34.2464 49.3433 33.4489 49.8817 33.1143 50.7169L31.9269 53.6754C31.9143 53.7081 31.8842 53.7283 31.8514 53.7283L31.8489 53.7257Z" fill="white"/>
<path d="M38.1834 64.9257L37.6929 66.3949C37.6929 66.3949 39.1721 66.3848 40.0023 64.5534C40.5532 63.3358 41.5545 60.8679 42.1633 59.3458C42.4878 58.5383 42.2866 57.615 41.6551 57.0163C40.7947 56.2012 39.5771 55.1823 38.7696 55.0515C37.3985 54.8326 38.4828 56.4301 39.2551 57.2704C39.2551 57.2704 37.6903 55.9069 37.1369 56.6792C36.3042 57.8364 39.2652 58.6314 39.4111 60.4427C39.4111 60.4427 36.7318 57.4842 36.2815 58.5685C35.8463 59.6175 37.874 60.6842 38.3218 62.0377C38.3218 62.0377 36.7318 59.9119 35.8966 60.7119C35.1193 61.4565 37.9444 63.6402 38.1859 64.9257H38.1834Z" fill="white"/>
<path d="M37.6931 66.4754C37.6679 66.4754 37.6428 66.4628 37.6252 66.4402C37.6101 66.4176 37.605 66.3899 37.6126 66.3647L38.0956 64.9157C37.9849 64.3823 37.4113 63.6754 36.8554 62.9911C36.0755 62.0301 35.3409 61.1245 35.8365 60.649C35.995 60.4981 36.1862 60.4301 36.4076 60.4478C36.9333 60.4905 37.5296 61.0188 37.9271 61.444C37.7032 61.1119 37.4113 60.7924 37.1271 60.4805C36.5132 59.8113 35.9346 59.1773 36.2038 58.5308C36.2692 58.3723 36.3849 58.2742 36.5384 58.249C37.2503 58.1257 38.7572 59.6276 39.2855 60.1836C39.1094 59.4666 38.4755 58.9132 37.9069 58.4201C37.2327 57.8339 36.5988 57.283 37.0692 56.6264C37.1799 56.4729 37.3333 56.3823 37.5271 56.3597C37.9094 56.3144 38.3799 56.5484 38.7421 56.7823C38.2994 56.2062 37.8893 55.5069 38.0805 55.1547C38.1786 54.971 38.4151 54.9056 38.7824 54.966C39.6076 55.0993 40.8302 56.1182 41.7107 56.9509C42.3698 57.5748 42.5786 58.5232 42.239 59.371C41.6704 60.7874 40.6365 63.3459 40.0755 64.5811C39.2327 66.4402 37.7082 66.4704 37.6931 66.4704V66.4754ZM36.3396 60.6138C36.1887 60.6138 36.0629 60.6666 35.9522 60.7723C35.5673 61.1421 36.2868 62.0327 36.9862 62.8905C37.5623 63.6 38.156 64.332 38.2642 64.9081C38.2667 64.9207 38.2642 64.9358 38.2616 64.9484L37.8113 66.2968C38.1711 66.2465 39.2654 65.9748 39.9271 64.5157C40.4855 63.283 41.5195 60.727 42.0881 59.3106C42.4025 58.5283 42.2088 57.6503 41.6 57.0717C40.7371 56.254 39.5421 55.2553 38.7572 55.1295C38.5585 55.0968 38.3044 55.0893 38.2264 55.2352C38.0579 55.5471 38.6491 56.4855 39.3157 57.2125C39.3459 57.2452 39.3459 57.2956 39.3157 57.3257C39.2855 57.3559 39.2352 57.3584 39.2025 57.3308C39.1925 57.3207 38.1862 56.4553 37.5472 56.5283C37.4013 56.5459 37.2881 56.6113 37.205 56.727C36.8403 57.2352 37.2755 57.6553 38.0176 58.2993C38.6767 58.8704 39.4214 59.5195 39.4943 60.4352C39.4969 60.4704 39.4767 60.5031 39.444 60.5182C39.4113 60.5333 39.3736 60.5232 39.351 60.4981C38.7925 59.8817 37.205 58.3069 36.5686 58.4176C36.4704 58.4352 36.4025 58.493 36.3572 58.6012C36.1283 59.1496 36.6491 59.7182 37.2503 60.3773C37.7182 60.888 38.2013 61.4163 38.3975 62.0125C38.4101 62.0503 38.3925 62.093 38.3572 62.1106C38.322 62.1283 38.2767 62.1182 38.2541 62.088C38.244 62.0729 37.195 60.6842 36.395 60.6188C36.3749 60.6188 36.3572 60.6188 36.3396 60.6188V60.6138Z" fill="#340160"/>
<path d="M40.8024 58.7245C40.7822 58.7245 40.7646 58.717 40.747 58.7044L39.1998 57.3333C39.1646 57.3031 39.1621 57.2503 39.1923 57.2176C39.2225 57.1824 39.2753 57.1799 39.308 57.21L40.8552 58.5811C40.8904 58.6113 40.8929 58.6641 40.8627 58.6968C40.8476 58.7145 40.825 58.7245 40.8024 58.7245Z" fill="#340160"/>
<path d="M7.49411 43.9798L11.8111 61.0641C11.8111 61.0641 17.6778 54.5559 21.6476 53.7207C25.6174 52.8855 30.4551 54.6566 30.2916 55.9094C30.1281 57.1622 27.5922 55.683 26.0576 56.2037C26.0576 56.2037 26.8199 56.332 27.3079 56.5987C27.8991 56.9182 27.8891 57.927 27.0715 58.0452C27.0715 58.0452 27.5142 59.4867 25.8388 59.4289C25.8388 59.4289 26.1457 61.2402 24.1482 60.9433C24.1482 60.9433 23.0991 61.1371 22.4174 60.8301C22.4174 60.8301 15.7608 71.4238 10.918 71.6377C6.07524 71.8515 3.31549 60.1056 2.82492 55.6377C2.33436 51.1698 2.63373 45.0792 7.49411 43.9748V43.9798Z" fill="white"/>
<path d="M10.7874 71.7283C8.17863 71.7283 6.29183 68.317 5.16227 65.4289C3.87171 62.1258 3.01636 58.1383 2.74215 55.6528C2.4302 52.8201 2.54089 50.4251 3.07171 48.5283C3.79121 45.9572 5.27297 44.4 7.47674 43.8993C7.52202 43.8893 7.56479 43.917 7.57485 43.9622C7.58492 44.0075 7.55724 44.0503 7.51196 44.0603C5.3736 44.5459 3.93209 46.0654 3.2302 48.5736C2.70441 50.4478 2.59624 52.8251 2.90567 55.6352C3.17737 58.1107 4.02768 62.0805 5.31573 65.3685C6.44529 68.2566 8.32957 71.6754 10.9132 71.5597C12.244 71.5019 13.8466 70.6339 15.6755 68.9786C15.7082 68.9484 15.761 68.9509 15.7912 68.9836C15.8214 69.0163 15.8189 69.0692 15.7862 69.0993C13.9271 70.7798 12.2893 71.6603 10.9208 71.7207C10.8755 71.7207 10.8327 71.7232 10.7874 71.7232V71.7283Z" fill="#340160"/>
<path d="M29.5321 56.5132C29.2026 56.5132 28.8026 56.4402 28.3699 56.3597C28.1133 56.3119 27.8466 56.2641 27.5799 56.2289C27.5346 56.2239 27.5045 56.1811 27.5095 56.1358C27.5145 56.0905 27.5573 56.0603 27.6026 56.0654C27.8718 56.1006 28.1409 56.1509 28.4001 56.1987C29.0894 56.3245 29.7409 56.4452 30.0353 56.2314C30.1334 56.161 30.1887 56.0528 30.2089 55.9018C30.2944 55.2452 28.7573 54.3698 26.7095 53.9119C26.6642 53.9018 26.6365 53.8591 26.6466 53.8138C26.6567 53.7685 26.6994 53.7408 26.7447 53.7509C28.946 54.244 30.4705 55.1572 30.3699 55.9245C30.3447 56.1182 30.2642 56.2666 30.1284 56.3647C29.9799 56.4729 29.7736 56.5157 29.5296 56.5157L29.5321 56.5132Z" fill="#340160"/>
<path d="M26.8502 58.0251C26.8326 58.0251 26.815 58.0201 26.8024 58.01C26.4527 57.7534 26.0225 57.595 25.5898 57.5673C25.5445 57.5648 25.5093 57.5245 25.5118 57.4792C25.5144 57.4339 25.5546 57.4012 25.5999 57.4012C26.0628 57.4314 26.5257 57.6 26.898 57.8767C26.9357 57.9044 26.9433 57.9547 26.9156 57.9924C26.9005 58.0151 26.8754 58.0251 26.8502 58.0251Z" fill="#340160"/>
<path d="M25.5901 59.4012C25.57 59.4012 25.5473 59.3936 25.5322 59.376C25.2756 59.1169 24.9083 58.9635 24.541 58.971C24.4957 58.971 24.458 58.9358 24.458 58.8905C24.458 58.8452 24.4932 58.8075 24.5385 58.8075C24.9461 58.8025 25.3637 58.971 25.6505 59.2628C25.6832 59.2955 25.6832 59.3484 25.6505 59.3786C25.6354 59.3936 25.6127 59.4012 25.5926 59.4012H25.5901Z" fill="#340160"/>
<path d="M10.0606 63.5949C10.043 63.5949 10.0279 63.5899 10.0128 63.5798C9.97508 63.5547 9.96753 63.5019 9.99269 63.4641L11.565 61.2302C11.5902 61.1924 11.643 61.1849 11.6807 61.21C11.7185 61.2352 11.726 61.288 11.7009 61.3258L10.1285 63.5597C10.1134 63.5824 10.0883 63.5949 10.0606 63.5949Z" fill="#340160"/>
<path d="M12.4982 43.6981L12.9737 43.4239L17.2479 33.8188L21.502 39.5471L19.4391 43.7308L19.7284 43.9622C19.9523 44.1434 20.0806 44.4201 20.0705 44.7094L19.7787 53.6427L12.3674 44.4176C12.1837 44.1887 12.2466 43.8465 12.5007 43.7006L12.4982 43.6981Z" fill="white"/>
<path d="M19.7257 44.0453C19.7081 44.0453 19.6905 44.0402 19.6729 44.0276L19.3836 43.7962C19.3534 43.771 19.3433 43.7308 19.3609 43.6956L21.4012 39.5572L17.2603 33.9824L13.0439 43.4591C13.0263 43.5019 12.976 43.5195 12.9358 43.5019C12.893 43.4843 12.8754 43.4339 12.893 43.3937L17.1672 33.7887C17.1798 33.761 17.205 33.7434 17.2326 33.7409C17.2628 33.7383 17.2905 33.7509 17.3081 33.7736L21.5622 39.5019C21.5798 39.527 21.5848 39.5597 21.5697 39.5874L19.537 43.7132L19.7735 43.9044C19.8087 43.9321 19.8138 43.9849 19.7861 44.0201C19.771 44.0402 19.7458 44.0503 19.7207 44.0503L19.7257 44.0453Z" fill="#340160"/>
<path d="M18.805 45.0817C18.805 45.0817 18.7799 45.0792 18.7673 45.0742C18.727 45.054 18.7094 45.0037 18.7296 44.9635L19.5119 43.3886C19.5321 43.3484 19.5824 43.3308 19.6226 43.3509C19.6629 43.371 19.6805 43.4213 19.6604 43.4616L18.878 45.0364C18.8629 45.0666 18.8352 45.0817 18.805 45.0817Z" fill="#340160"/>
<path d="M26.6464 34.4755C26.6464 34.4755 24.6992 42.9786 21.1898 42.3572C16.8728 41.5924 17.1873 36.1887 17.1873 36.1887C17.1873 36.1887 15.6225 35.7233 15.7408 33.9421C15.859 32.1635 18.6514 31.7585 18.8024 34.1383C18.8024 34.1383 20.5684 33.3635 20.8753 31.1824C20.8753 31.1824 21.6904 34.1308 26.6464 34.4755Z" fill="white"/>
<path d="M20.9356 31.7258C21.0967 32.0201 21.3633 32.4151 21.791 32.8201C22.5432 33.5321 23.9545 34.4126 26.4426 34.6239C26.1432 35.8088 24.3973 42.2239 21.5595 42.2239C21.4489 42.2239 21.3356 42.2138 21.2224 42.1937C19.4992 41.8893 18.3243 40.795 17.7331 38.9434C17.2853 37.5421 17.3558 36.2088 17.3558 36.1962C17.3608 36.1207 17.3105 36.0503 17.2375 36.0277C17.1797 36.01 15.7985 35.5723 15.9067 33.9497C15.9646 33.0994 16.674 32.6415 17.3155 32.6415C17.9092 32.6415 18.5684 33.0365 18.6413 34.1459C18.6438 34.1987 18.674 34.249 18.7193 34.2767C18.7445 34.2918 18.7746 34.3019 18.8048 34.3019C18.8275 34.3019 18.8501 34.2968 18.8702 34.2868C18.9407 34.2566 20.4451 33.5748 20.9356 31.7233V31.7258ZM20.8778 31.1824C20.5709 33.3635 18.8048 34.1383 18.8048 34.1383C18.7319 32.9786 18.03 32.4805 17.3155 32.4805C16.5658 32.4805 15.8036 33.0314 15.7432 33.9421C15.625 35.7207 17.1897 36.1887 17.1897 36.1887C17.1897 36.1887 16.8753 41.5924 21.1923 42.3572C21.3155 42.3799 21.4388 42.3899 21.557 42.3899C24.835 42.3899 26.6463 34.4755 26.6463 34.4755C21.6904 34.1308 20.8753 31.1824 20.8753 31.1824H20.8778Z" fill="#340160"/>
<path d="M17.5648 35.522C17.5195 35.522 17.4817 35.4842 17.4843 35.439C17.4943 34.805 17.2126 34.1786 16.7321 33.7635C16.6968 33.7333 16.6943 33.683 16.7245 33.6478C16.7547 33.6126 16.8075 33.61 16.8402 33.6402C17.3585 34.0855 17.6604 34.7597 17.6503 35.4415C17.6503 35.4868 17.6126 35.522 17.5673 35.522H17.5648Z" fill="#340160"/>
<path d="M14.3832 15.9591C14.4656 15.4517 14.121 14.9736 13.6136 14.8912C13.1061 14.8088 12.628 15.1534 12.5456 15.6609C12.4633 16.1683 12.8078 16.6464 13.3153 16.7288C13.8227 16.8112 14.3008 16.4666 14.3832 15.9591Z" fill="white"/>
<path d="M13.464 16.8226C12.9055 16.8226 12.4502 16.3672 12.4502 15.8088C12.4502 15.2503 12.9055 14.7949 13.464 14.7949C14.0225 14.7949 14.4779 15.2503 14.4779 15.8088C14.4779 16.3672 14.0225 16.8226 13.464 16.8226ZM13.464 14.9584C12.9961 14.9584 12.6137 15.3383 12.6137 15.8088C12.6137 16.2792 12.9936 16.6591 13.464 16.6591C13.9345 16.6591 14.3143 16.2792 14.3143 15.8088C14.3143 15.3383 13.9345 14.9584 13.464 14.9584Z" fill="#340160"/>
<path d="M17.8338 15.8087C17.8338 16.3245 17.4162 16.7396 16.903 16.7396C16.3898 16.7396 15.9722 16.322 15.9722 15.8087C15.9722 15.2955 16.3898 14.8779 16.903 14.8779C17.4162 14.8779 17.8338 15.2955 17.8338 15.8087Z" fill="white"/>
<path d="M16.9006 16.8226C16.3421 16.8226 15.8867 16.3672 15.8867 15.8088C15.8867 15.2503 16.3421 14.7949 16.9006 14.7949C17.459 14.7949 17.9144 15.2503 17.9144 15.8088C17.9144 16.3672 17.459 16.8226 16.9006 16.8226ZM16.9006 14.9584C16.4326 14.9584 16.0502 15.3383 16.0502 15.8088C16.0502 16.2792 16.4301 16.6591 16.9006 16.6591C17.371 16.6591 17.7509 16.2792 17.7509 15.8088C17.7509 15.3383 17.371 14.9584 16.9006 14.9584Z" fill="#340160"/>
<path d="M20.634 16.9082C21.2412 16.9082 21.7334 16.4159 21.7334 15.8088C21.7334 15.2016 21.2412 14.7094 20.634 14.7094C20.0269 14.7094 19.5347 15.2016 19.5347 15.8088C19.5347 16.4159 20.0269 16.9082 20.634 16.9082Z" fill="#F500A3"/>
<path d="M3.04151 34.0729C2.99623 34.0729 2.9585 34.0352 2.9585 33.9899V15.8088C2.9585 15.7635 2.99623 15.7258 3.04151 15.7258H10.873C10.9182 15.7258 10.956 15.7635 10.956 15.8088C10.956 15.8541 10.9182 15.8918 10.873 15.8918H3.12453V33.9924C3.12453 34.0377 3.0868 34.0755 3.04151 34.0755V34.0729Z" fill="#340160"/>
<path d="M31.2805 15.8918H23.2251C23.1798 15.8918 23.1421 15.8541 23.1421 15.8088C23.1421 15.7635 23.1798 15.7258 23.2251 15.7258H31.2805C31.3257 15.7258 31.3635 15.7635 31.3635 15.8088C31.3635 15.8541 31.3257 15.8918 31.2805 15.8918Z" fill="#340160"/>
<path d="M57.8088 62.3321L62.171 61.4188C62.9987 61.2453 63.5195 60.4 63.3358 59.5321L62.805 57.0264C62.6214 56.156 61.8012 55.5924 60.9736 55.766L56.6113 56.6792C55.7836 56.8528 55.2629 57.6981 55.4465 58.566L55.9773 61.0717C56.161 61.9421 56.9811 62.5056 57.8088 62.3321Z" fill="#6E00BE"/>
<path d="M58.1658 59.2553C58.1004 58.9509 57.8035 58.7572 57.4991 58.8226C57.1947 58.888 57.001 59.1874 57.0664 59.4893C57.1318 59.7937 57.4287 59.9874 57.7331 59.922C58.0375 59.8566 58.2312 59.5572 58.1658 59.2553Z" fill="white"/>
<path d="M61.655 59.9949C61.5896 59.6905 61.2928 59.4968 60.9884 59.5622C60.684 59.6276 60.4903 59.927 60.5557 60.2289C60.6211 60.5333 60.9179 60.727 61.2223 60.6616C61.5267 60.5962 61.7204 60.2968 61.655 59.9949Z" fill="white"/>
<path d="M60.5557 60.0629C60.5557 60.0629 60.5457 60.0629 60.5406 60.0629L58.1759 59.5597C58.1381 59.5522 58.1155 59.5169 58.123 59.4792C58.1306 59.4415 58.1658 59.4188 58.2035 59.4264L60.5683 59.9295C60.606 59.9371 60.6287 59.9723 60.6211 60.01C60.6136 60.0427 60.5859 60.0629 60.5557 60.0629Z" fill="white"/>
<path d="M61.0839 57.2125C61.1443 57.5169 60.9455 57.8138 60.6411 57.8742C60.3367 57.9346 60.0399 57.7358 59.982 57.4314C59.9216 57.127 60.1204 56.8302 60.4248 56.7698C60.7292 56.7094 61.026 56.9081 61.0839 57.2125Z" fill="white"/>
<path d="M58.0978 59.1069C58.0777 59.1069 58.055 59.0968 58.0425 59.0792C58.0198 59.049 58.0274 59.0062 58.0576 58.9836L60.0324 57.5899C60.0626 57.5672 60.1054 57.5748 60.128 57.605C60.1506 57.6352 60.1431 57.6779 60.1129 57.7006L58.1381 59.0943C58.1381 59.0943 58.1129 59.1069 58.0978 59.1069Z" fill="white"/>
<path d="M76.1461 40.4353C76.4723 38.4262 75.1079 36.533 73.0987 36.2069C71.0896 35.8808 69.1964 37.2451 68.8703 39.2543C68.5442 41.2635 69.9085 43.1566 71.9177 43.4827C73.9269 43.8089 75.82 42.4445 76.1461 40.4353Z" fill="white"/>
<path d="M72.5056 43.5874C70.4402 43.5874 68.7622 41.9069 68.7622 39.844C68.7622 37.7811 70.4427 36.1006 72.5056 36.1006C74.5685 36.1006 76.249 37.7811 76.249 39.844C76.249 41.9069 74.5685 43.5874 72.5056 43.5874ZM72.5056 36.2188C70.5056 36.2188 68.8804 37.844 68.8804 39.844C68.8804 41.844 70.5056 43.4691 72.5056 43.4691C74.5056 43.4691 76.1308 41.844 76.1308 39.844C76.1308 37.844 74.5056 36.2188 72.5056 36.2188Z" fill="#340160"/>
<path d="M70.697 42.1811C70.697 42.1811 70.6819 42.1811 70.6744 42.1761C70.6442 42.1635 70.6291 42.1283 70.6417 42.0981L72.4605 37.5421C72.4731 37.5119 72.5083 37.4968 72.5385 37.5094C72.5687 37.522 72.5838 37.5572 72.5712 37.5874L70.7523 42.1434C70.7423 42.166 70.7196 42.1811 70.697 42.1811Z" fill="#340160"/>
<path d="M72.5158 42.1811C72.5158 42.1811 72.5008 42.1811 72.4932 42.1761C72.463 42.1635 72.4479 42.1283 72.4605 42.0981L74.2794 37.5421C74.292 37.5119 74.3272 37.4968 74.3574 37.5094C74.3875 37.522 74.4026 37.5572 74.3901 37.5874L72.5712 42.1434C72.5611 42.166 72.5385 42.1811 72.5158 42.1811Z" fill="#340160"/>
<path d="M74.6866 39.2704H70.8602C70.8275 39.2704 70.7998 39.2427 70.7998 39.21C70.7998 39.1773 70.8275 39.1497 70.8602 39.1497H74.6866C74.7193 39.1497 74.747 39.1773 74.747 39.21C74.747 39.2427 74.7193 39.2704 74.6866 39.2704Z" fill="#340160"/>
<path d="M74.1685 40.5333H70.3421C70.3094 40.5333 70.2817 40.5056 70.2817 40.4729C70.2817 40.4402 70.3094 40.4125 70.3421 40.4125H74.1685C74.2012 40.4125 74.2289 40.4402 74.2289 40.4729C74.2289 40.5056 74.2012 40.5333 74.1685 40.5333Z" fill="#340160"/>
<path d="M65.2102 19.9522L51.9498 19.9421C51.6202 19.9421 51.346 19.5572 51.3335 19.0842C51.3209 18.6113 51.5775 18.2264 51.907 18.2264L65.1674 18.2364C65.497 18.2364 65.7712 18.6213 65.7838 19.0943C65.7963 19.5673 65.5397 19.9522 65.2102 19.9522Z" fill="#F5E9FF"/>
<path d="M65.1775 17.0515L51.9171 17.0415C51.5875 17.0415 51.3133 16.6566 51.3007 16.1836C51.2882 15.7107 51.5448 15.3257 51.8743 15.3257L65.1347 15.3358C65.4643 15.3358 65.7385 15.7207 65.751 16.1937C65.7636 16.6666 65.507 17.0515 65.1775 17.0515Z" fill="#F5E9FF"/>
<path d="M58.1711 22.8553L52.0025 22.8452C51.673 22.8452 51.3988 22.4603 51.3862 21.9874C51.3736 21.5144 51.6302 21.1295 51.9598 21.1295L58.1283 21.1396C58.4579 21.1396 58.7321 21.5245 58.7447 21.9974C58.7573 22.4704 58.5007 22.8553 58.1711 22.8553Z" fill="#F5E9FF"/>
<path d="M48.6517 23.9899H39.7636C39.4492 23.9899 39.2026 23.8012 39.2026 23.5622V14.6591C39.2026 14.6591 39.2026 14.6415 39.2052 14.6314C39.2529 14.4251 39.4869 14.2742 39.7636 14.2742H48.6517C48.9888 14.2742 49.2026 14.4578 49.2127 14.7547V23.5597C49.2127 23.6805 49.1473 23.7962 49.0341 23.8767C48.9309 23.9496 48.7951 23.9899 48.6542 23.9899H48.6517ZM39.4391 14.6742V23.5597C39.4391 23.6503 39.5724 23.7509 39.7636 23.7509H48.6517C48.7448 23.7509 48.8328 23.7257 48.8957 23.6805C48.9259 23.6603 48.9762 23.6151 48.9762 23.5572V14.7547C48.9712 14.5912 48.863 14.5081 48.6517 14.5081H39.7636C39.5926 14.5081 39.4668 14.5886 39.4391 14.6717V14.6742Z" fill="#6E00BE"/>
<path d="M44.1485 19.9396C45.3545 19.9396 46.3321 18.9619 46.3321 17.7559C46.3321 16.5499 45.3545 15.5723 44.1485 15.5723C42.9425 15.5723 41.9648 16.5499 41.9648 17.7559C41.9648 18.9619 42.9425 19.9396 44.1485 19.9396Z" fill="#6E00BE"/>
<path d="M39.5396 23.771C41.776 19.9748 46.8402 19.8893 48.649 23.8691L39.5396 23.771Z" fill="#6E00BE"/>
</g>
<defs>
<clipPath id="clip0_5479_1133">
<rect width="80" height="80" fill="white"/>
</clipPath>
</defs>
</svg>
