<svg width="122" height="122" viewBox="0 0 122 122" fill="none" xmlns="http://www.w3.org/2000/svg">
<g clip-path="url(#clip0_2855_23419)">
<path d="M30.3304 90.7917H15.2295V105.754H30.3304V90.7917Z" fill="#F3E6FF"/>
<path d="M50.4979 78.5172H35.397V105.754H50.4979V78.5172Z" fill="#F3E6FF"/>
<path d="M70.6614 68.4861H55.5605V105.754H70.6614V68.4861Z" fill="#F3E6FF"/>
<path d="M89.7007 105.771L92.0221 97.6746L113.104 105.754L89.7007 105.771Z" fill="white"/>
<path d="M89.7006 105.869C89.7006 105.869 89.6837 105.869 89.6735 105.865C89.6227 105.852 89.5922 105.794 89.6058 105.743L91.7204 98.4879C91.734 98.437 91.7882 98.4065 91.8424 98.4201C91.8933 98.4336 91.9238 98.4913 91.9102 98.5421L89.7955 105.798C89.782 105.842 89.7447 105.869 89.7006 105.869Z" fill="black"/>
<path d="M92.5267 87.1657C92.5267 87.1657 75.2366 97.0544 81.2417 77.487C82.9429 79.0188 87.9991 78.8968 88.5922 78.7917L88.3278 79.5237C89.9274 78.2529 94.2889 73.583 100.142 73.6169C102.277 73.627 106.414 73.7118 107.421 73.7762C111.928 74.0744 114.761 74.681 117.14 77.5853C121.969 83.1736 125.443 97.1697 116.622 99.4944L116.737 101.901C116.862 104.564 114.229 106.492 111.728 105.564L90.9 97.8474C89.8867 97.4713 89.3547 96.3597 89.7003 95.3363L92.5233 87.1623L92.5267 87.1657Z" fill="#6E00BE"/>
<path d="M93.0213 85.566C93.0213 85.566 93.001 85.566 92.9908 85.5627C92.94 85.5457 92.9129 85.4915 92.9298 85.4373L93.489 83.7598C93.506 83.7089 93.5602 83.6818 93.6144 83.6988C93.6652 83.7157 93.6923 83.7699 93.6754 83.8242L93.1162 85.5017C93.1027 85.5423 93.0654 85.5694 93.0247 85.5694L93.0213 85.566Z" fill="black"/>
<path d="M87.1178 82.5432C87.1178 82.5432 87.0941 82.5432 87.0805 82.5364C87.0297 82.5161 87.006 82.4585 87.0263 82.4076L88.043 79.9134C88.0633 79.8626 88.1209 79.8389 88.1717 79.8592C88.2226 79.8795 88.2463 79.9371 88.226 79.988L87.2093 82.4822C87.1924 82.5195 87.1585 82.5432 87.1178 82.5432Z" fill="black"/>
<path d="M92.6554 78.4291H103.154C103.303 78.4291 103.436 78.5274 103.48 78.6731L107.468 92.11C107.533 92.3269 107.37 92.5438 107.143 92.5438H96.6442C96.4951 92.5438 96.3629 92.4455 96.3188 92.2998L92.3301 78.8629C92.2657 78.646 92.4284 78.4291 92.6554 78.4291Z" fill="#F500A3"/>
<path d="M98.0438 88.8941C96.8407 87.9791 97.8879 86.5456 99.0266 87.3115C97.5931 86.5049 97.8574 84.475 99.6773 85.3256C99.1994 84.6037 100.057 83.909 100.785 84.0412C101.236 84.092 101.646 84.3191 102.043 84.5427C104.693 86.0338 109.925 89.0635 109.925 89.0635C110.064 89.8158 107.306 95.8853 106.262 96.8986C105.587 96.6953 100.528 92.6422 98.6098 90.9986C97.976 90.5512 97.2644 89.5108 98.0438 88.8941Z" fill="white"/>
<path d="M102.788 87.4402C102.771 87.4402 102.754 87.4368 102.738 87.4266C101.768 86.8302 100.796 86.2066 99.8502 85.5729C99.8061 85.5424 99.7926 85.4814 99.8231 85.4374C99.8536 85.3933 99.9146 85.3797 99.9586 85.4102C100.904 86.044 101.873 86.6675 102.839 87.2606C102.887 87.2877 102.9 87.3487 102.87 87.3961C102.853 87.4266 102.819 87.4436 102.785 87.4436L102.788 87.4402Z" fill="black"/>
<path d="M101.561 89.2567C101.541 89.2567 101.521 89.2499 101.504 89.2397L99.0027 87.4538C98.9586 87.4233 98.9485 87.3623 98.979 87.3182C99.0095 87.2742 99.0705 87.264 99.1145 87.2945L101.616 89.0805C101.66 89.111 101.67 89.172 101.639 89.216C101.619 89.2431 101.588 89.2567 101.558 89.2567H101.561Z" fill="black"/>
<path d="M100.389 90.7444C100.368 90.7444 100.351 90.7376 100.335 90.7275C99.572 90.2123 98.8231 89.6532 98.1114 89.0669C98.0708 89.033 98.064 88.972 98.0979 88.928C98.1318 88.8873 98.1928 88.8805 98.2368 88.9144C98.9451 89.4939 99.6873 90.0497 100.446 90.5648C100.49 90.5953 100.504 90.6563 100.473 90.7003C100.453 90.7275 100.423 90.7444 100.392 90.7444H100.389Z" fill="black"/>
<path d="M114.27 99.9113C111.416 99.9113 108.587 98.9997 106.272 97.2985C106.228 97.268 106.218 97.2036 106.252 97.1629C106.282 97.1189 106.347 97.1087 106.387 97.1426C109.237 99.2403 112.88 100.118 116.374 99.5487C116.428 99.5386 116.479 99.5758 116.486 99.6301C116.496 99.6843 116.459 99.7351 116.405 99.7419C115.696 99.8571 114.981 99.9147 114.27 99.9147V99.9113Z" fill="black"/>
<path d="M115.836 92.5947C115.836 92.5947 115.802 92.5913 115.788 92.5811L110.173 89.3346C110.125 89.3075 110.108 89.2465 110.135 89.199C110.163 89.1516 110.224 89.1346 110.271 89.1617L115.886 92.4083C115.934 92.4354 115.951 92.4964 115.924 92.5439C115.907 92.5744 115.873 92.5913 115.839 92.5913L115.836 92.5947Z" fill="black"/>
<path d="M114.036 91.1544C113.992 91.1544 113.948 91.1239 113.941 91.0764L112.43 83.7022C112.419 83.648 112.453 83.5972 112.507 83.587C112.562 83.5768 112.613 83.6107 112.623 83.665L114.134 91.0392C114.144 91.0934 114.11 91.1442 114.056 91.1544C114.049 91.1544 114.043 91.1544 114.036 91.1544Z" fill="black"/>
<path d="M86.4677 77.1447L91.568 68.0116L88.1723 66.9746L83.4414 76.5618L86.4677 77.1447Z" fill="black"/>
<path d="M88.5922 78.7951C88.5922 78.7951 83.9121 79.4424 81.2417 77.4904L81.7873 76.3009C81.7873 76.3009 81.0824 75.6028 81.7975 75.3486C81.7975 75.3486 81.1333 74.0235 82.2889 73.9456C82.2889 73.9456 81.5196 72.2173 83.2954 72.546C83.2954 72.546 82.2279 70.5974 84.2171 71.0684C85.7896 71.4412 86.1183 71.9529 86.1183 71.9529C86.1183 71.9529 85.2406 69.7807 86.342 70.0043C86.6876 70.0755 87.2163 70.3025 87.7755 70.6516C89.5682 71.7665 90.3273 73.993 89.6122 75.9789L88.599 78.7951H88.5922Z" fill="white"/>
<path d="M86.8129 78.9917C85.1897 78.9917 82.8107 78.7578 81.184 77.5683C81.1467 77.5412 81.1332 77.4904 81.1535 77.4497L81.672 76.3212C81.5635 76.1992 81.3263 75.8976 81.3907 75.6163C81.4212 75.4808 81.5127 75.3723 81.6686 75.2978C81.5805 75.0843 81.4009 74.5624 81.6076 74.1998C81.7127 74.0168 81.8957 73.9049 82.1532 73.8609C82.0651 73.6101 81.9058 73.034 82.1837 72.6816C82.3633 72.4545 82.6785 72.3664 83.1258 72.4206C82.9903 72.119 82.77 71.4988 83.0411 71.1464C83.2377 70.8888 83.6409 70.8312 84.2408 70.9736C85.1185 71.1837 85.62 71.4345 85.8979 71.6242C85.7454 71.1566 85.5557 70.3771 85.8302 70.0484C85.9454 69.9094 86.125 69.862 86.3622 69.9094C86.7384 69.9874 87.2874 70.2314 87.8262 70.5669C89.6427 71.6988 90.4323 73.9863 89.7037 76.0128L88.6904 78.829C88.6768 78.8629 88.6463 78.8866 88.6124 78.8934C88.5955 78.8934 87.8635 78.9917 86.8197 78.9917H86.8129ZM81.3636 77.4565C83.8239 79.1916 87.9787 78.768 88.5209 78.7036L89.5139 75.9417C90.212 74.0032 89.4563 71.8106 87.7178 70.7296C87.1993 70.4042 86.674 70.1704 86.3182 70.0958C86.1555 70.0619 86.0437 70.0857 85.9759 70.167C85.7149 70.4822 86.0538 71.5327 86.2063 71.9089C86.2267 71.9563 86.2063 72.0106 86.1589 72.0343C86.1148 72.058 86.0572 72.0411 86.0301 72.0004C86.0301 71.997 85.6878 71.5124 84.1899 71.1566C83.6816 71.0346 83.3359 71.0718 83.1936 71.2582C82.9598 71.5666 83.2478 72.2512 83.3766 72.4918C83.3935 72.5257 83.3935 72.5663 83.3698 72.5968C83.3461 72.6273 83.3088 72.6443 83.2715 72.6341C82.8005 72.546 82.4853 72.6002 82.3328 72.7968C82.0515 73.156 82.3701 73.8914 82.3735 73.8982C82.387 73.9287 82.3837 73.9626 82.3667 73.9897C82.3498 74.0168 82.3227 74.0337 82.2888 74.0371C82.0312 74.0541 81.855 74.1388 81.7703 74.2913C81.5974 74.5929 81.7906 75.1216 81.8787 75.2978C81.8923 75.3215 81.8923 75.352 81.8787 75.3791C81.8685 75.4062 81.8482 75.4266 81.8211 75.4333C81.6754 75.4842 81.5907 75.5587 81.5703 75.6502C81.5263 75.8536 81.7533 76.1314 81.8448 76.2229C81.8753 76.2534 81.8821 76.2975 81.8652 76.3348L81.3534 77.4497L81.3636 77.4565Z" fill="black"/>
<path d="M87.5281 75.1995L85.5794 78.9781C85.2473 79.622 84.4747 79.9067 83.8037 79.6254C83.0818 79.3238 82.7463 78.4867 83.0649 77.7717L83.1937 77.4836C83.1937 77.4836 84.6339 77.7445 84.068 76.7787C84.068 76.7787 85.6981 76.9719 84.8915 75.6977C84.8915 75.6977 85.2914 75.8298 85.6472 75.6705C86.1657 75.4333 86.5859 74.7759 85.5117 73.8507C86.3419 74.2099 87.1214 74.0676 87.1214 74.0676C87.1214 74.0676 87.3315 74.7962 87.5314 75.1995H87.5281Z" fill="black"/>
<path d="M86.1657 74.3116C86.1657 74.3116 86.1352 74.3082 86.1183 74.298C85.2677 73.8337 84.417 73.3491 83.5868 72.8476C83.5393 72.8205 83.5258 72.7595 83.5529 72.712C83.58 72.6646 83.641 72.651 83.6884 72.6781C84.5153 73.1763 85.3625 73.6609 86.2132 74.1218C86.2606 74.1489 86.2775 74.2065 86.2538 74.254C86.2369 74.2878 86.203 74.3048 86.1691 74.3048L86.1657 74.3116Z" fill="black"/>
<path d="M85.661 76.2772C85.661 76.2772 85.6305 76.2738 85.6169 76.267C84.4884 75.6705 83.3836 75.0063 82.3297 74.2879C82.2856 74.2574 82.2721 74.1964 82.3026 74.1523C82.3331 74.1083 82.3941 74.0947 82.4381 74.1252C83.4853 74.8403 84.5867 75.5011 85.7084 76.0942C85.7559 76.1179 85.7762 76.1789 85.7491 76.2263C85.7321 76.2602 85.6982 76.2772 85.661 76.2772Z" fill="black"/>
<path d="M84.6646 77.1921C84.6646 77.1921 84.6307 77.1887 84.6172 77.1785L82.1772 75.8331C82.1297 75.806 82.1128 75.7484 82.1399 75.701C82.167 75.6535 82.2246 75.6366 82.2721 75.6637L84.7121 77.0091C84.7595 77.0362 84.7764 77.0938 84.7493 77.1412C84.7324 77.1751 84.6985 77.1921 84.6646 77.1921Z" fill="black"/>
<path d="M86.9723 74.2743C86.9214 74.2743 86.8774 74.2336 86.874 74.1828C86.874 74.1286 86.9113 74.0811 86.9655 74.0811C87.1824 74.071 87.345 73.8371 87.3586 73.627C87.3722 73.4237 87.2942 73.2034 87.1214 72.9459C86.813 72.4884 86.3623 72.1257 85.8505 71.919C85.7997 71.8987 85.776 71.8411 85.7963 71.7902C85.8167 71.7394 85.8743 71.7157 85.9251 71.736C86.4707 71.9563 86.9553 72.346 87.2874 72.834C87.4874 73.1289 87.5755 73.3898 87.5551 73.6372C87.5348 73.9286 87.3078 74.2574 86.9757 74.2743C86.9757 74.2743 86.9723 74.2743 86.9689 74.2743H86.9723Z" fill="black"/>
<path d="M90.2236 69.5954L87.1831 68.7402L88.8257 62.9007L91.8661 63.7559C92.972 64.0669 93.6201 65.2173 93.3081 66.3265L92.7933 68.1567C92.4823 69.2626 91.3319 69.9106 90.2227 69.5986L90.2236 69.5954Z" fill="white"/>
<path d="M90.7918 69.7705C90.5918 69.7705 90.3953 69.7434 90.1987 69.6892L87.1589 68.8352C87.1081 68.8216 87.0776 68.7674 87.0911 68.7132L88.7347 62.8741C88.7415 62.8504 88.7585 62.8267 88.7822 62.8165C88.8059 62.803 88.833 62.7996 88.8567 62.8064L91.8966 63.6604C92.4591 63.8196 92.9234 64.1856 93.2081 64.694C93.4927 65.2023 93.5639 65.792 93.4046 66.3511L92.8895 68.1811C92.7302 68.7437 92.3642 69.208 91.8559 69.4926C91.5238 69.679 91.1612 69.7739 90.7918 69.7739V69.7705ZM87.308 68.6691L90.2529 69.496C90.7647 69.6384 91.3001 69.5774 91.761 69.3164C92.2219 69.0555 92.5574 68.6319 92.6997 68.1235L93.2148 66.2935C93.3572 65.7818 93.2962 65.2464 93.0352 64.7855C92.7743 64.3246 92.3507 63.9891 91.8423 63.8468L88.8974 63.0199L87.308 68.6725V68.6691Z" fill="black"/>
<path d="M69.9361 52.7787C69.9361 52.7787 71.373 50.4979 73.3318 51.2842C74.7619 51.8569 83.2443 57.7298 87.721 60.8612C89.3782 62.0202 90.1204 64.0975 89.5714 66.0428C88.9139 68.3811 86.5993 69.8451 84.2068 69.4418L68.3569 66.768C68.3569 66.768 66.5947 66.3613 66.5235 63.7078C66.4524 61.0543 69.9361 52.782 69.9361 52.782V52.7787Z" fill="white"/>
<path d="M85.0067 69.6078C84.739 69.6078 84.4645 69.5841 84.19 69.54L68.3402 66.8662C68.3164 66.8594 66.4966 66.4087 66.4254 63.7112C66.3543 61.0678 69.7025 53.0836 69.8448 52.7447C69.8448 52.7413 69.8482 52.7346 69.8516 52.7312C69.8652 52.7074 71.3529 50.3928 73.3693 51.196C74.7926 51.7653 83.0073 57.4485 87.7788 60.7832C89.4665 61.9625 90.2256 64.0873 89.6664 66.0698C89.07 68.1947 87.1451 69.6078 85.0067 69.6078ZM70.0244 52.8261C69.899 53.1243 66.5542 61.139 66.6254 63.7044C66.6965 66.2528 68.3673 66.6697 68.3842 66.6731L84.2273 69.3469C84.4916 69.3909 84.7525 69.4113 85.0101 69.4113C87.0638 69.4113 88.9073 68.0557 89.4834 66.0156C90.0189 64.1144 89.2903 62.0743 87.6704 60.9424C82.9056 57.6112 74.7045 51.9382 73.3015 51.3756C71.4918 50.6504 70.1125 52.6939 70.0278 52.8261H70.0244Z" fill="black"/>
<path d="M74.8374 60.1032C76.0587 55.761 75.1705 51.7127 72.8535 51.061C70.5365 50.4093 67.6681 53.401 66.4468 57.7431C65.2254 62.0852 66.1137 66.1335 68.4307 66.7853C70.7477 67.437 73.6161 64.4453 74.8374 60.1032Z" fill="white"/>
<path d="M69.0791 66.9746C68.852 66.9746 68.6283 66.9441 68.4081 66.8831C66.0426 66.2189 65.1242 62.1082 66.3578 57.7195C67.5913 53.3309 70.5194 50.3047 72.8848 50.9689C75.2502 51.6331 76.1686 55.7438 74.9351 60.1324C73.8167 64.1144 71.3022 66.9746 69.0791 66.9746ZM66.5442 57.7738C65.3377 62.0573 66.1985 66.0596 68.4589 66.6967C68.6656 66.7543 68.8757 66.7814 69.0858 66.7814C71.2175 66.7814 73.6473 63.9754 74.7419 60.0816C75.9484 55.798 75.0876 51.7958 72.8272 51.1587C70.5668 50.5215 67.7472 53.4902 66.5408 57.7738H66.5442Z" fill="black"/>
<path d="M72.4817 62.9792C72.4817 62.9792 72.4613 62.9792 72.4478 62.9724C71.3057 62.5725 70.4178 61.4982 70.2416 60.2986C70.0654 59.0989 70.6042 57.8145 71.587 57.1028C72.2512 56.6216 73.1188 56.4013 73.966 56.4962C74.0202 56.503 74.0575 56.5504 74.0507 56.6047C74.0439 56.6589 73.9965 56.6962 73.9423 56.6894C73.1425 56.5979 72.3258 56.8046 71.7022 57.2587C70.7804 57.9297 70.2721 59.1362 70.4382 60.2647C70.6042 61.3932 71.4379 62.4031 72.5155 62.7826C72.5664 62.7996 72.5935 62.8572 72.5765 62.908C72.563 62.9487 72.5257 62.9724 72.485 62.9724L72.4817 62.9792Z" fill="black"/>
<path d="M105.594 68.0728L106.018 73.6949C107.804 75.5012 103.053 76.2535 101.663 75.064C101.195 74.759 101.131 74.1016 101.531 73.7119L101.758 69.3673L105.594 68.0728Z" fill="white"/>
<path d="M101.531 73.8101C101.531 73.8101 101.528 73.8101 101.524 73.8101C101.47 73.8101 101.429 73.7626 101.433 73.7084L101.66 69.3638C101.66 69.3232 101.687 69.2893 101.728 69.2757L105.564 67.9812C105.591 67.971 105.625 67.9744 105.649 67.9913C105.672 68.0083 105.689 68.0354 105.693 68.0659L106.116 73.6881C106.12 73.7423 106.079 73.7897 106.025 73.7931C105.971 73.7965 105.923 73.7558 105.92 73.7016L105.506 68.2048L101.853 69.4384L101.629 73.7152C101.629 73.766 101.582 73.8067 101.531 73.8067V73.8101Z" fill="black"/>
<path d="M109.518 66.9578C110.017 65.609 109.796 63.9959 109.037 62.7894C108.403 61.7829 108.044 62.0879 106.601 60.6104C105.059 59.0311 105.035 58.2415 104.211 58.1636C103.262 58.0721 102.103 59.0074 101.544 59.6106C99.677 61.7287 100.094 64.1314 100.761 65.6022C102.398 68.703 108.017 70.9533 109.515 66.9578H109.518Z" fill="black"/>
<path d="M106.126 67.2559C106.936 67.6084 106.804 68.7708 106.12 69.1978C105.34 69.8281 104.239 69.1198 104.029 70.4144C103.212 72.0885 100.874 71.4717 99.562 70.7668C98.4267 70.15 98.5386 68.8047 99.0232 67.7609C99.5756 66.3104 100.131 64.86 100.684 63.4095C101.639 64.2059 102.849 64.6872 104.09 64.7685C104.323 64.782 104.605 64.8125 104.706 65.026C104.93 65.7818 103.598 67.2797 104.561 67.7507C104.767 67.7846 104.855 67.605 105.005 67.4898C105.32 67.2525 105.743 67.0967 106.126 67.2559Z" fill="white"/>
<path d="M102.114 71.587C101.219 71.587 100.24 71.2447 99.5145 70.855C98.3148 70.2043 98.4267 68.8081 98.9316 67.7202L100.592 63.3757C100.602 63.3452 100.629 63.3248 100.66 63.3147C100.69 63.3079 100.724 63.3147 100.748 63.335C101.687 64.1178 102.876 64.5923 104.1 64.6736C104.313 64.6872 104.666 64.7109 104.798 64.9854C104.798 64.9888 104.801 64.9956 104.805 64.999C104.903 65.3345 104.74 65.7615 104.571 66.2156C104.296 66.9374 104.15 67.4288 104.594 67.6558C104.679 67.666 104.733 67.6152 104.825 67.5271C104.862 67.4898 104.903 67.4491 104.95 67.4118C105.357 67.1035 105.801 67.0153 106.17 67.1678C106.529 67.3237 106.753 67.6491 106.784 68.0557C106.818 68.5403 106.577 69.0317 106.18 69.2791C105.852 69.5435 105.469 69.5875 105.133 69.6248C104.618 69.6824 104.245 69.7231 104.13 70.4347C104.13 70.4449 104.127 70.4517 104.12 70.4618C103.879 70.96 103.493 71.2955 102.971 71.465C102.703 71.5497 102.415 71.5903 102.121 71.5903L102.114 71.587ZM100.724 63.5722L99.1112 67.7948C98.6402 68.8081 98.5283 70.0958 99.606 70.6787C100.497 71.1566 101.897 71.5971 102.903 71.2718C103.368 71.1227 103.713 70.8211 103.93 70.3839C104.073 69.5401 104.598 69.4825 105.103 69.4248C105.428 69.3876 105.767 69.3503 106.055 69.1198C106.055 69.1198 106.062 69.1165 106.065 69.1131C106.404 68.903 106.611 68.4827 106.58 68.0659C106.567 67.8693 106.482 67.5169 106.086 67.3441C105.659 67.1678 105.228 67.439 105.062 67.5643C105.025 67.5915 104.991 67.6253 104.957 67.6626C104.862 67.7575 104.74 67.8761 104.544 67.8456C104.533 67.8456 104.527 67.8422 104.516 67.8355C103.859 67.5169 104.137 66.7849 104.381 66.1444C104.533 65.7445 104.689 65.3311 104.615 65.06C104.533 64.9075 104.31 64.8803 104.083 64.8668C102.866 64.7888 101.68 64.328 100.724 63.5722Z" fill="black"/>
<path d="M104.591 68.8758C104.557 68.8758 104.526 68.8589 104.506 68.8284C104.479 68.781 104.493 68.7233 104.537 68.6928C104.855 68.4929 105.238 68.4116 105.611 68.4624C105.665 68.4692 105.702 68.52 105.696 68.5742C105.689 68.6284 105.641 68.6657 105.584 68.659C105.258 68.6149 104.916 68.6894 104.638 68.8623C104.621 68.8724 104.604 68.8758 104.587 68.8758H104.591Z" fill="black"/>
<path d="M44.2519 54.0426L54.1474 45.1332C54.1474 45.1332 54.0085 42.8762 48.8031 44.6316C43.6012 46.3871 29.3882 51.3586 29.3882 51.3586L30.3676 56.3639L44.2552 54.0459L44.2519 54.0426Z" fill="#F500A3"/>
<path d="M16.3513 86.1556C16.3513 86.1556 16.3411 86.1556 16.3344 86.1556C16.0497 86.1116 15.8701 86.0031 15.8057 85.8337C15.6701 85.4948 16.0361 85.0271 16.3276 84.6544C16.3615 84.6103 16.3954 84.5696 16.4225 84.5324C10.78 85.4169 7.31654 85.8337 4.87315 85.9252C2.00954 86.0302 0.545536 85.6846 0.121925 84.8035C-0.298297 83.9224 0.348981 82.5702 2.21965 80.4148C3.81243 78.5848 6.28293 76.1753 10.4614 72.3832L8.41115 72.6068C8.41115 72.6068 8.38404 72.6068 8.37048 72.6035C8.08581 72.5086 8.03159 72.3188 8.03837 72.1765C8.06887 71.2953 10.6139 69.384 12.7455 67.9336C15.1788 66.2764 17.6594 64.8361 18.1711 64.704C18.2118 64.6938 18.2559 64.7107 18.2796 64.748L28.8258 81.8585C28.8529 81.9026 28.8428 81.9568 28.8021 81.9873C25.2607 84.6137 20.8382 86.098 16.3513 86.1624V86.1556ZM16.6394 84.2985C16.6733 84.2985 16.7038 84.3155 16.7207 84.3426C16.741 84.3731 16.7444 84.4137 16.7207 84.4476C16.6665 84.5357 16.5818 84.6476 16.4801 84.773C16.2463 85.0712 15.8938 85.5253 15.9853 85.7625C16.0226 85.8608 16.148 85.9286 16.3547 85.9625C20.767 85.8981 25.1184 84.4476 28.6123 81.8789L18.1542 64.9107C16.8901 65.3648 8.28576 70.7565 8.23492 72.1798C8.23492 72.2544 8.25187 72.3459 8.41454 72.4069L10.7427 72.1561C10.7868 72.1527 10.824 72.1731 10.8444 72.2137C10.8613 72.251 10.8511 72.2985 10.8206 72.3256C3.55148 78.9068 -0.498241 83.0446 0.301536 84.7153C1.10131 86.3895 6.89293 85.8303 16.6258 84.2985C16.6292 84.2985 16.636 84.2985 16.6394 84.2985Z" fill="black"/>
<path d="M13.4269 73.2812C13.3964 73.2812 13.3625 73.2643 13.3456 73.2371C13.3151 73.1931 13.3286 73.1321 13.3727 73.1016L17.4732 70.3634C17.5173 70.3329 17.5783 70.3464 17.6088 70.3905C17.6393 70.4345 17.6257 70.4955 17.5817 70.526L13.4811 73.2643C13.4811 73.2643 13.4438 73.2812 13.4269 73.2812Z" fill="black"/>
<path d="M5.7712 82.882C5.7407 82.882 5.71359 82.8684 5.69325 82.8447C5.65936 82.8006 5.66953 82.7396 5.7102 82.7057C9.88531 79.5134 14.2875 76.521 18.7913 73.8167C18.8388 73.7896 18.8964 73.8031 18.9269 73.8506C18.954 73.898 18.9404 73.9556 18.893 73.9861C14.3959 76.6905 10.0005 79.6761 5.8322 82.865C5.81525 82.8786 5.79492 82.8853 5.7712 82.8853V82.882Z" fill="black"/>
<path d="M17.8087 79.6591C17.7748 79.6591 17.7409 79.6422 17.724 79.6117C17.6969 79.5642 17.7138 79.5032 17.7579 79.4761L21.3332 77.392C21.3806 77.3649 21.4416 77.3818 21.4687 77.4259C21.4958 77.4733 21.4789 77.5343 21.4348 77.5614L17.8595 79.6456C17.8595 79.6456 17.8257 79.6591 17.8087 79.6591Z" fill="black"/>
<path d="M28.7441 80.2249L29.7168 87.9618C29.7913 88.5616 30.4759 88.8632 30.9673 88.5142C34.3189 86.1148 44.2415 78.2729 43.7569 69.9363L28.7475 80.2216L28.7441 80.2249Z" fill="white"/>
<path d="M30.5065 88.7616C30.3845 88.7616 30.2659 88.7379 30.1507 88.687C29.8593 88.5582 29.6593 88.2939 29.622 87.9754L28.6494 80.2385C28.646 80.2012 28.6596 80.1674 28.6901 80.147L43.6995 69.8617C43.73 69.8414 43.7673 69.838 43.7978 69.855C43.8283 69.8719 43.852 69.9024 43.852 69.9363C44.0621 73.5353 42.3846 77.4325 38.8737 81.5195C36.0406 84.8135 32.7398 87.3687 31.025 88.5989C30.8692 88.7107 30.6895 88.765 30.5099 88.765L30.5065 88.7616ZM28.8494 80.2724L29.8152 87.9516C29.8457 88.199 30.0016 88.4091 30.2287 88.5074C30.4557 88.6057 30.7099 88.5786 30.9098 88.4362C32.6178 87.2129 35.905 84.6678 38.7246 81.3907C42.1474 77.4088 43.8079 73.62 43.6656 70.1227L28.8494 80.2758V80.2724Z" fill="black"/>
<path d="M19.4146 65.5579L12.8368 61.4269C12.3285 61.1049 12.342 60.356 12.8639 60.0544C16.4358 58.0007 27.67 52.2227 34.99 56.1606L19.4146 65.5579Z" fill="white"/>
<path d="M19.4148 65.6562C19.3979 65.6562 19.3775 65.6528 19.364 65.6426L12.7862 61.5116C12.5184 61.3421 12.3592 61.0507 12.3659 60.7321C12.3727 60.4136 12.5388 60.1289 12.8133 59.9696C14.6433 58.9191 18.3304 56.9738 22.4919 55.7674C27.6532 54.2695 31.8724 54.3746 35.0342 56.0758C35.0647 56.0927 35.085 56.1232 35.085 56.1605C35.085 56.1944 35.0681 56.2283 35.0376 56.2486L19.4623 65.646C19.4623 65.646 19.4284 65.6596 19.4114 65.6596L19.4148 65.6562ZM29.1104 54.9134C27.1381 54.9134 24.9489 55.2625 22.5495 55.9572C18.4083 57.1568 14.7348 59.0953 12.9149 60.1425C12.7014 60.2645 12.5693 60.4881 12.5625 60.7389C12.5591 60.9897 12.6811 61.2167 12.8912 61.3489L19.4182 65.4495L34.7936 56.1741C33.1737 55.3404 31.2725 54.9202 29.1104 54.9202V54.9134Z" fill="black"/>
<path d="M71.3222 42.4931L71.3155 42.4829C58.0005 38.5756 26.2941 58.6751 18.7945 63.6127C14.2296 67.0151 23.1627 79.4523 26.9278 81.4823C27.9004 82.2007 29.2119 82.2482 30.2387 81.6043C37.8366 76.8226 69.272 56.2927 71.3222 42.4931Z" fill="white"/>
<path d="M28.6733 82.1601C28.043 82.1601 27.416 81.9602 26.8806 81.5671C25.403 80.7673 23.1189 78.3612 21.1974 75.5721C18.9811 72.3594 17.6154 69.2247 17.4493 66.9745C17.3341 65.4156 17.7679 64.26 18.7405 63.5348C22.4784 61.0744 32.2994 54.8016 42.8355 49.6437C56.0759 43.1642 65.6664 40.7242 71.3462 42.3915C71.3699 42.3983 71.3902 42.4118 71.4004 42.4322L71.4072 42.4423C71.4207 42.4627 71.4241 42.4864 71.4207 42.5101C70.5464 48.3966 64.3244 56.1334 52.9242 65.5071C43.8521 72.9694 34.0752 79.3101 30.2932 81.6891C29.7916 82.0042 29.2325 82.1601 28.6733 82.1601ZM67.4252 42.0831C64.9378 42.0831 61.9759 42.5677 58.5769 43.5369C54.1069 44.8078 48.8406 46.9224 42.9202 49.8199C32.3943 54.9711 22.5801 61.2405 18.8523 63.694C17.9441 64.3718 17.534 65.4698 17.6459 66.9576C18.0254 72.1188 24.2169 79.9065 26.9822 81.3942C26.9856 81.3942 26.989 81.3976 26.9958 81.401C27.9413 82.0991 29.1986 82.1465 30.1949 81.5196C33.9735 79.1406 43.7437 72.8068 52.8056 65.3512C57.9025 61.1592 62.0166 57.2348 65.0395 53.6867C68.6486 49.4472 70.7294 45.7024 71.2208 42.5542C70.116 42.239 68.8486 42.0797 67.432 42.0797L67.4252 42.0831Z" fill="black"/>
<path d="M32.1095 74.5826C25.0945 78.917 18.5573 68.5436 25.3791 64.0025C32.3941 59.6681 38.9313 70.0415 32.1095 74.5826Z" fill="white"/>
<path d="M28.7035 75.7178C26.4736 75.7178 24.5826 74.3995 23.4948 72.7051C21.858 70.1499 21.7292 66.3103 25.3248 63.9177C28.9746 61.6641 32.3771 63.3518 33.9936 65.8731C35.6304 68.4283 35.7592 72.2679 32.1636 74.6605C30.9673 75.3993 29.7948 75.7144 28.7069 75.7144L28.7035 75.7178ZM28.7849 63.0637C27.7275 63.0637 26.5956 63.3687 25.4333 64.0838C21.9495 66.4018 22.0715 70.1228 23.6609 72.6C25.2265 75.0434 28.5239 76.6803 32.0585 74.4978C35.5423 72.1798 35.4203 68.4554 33.8309 65.9815C32.777 64.3413 30.9436 63.0637 28.7849 63.0637Z" fill="black"/>
<path d="M31.0689 72.9457C26.2194 75.9415 21.7054 68.774 26.4194 65.6358C31.2689 62.6401 35.7829 69.8076 31.0689 72.9457Z" fill="white"/>
<path d="M28.7172 73.7658C27.1651 73.7658 25.8502 72.8474 25.0945 71.6715C23.9558 69.8957 23.8677 67.2218 26.3687 65.5579C28.9104 63.9888 31.2758 65.1648 32.4009 66.9168C33.5396 68.6926 33.6277 71.3665 31.1267 73.0304C30.293 73.5455 29.4797 73.7624 28.7206 73.7624L28.7172 73.7658ZM28.7714 65.0191C28.0462 65.0191 27.2667 65.2292 26.4737 65.7206C24.0846 67.3099 24.1693 69.8652 25.2605 71.563C26.3348 73.2405 28.5952 74.3622 31.0216 72.8643C33.4108 71.2716 33.3261 68.7197 32.2382 67.0219C31.5164 65.8968 30.2591 65.0191 28.7748 65.0191H28.7714Z" fill="black"/>
<path d="M62.6505 55.0117C62.6302 55.0117 62.6098 55.0049 62.5895 54.9913C59.3599 52.5175 57.0012 48.8134 56.1201 44.8281C56.1099 44.7738 56.1404 44.723 56.1947 44.7095C56.2489 44.6993 56.2997 44.7298 56.3133 44.784C57.1842 48.7253 59.5158 52.3887 62.7081 54.8321C62.7522 54.866 62.7589 54.927 62.725 54.971C62.7047 54.9947 62.6776 55.0083 62.6471 55.0083L62.6505 55.0117Z" fill="black"/>
<path d="M40.8154 61.7354C39.5954 63.0673 38.6093 64.2297 38.3619 64.7482C37.6062 66.3511 37.945 74.7928 38.6703 76.8465C38.6703 76.8465 40.2834 75.2063 42.5438 72.8036C43.4588 68.8148 42.6149 64.3517 40.8154 61.7321V61.7354Z" fill="white"/>
<path d="M38.6702 76.9447C38.6702 76.9447 38.6566 76.9447 38.6499 76.9447C38.616 76.9379 38.5889 76.9142 38.5787 76.8803C37.8467 74.8131 37.5146 66.3239 38.2737 64.7074C38.494 64.2364 39.3276 63.2129 40.7408 61.6676C40.7611 61.6439 40.7916 61.6337 40.8187 61.6371C40.8492 61.6371 40.8764 61.6541 40.8933 61.6778C42.7945 64.4397 43.5095 69.0249 42.6386 72.8238C42.6352 72.8408 42.625 72.8577 42.6149 72.8679C40.3782 75.2435 38.7549 76.8939 38.738 76.9108C38.721 76.9312 38.6939 76.9413 38.6668 76.9413L38.6702 76.9447ZM40.8052 61.8947C39.453 63.3722 38.6634 64.3482 38.4533 64.7922C37.7213 66.3477 38.0263 74.3861 38.7142 76.6634C39.1175 76.25 40.5646 74.7623 42.4556 72.7561C43.296 69.0588 42.6182 64.6159 40.8052 61.8913V61.8947Z" fill="black"/>
<path d="M48.1694 48.2984C39.7447 50.4334 33.0076 52.7141 33.0076 52.7141L31.9163 50.474L28.4563 52.138C25.9214 66.5882 44.2451 56.147 46.8952 55.476C46.8952 55.476 43.3504 58.9734 40.8122 61.7421C40.7478 64.2024 40.9138 68.6554 42.5405 72.8136C49.1963 66.0019 69.0348 45.1332 48.1661 48.3052L48.1694 48.2984Z" fill="#F500A3"/>
<path d="M47.3562 55.3236C47.3257 55.3236 47.2986 55.31 47.2783 55.2863C47.2444 55.2456 47.2512 55.1813 47.2952 55.1474L48.8744 53.8901C48.9151 53.8562 48.9795 53.863 49.0134 53.907C49.0473 53.9477 49.0405 54.0121 48.9964 54.046L47.4172 55.3033C47.4003 55.3168 47.3765 55.3236 47.3562 55.3236Z" fill="black"/>
<path d="M38.2945 29.0766C37.166 26.2638 33.7399 27.9108 31.9776 29.1816C30.6289 29.978 29.175 30.5914 27.667 31.0015C23.9968 32.2926 17.0564 31.3404 15.328 35.4646C14.9146 37.2269 16.4464 38.8129 18.1069 39.1246C19.3947 43.4861 29.0903 41.7104 31.92 39.6974C34.9395 37.9114 36.8881 34.7564 37.366 31.3234C37.8235 30.6185 38.6266 30.0492 38.2979 29.0766H38.2945Z" fill="black"/>
<path d="M21.7566 47.1056C19.2725 51.9991 14.5958 60.1867 14.3044 61.6677C13.9282 63.5654 14.9347 63.9179 14.9347 63.9179C15.4668 64.5143 15.9209 64.0467 15.9209 64.0467C16.2937 64.4194 17.0019 63.9484 17.0019 63.9484C18.1406 64.4431 18.5744 62.5623 18.5744 62.5623C19.669 61.9388 19.4013 59.4988 19.4013 59.4988L24.2542 47.5699L21.7566 47.1056Z" fill="white"/>
<path d="M15.4973 64.3211C15.4973 64.3211 15.4872 64.3211 15.4838 64.3211C15.2703 64.3177 15.067 64.2093 14.8738 64.0025C14.7077 63.9314 13.8436 63.4637 14.2028 61.6507C14.396 60.6747 16.3988 56.9503 18.5202 53.0056C19.6386 50.9282 20.7908 48.7797 21.6651 47.0615C21.6855 47.0242 21.7261 47.0005 21.7702 47.0107L24.2678 47.4749C24.2983 47.4817 24.322 47.4987 24.3356 47.5258C24.3491 47.5529 24.3525 47.5834 24.339 47.6105L19.4928 59.519C19.52 59.7935 19.6996 61.9828 18.6524 62.6334C18.5982 62.8402 18.3338 63.7484 17.7476 64.0432C17.5171 64.1584 17.2663 64.1686 17.002 64.0669C16.8393 64.1652 16.2836 64.4567 15.9108 64.1822C15.8295 64.2432 15.6803 64.3245 15.4906 64.3245L15.4973 64.3211ZM21.8108 47.214C20.9399 48.9254 19.8012 51.0434 18.6965 53.0971C16.6767 56.8554 14.5857 60.739 14.3993 61.6879C14.0469 63.4671 14.928 63.8128 14.9687 63.8297C14.9822 63.8365 14.9992 63.8433 15.0093 63.8568C15.1652 64.033 15.3279 64.1212 15.4872 64.1279C15.6973 64.1347 15.8498 63.9856 15.8498 63.9822C15.8667 63.9619 15.8905 63.9483 15.921 63.9517C15.9481 63.9517 15.9718 63.9619 15.9921 63.9788C16.3005 64.2906 16.9444 63.8738 16.9512 63.8704C16.9783 63.8534 17.0122 63.85 17.0427 63.8636C17.2697 63.9619 17.4765 63.9619 17.6696 63.8636C18.2356 63.5789 18.4796 62.5521 18.483 62.5419C18.4897 62.5148 18.5067 62.4911 18.5304 62.4775C19.5572 61.8913 19.3098 59.5326 19.3065 59.5089C19.3065 59.4919 19.3065 59.475 19.3132 59.4614L24.1221 47.641L21.8142 47.214H21.8108Z" fill="black"/>
<path d="M17.0022 64.0466C16.9683 64.0466 16.9344 64.0296 16.9175 63.9991C16.6464 63.5281 16.5887 62.8842 16.7684 62.3623C16.7853 62.3115 16.8429 62.2844 16.8937 62.3013C16.9446 62.3183 16.9717 62.3759 16.9547 62.4267C16.7921 62.8978 16.8429 63.4773 17.0869 63.9009C17.114 63.9483 17.0971 64.0093 17.0496 64.0364C17.0327 64.0466 17.0157 64.05 17.0022 64.05V64.0466Z" fill="black"/>
<path d="M15.9312 64.1618C15.9007 64.1618 15.8668 64.1449 15.8499 64.1178C15.4873 63.5654 15.4364 62.7927 15.7211 62.1963C15.7448 62.1488 15.8024 62.1251 15.8533 62.1488C15.9007 62.1726 15.9244 62.2302 15.9007 62.281C15.6465 62.8198 15.6906 63.5146 16.0193 64.0127C16.0498 64.0568 16.0363 64.1178 15.9922 64.1483C15.9753 64.1584 15.9583 64.1652 15.938 64.1652L15.9312 64.1618Z" fill="black"/>
<path d="M14.9583 64.0398C14.9583 64.0398 14.9312 64.0398 14.9176 64.0296C14.8532 63.9991 14.8227 63.9178 14.799 63.8365C14.6262 63.2705 14.6296 62.6504 14.8092 62.0912C14.8261 62.0404 14.8803 62.0099 14.9312 62.0268C14.982 62.0437 15.0125 62.098 14.9956 62.1488C14.8295 62.6707 14.8261 63.2468 14.9854 63.7721C15.0023 63.8263 15.0125 63.85 15.0159 63.8602C15.0532 63.8873 15.0667 63.9381 15.0464 63.9822C15.0295 64.0161 14.9956 64.0398 14.9583 64.0398Z" fill="black"/>
<path d="M17.934 63.3823C17.934 63.3823 17.9035 63.3823 17.8899 63.3722C17.8425 63.3484 17.8222 63.2908 17.8459 63.24C18.1543 62.6131 18.4186 61.9556 18.6355 61.2914C18.6524 61.2406 18.7067 61.2101 18.7575 61.227C18.8083 61.2439 18.8388 61.2982 18.8219 61.349C18.605 62.0234 18.3339 62.6876 18.0221 63.3247C18.0052 63.3586 17.9713 63.3789 17.934 63.3789V63.3823Z" fill="black"/>
<path d="M18.327 62.6063C18.2762 62.6063 18.2321 62.5656 18.2287 62.5148C18.2253 62.4606 18.266 62.4131 18.3202 62.4098L18.6693 62.3826C18.7235 62.3793 18.7709 62.4199 18.7743 62.4741C18.7777 62.5284 18.737 62.5758 18.6828 62.5792L18.3338 62.6063C18.3338 62.6063 18.3304 62.6063 18.327 62.6063Z" fill="black"/>
<path d="M2.65557 72.6145L6.71868 62.3155C6.90275 61.849 7.43029 61.6199 7.89685 61.804L23.4005 67.9204C23.8671 68.1045 24.0961 68.632 23.912 69.0986L19.8489 79.3976C19.6649 79.8641 19.1361 80.0964 18.6664 79.911L3.16272 73.7946C2.69616 73.6105 2.46711 73.083 2.65118 72.6165L2.65557 72.6145Z" fill="white"/>
<path d="M19.0116 80.0727C18.8862 80.0727 18.7608 80.049 18.6422 80.0015L3.138 73.8846C2.62288 73.6813 2.36533 73.095 2.56866 72.5765L6.62855 62.2777C6.72683 62.0269 6.91661 61.8303 7.164 61.7219C7.41138 61.6134 7.68588 61.61 7.93666 61.7083L23.4408 67.8253C23.9559 68.0286 24.2135 68.6149 24.0102 69.1334L19.9503 79.4322C19.852 79.683 19.6622 79.8795 19.4148 79.988C19.2861 80.0456 19.1505 80.0727 19.0149 80.0727H19.0116ZM18.7133 79.8185C18.9133 79.8965 19.1369 79.8931 19.3335 79.8084C19.5334 79.7237 19.6859 79.5644 19.7639 79.361L23.8238 69.0622C23.9864 68.6454 23.7831 68.1743 23.3663 68.0083L7.86211 61.8913C7.65877 61.8134 7.4385 61.8168 7.24194 61.9015C7.042 61.9862 6.8895 62.1455 6.81155 62.3488L2.75166 72.6477C2.589 73.0645 2.79233 73.5355 3.20916 73.7016L18.7133 79.8185Z" fill="black"/>
<path d="M20.6177 71.9494C20.4246 71.9494 20.228 71.9122 20.0416 71.8376L7.68572 66.9644C7.09606 66.7306 6.70294 66.1714 6.69278 65.5343L6.625 62.3182C6.625 62.3182 6.625 62.2911 6.63178 62.281C6.73006 62.0302 6.91983 61.8336 7.16722 61.7252C7.41461 61.6167 7.68911 61.6133 7.93989 61.7116L23.4441 67.8286C23.9592 68.0319 24.2167 68.6182 24.0134 69.1367C24.01 69.1502 23.9998 69.1604 23.9931 69.1706L21.7496 71.475C21.448 71.7868 21.0413 71.9494 20.6245 71.9494H20.6177ZM20.1094 71.6546C20.6279 71.8579 21.2108 71.7326 21.5971 71.3361L23.827 69.0452C23.9795 68.6317 23.7728 68.1708 23.3627 68.0116L7.85856 61.8946C7.65861 61.8167 7.43833 61.8201 7.23839 61.9048C7.04522 61.9895 6.89611 62.142 6.81478 62.3352L6.88256 65.5343C6.89272 66.0901 7.235 66.5815 7.7535 66.7848L20.1094 71.658V71.6546Z" fill="black"/>
<path d="M6.75376 73.3897C6.46909 73.2779 6.33015 72.9559 6.44198 72.6713L9.49198 64.931L10.5222 65.3377L7.4722 73.0779C7.36037 73.3626 7.03842 73.5015 6.75376 73.3897Z" fill="white"/>
<path d="M6.95727 73.5286C6.87594 73.5286 6.79461 73.5117 6.71666 73.4812C6.38116 73.349 6.2185 72.9695 6.34727 72.634L9.39727 64.8938C9.40744 64.87 9.42438 64.8497 9.44811 64.8395C9.47183 64.8294 9.49894 64.8294 9.52266 64.8395L10.5529 65.2462C10.6037 65.2665 10.6274 65.3241 10.6071 65.375L7.55711 73.1152C7.49272 73.2779 7.37072 73.4066 7.21144 73.4744C7.12672 73.5117 7.03861 73.5286 6.9505 73.5286H6.95727ZM9.54977 65.0564L6.53366 72.7051C6.44216 72.939 6.55738 73.2067 6.79122 73.2982C6.90305 73.3422 7.02844 73.3423 7.14027 73.2914C7.25211 73.244 7.33683 73.1525 7.38427 73.0406L10.4004 65.3919L9.54977 65.0564Z" fill="black"/>
<path d="M7.64532 68.9725L7.03467 70.5204L8.51 71.1024L9.12065 69.5546L7.64532 68.9725Z" fill="white"/>
<path d="M8.50945 71.2005C8.50945 71.2005 8.48573 71.2005 8.47217 71.1937L6.99801 70.6108C6.94717 70.5905 6.92345 70.5329 6.94379 70.482L7.55379 68.9333C7.56395 68.9096 7.5809 68.8893 7.60462 68.8791C7.62834 68.8689 7.65545 68.8689 7.67917 68.8791L9.15334 69.462C9.20417 69.4823 9.2279 69.5399 9.20756 69.5908L8.59756 71.1395C8.5874 71.1632 8.57045 71.1835 8.54673 71.1937C8.53317 71.2005 8.51962 71.2005 8.50606 71.2005H8.50945ZM7.16067 70.4651L8.45184 70.9734L8.99067 69.6077L7.69951 69.0994L7.16067 70.4651Z" fill="black"/>
<path d="M16.3309 77.1683C16.0462 77.0564 15.9073 76.7345 16.0191 76.4498L19.0691 68.7096L20.0993 69.1163L17.0493 76.8565C16.9375 77.1412 16.6156 77.2801 16.3309 77.1683Z" fill="white"/>
<path d="M16.5344 77.3072C16.4531 77.3072 16.3718 77.2903 16.2938 77.2598C15.9583 77.1276 15.7956 76.748 15.9244 76.4125L18.9744 68.6723C18.9846 68.6486 19.0015 68.6283 19.0253 68.6181C19.049 68.6079 19.0761 68.6079 19.0998 68.6181L20.13 69.0248C20.1809 69.0451 20.2046 69.1027 20.1843 69.1535L17.1343 76.8938C17.0699 77.0564 16.9479 77.1852 16.7886 77.253C16.7039 77.2903 16.6158 77.3072 16.5276 77.3072H16.5344ZM19.1269 68.835L16.1108 76.4837C16.0193 76.7175 16.1345 76.9853 16.3684 77.0768C16.4802 77.1208 16.6056 77.1208 16.7174 77.07C16.8293 77.0225 16.914 76.931 16.9614 76.8192L19.9775 69.1705L19.1269 68.835Z" fill="black"/>
<path d="M17.2234 72.7523L16.6128 74.3002L18.0881 74.8822L18.6988 73.3344L17.2234 72.7523Z" fill="white"/>
<path d="M18.0866 74.979C18.0866 74.979 18.0629 74.979 18.0493 74.9723L16.5752 74.3894C16.5243 74.369 16.5006 74.3114 16.5209 74.2606L17.1309 72.7119C17.1411 72.6882 17.158 72.6678 17.1818 72.6576C17.2055 72.6475 17.2326 72.6475 17.2563 72.6576L18.7305 73.2405C18.7813 73.2609 18.805 73.3185 18.7847 73.3693L18.1747 74.918C18.1645 74.9418 18.1476 74.9621 18.1239 74.9723C18.1103 74.979 18.0968 74.979 18.0832 74.979H18.0866ZM16.7378 74.2437L18.029 74.752L18.5678 73.3863L17.2767 72.8779L16.7378 74.2437Z" fill="black"/>
<path d="M14.6263 60.6712C13.8231 60.356 12.9115 60.7627 12.5963 61.5659L11.8745 63.3993L12.5523 63.667L13.2741 61.8336C13.4436 61.4032 13.9282 61.1829 14.3586 61.3524L14.6263 60.6746V60.6712Z" fill="white"/>
<path d="M12.5524 63.7619C12.5524 63.7619 12.5287 63.7619 12.5151 63.7551L11.8374 63.4874C11.7865 63.4671 11.7628 63.4095 11.7831 63.3586L12.505 61.5253C12.6676 61.1118 12.9828 60.7865 13.3895 60.6035C13.7995 60.4239 14.2503 60.4137 14.6637 60.5764C14.7145 60.5967 14.7383 60.6543 14.7179 60.7051L14.4502 61.3829C14.44 61.4066 14.4231 61.427 14.3994 61.4371C14.3756 61.4473 14.3485 61.4473 14.3248 61.4371C14.1418 61.366 13.9419 61.3694 13.7623 61.4541C13.5826 61.5354 13.4403 61.6811 13.3691 61.8675L12.6473 63.7009C12.6371 63.7246 12.6202 63.745 12.5965 63.7551C12.5829 63.7619 12.5694 63.7619 12.5558 63.7619H12.5524ZM12 63.3417L12.4948 63.5383L13.1794 61.7964C13.2709 61.5625 13.4471 61.3795 13.6741 61.2779C13.8741 61.1898 14.091 61.1694 14.2977 61.227L14.4943 60.7289C14.1554 60.6204 13.7961 60.6407 13.464 60.7865C13.1048 60.9457 12.8269 61.2338 12.6846 61.5998L12 63.3417Z" fill="black"/>
<path d="M19.2453 62.5047L18.4185 62.1827C18.3473 62.359 18.1406 62.847 18.1338 62.8605L18.981 63.1858C19.4114 63.3553 19.6215 63.8399 19.4521 64.2703L18.7302 66.1037L19.408 66.3714L20.1298 64.538C20.445 63.7349 20.0519 62.8232 19.2487 62.5081L19.2453 62.5047Z" fill="white"/>
<path d="M19.4081 66.4663C19.4081 66.4663 19.3843 66.4663 19.3708 66.4595L18.693 66.1918C18.6422 66.1715 18.6185 66.1139 18.6388 66.063L19.3606 64.2296C19.5097 63.8501 19.3233 63.4231 18.9438 63.274L18.1 62.952C18.0728 62.9419 18.0525 62.9181 18.0423 62.891C18.0322 62.8639 18.0356 62.8334 18.0525 62.8063C18.0661 62.7792 18.2592 62.3217 18.3304 62.1455C18.3507 62.0946 18.4083 62.0709 18.4558 62.0912L19.2827 62.4132C20.1367 62.7487 20.5569 63.7179 20.2214 64.5719L19.4996 66.4053C19.4894 66.429 19.4725 66.4494 19.4487 66.4595C19.4352 66.4663 19.4216 66.4663 19.4081 66.4663ZM18.8557 66.0461L19.3505 66.2426L20.035 64.5007C20.3332 63.7484 19.9605 62.8944 19.2081 62.5962L18.4693 62.3081C18.4151 62.4437 18.3202 62.6707 18.2592 62.8029L19.0082 63.091C19.4894 63.2807 19.7232 63.823 19.5368 64.3042L18.8523 66.0461H18.8557Z" fill="black"/>
<path d="M53.7644 27.6025C55.7639 26.7451 58.9155 24.6948 61.0946 24.4779C62.2129 25.0269 60.1254 25.9148 59.6238 26.0605C59.6238 26.0605 60.3185 26.4028 60.0644 27.0806C60.0644 27.0806 60.471 27.2941 60.0135 28.0667C60.1084 28.6632 59.268 29.3003 58.6139 28.9173C58.6139 28.9173 54.266 31.4387 53.1646 31.7538C52.0666 32.069 52.8054 28.0498 53.761 27.6025H53.7644Z" fill="white"/>
<path d="M53.7881 31.6183C53.7508 31.6183 53.7135 31.5979 53.7 31.5607C53.6763 31.5098 53.7 31.4522 53.7508 31.4319C54.8183 30.9507 58.5325 28.8563 58.5698 28.836C58.6003 28.819 58.6376 28.819 58.6681 28.836C58.9358 28.9953 59.2679 28.9715 59.556 28.775C59.8169 28.5988 59.9592 28.3277 59.9186 28.087C59.9152 28.0633 59.9186 28.0396 59.9321 28.0227C60.1456 27.6634 60.1524 27.4465 60.1219 27.3279C60.0914 27.2161 60.0236 27.172 60.0202 27.172C59.9796 27.1483 59.9592 27.0975 59.9762 27.0534C60.1965 26.4638 59.6102 26.1655 59.5831 26.1554C59.5458 26.1384 59.5255 26.0978 59.5289 26.0571C59.5322 26.0164 59.5594 25.9825 59.6 25.9724C60.0846 25.8334 61.2877 25.2743 61.3216 24.8744C61.3317 24.7727 61.247 24.6744 61.0776 24.5863C59.6204 24.7354 57.6074 25.7792 55.8248 26.701C55.0826 27.0839 54.3811 27.4499 53.805 27.7007C53.7542 27.721 53.6966 27.7007 53.6762 27.6499C53.6559 27.599 53.6762 27.5414 53.7271 27.5211C54.2964 27.2737 54.9945 26.9111 55.7333 26.5282C57.5396 25.5928 59.5899 24.5321 61.0844 24.3898C61.1013 24.3898 61.1216 24.3898 61.1352 24.3999C61.4029 24.5321 61.5317 24.6982 61.5147 24.8947C61.4673 25.4166 60.349 25.9148 59.8474 26.0978C60.0779 26.2808 60.3117 26.6129 60.1795 27.0568C60.2236 27.0975 60.2778 27.1687 60.3049 27.2737C60.3659 27.494 60.3049 27.7685 60.1151 28.0972C60.149 28.4022 59.9728 28.7309 59.6644 28.941C59.3357 29.1681 58.9392 29.202 58.6172 29.0393C58.1801 29.2867 54.842 31.1608 53.8321 31.6149C53.8186 31.6217 53.805 31.625 53.7915 31.625L53.7881 31.6183Z" fill="black"/>
<path d="M58.6409 28.4022C58.4579 28.4022 58.2885 28.3344 58.1461 28.2056C58.1428 28.2022 58.136 28.1954 58.1326 28.192C58.058 28.087 58.0343 27.9413 58.0716 27.8125C58.1055 27.6973 58.18 27.6092 58.2783 27.5685C58.3291 27.5482 58.3868 27.5685 58.4071 27.6227C58.4274 27.6735 58.4071 27.7312 58.3563 27.7515C58.2953 27.7752 58.2715 27.8362 58.2614 27.8701C58.241 27.9413 58.2512 28.0192 58.2885 28.0768C58.424 28.1988 58.5765 28.2395 58.7595 28.2022C59.2306 28.1107 59.7288 27.538 59.905 27.1584C59.9287 27.111 59.9863 27.0873 60.0338 27.111C60.0812 27.1347 60.1049 27.1923 60.0812 27.2398C59.8948 27.6397 59.356 28.2802 58.7968 28.392C58.7426 28.4022 58.6918 28.4089 58.6409 28.4089V28.4022Z" fill="black"/>
<path d="M59.031 27.6397C59.0072 27.6397 58.9801 27.6397 58.9564 27.6329C58.8276 27.6092 58.7226 27.5381 58.6243 27.4669C58.5463 27.4127 58.4718 27.3584 58.3905 27.3381C58.2515 27.3008 58.0617 27.3889 57.8753 27.4771C57.6517 27.5821 57.4178 27.6872 57.2179 27.6092C57.1061 27.5652 57.018 27.4669 56.957 27.3212C56.9366 27.2703 56.9569 27.2127 57.0112 27.1924C57.062 27.1721 57.1196 27.1924 57.14 27.2466C57.1806 27.3449 57.2315 27.4059 57.2925 27.4296C57.4178 27.4771 57.611 27.3889 57.7974 27.3042C58.0143 27.2059 58.238 27.1009 58.4413 27.1551C58.5565 27.1856 58.648 27.25 58.7395 27.3144C58.8242 27.3754 58.9056 27.4296 58.9903 27.4466C59.0682 27.4601 59.153 27.433 59.2241 27.372C59.319 27.2907 59.38 27.1619 59.38 27.0433C59.3427 26.4536 58.6446 26.1283 58.1837 26.0537C58.1295 26.0436 58.0922 25.9961 58.1024 25.9419C58.1126 25.8877 58.16 25.8504 58.2142 25.8606C58.8615 25.9622 59.5359 26.4028 59.5766 27.0365C59.5766 27.2195 59.4885 27.4059 59.3495 27.5245C59.2546 27.6058 59.1428 27.6465 59.031 27.6465V27.6397Z" fill="black"/>
<path d="M58.7225 28.8326C58.6445 28.8326 58.5666 28.8224 58.4988 28.7953C58.3632 28.7445 58.2006 28.6191 58.187 28.3039C58.187 28.2497 58.2277 28.2057 58.2819 28.2023C58.3361 28.2023 58.3802 28.2429 58.3836 28.2972C58.3903 28.4666 58.4513 28.5683 58.5666 28.6123C58.8817 28.7275 59.5527 28.3988 59.7866 28.1413C59.8238 28.1006 59.8848 28.0972 59.9255 28.1345C59.9662 28.1718 59.9696 28.2328 59.9323 28.2734C59.7256 28.5005 59.1562 28.8326 58.7225 28.8326Z" fill="black"/>
<path d="M58.6069 28.9818C58.5731 28.9818 58.5358 28.9614 58.5188 28.9275C58.4883 28.8699 58.4714 28.8055 58.4646 28.7411C58.4578 28.6869 58.4985 28.6395 58.5527 28.6327C58.6069 28.6259 58.6544 28.6666 58.6612 28.7208C58.6646 28.7615 58.6781 28.8021 58.6951 28.836C58.7188 28.8835 58.7018 28.9445 58.6544 28.9682C58.6408 28.975 58.6239 28.9784 58.6103 28.9784L58.6069 28.9818Z" fill="black"/>
<path d="M53.7641 27.6024C53.7641 27.6024 33.8341 37.01 33.8375 37.01C26.7716 40.6632 22.5118 39.4127 15.6391 58.177C15.5883 58.2041 19.6346 59.2614 19.6346 59.2614C19.6787 59.2411 28.0018 45.9024 28.0018 45.9024L27.6595 52.9988L39.6291 47.9561C40.4356 47.6172 41.0016 46.8649 41.1033 45.9905L41.9708 38.6333L53.7946 31.5234C53.2423 30.3813 53.3439 29.0427 53.7709 27.6092L53.7641 27.6024Z" fill="white"/>
<path d="M19.6315 59.3597C19.6315 59.3597 19.6145 59.3597 19.6044 59.3563L15.6089 58.2719C15.5817 58.2651 15.5614 58.2482 15.5479 58.2244C15.5343 58.2007 15.5343 58.1736 15.5411 58.1465C20.9802 42.6423 25.2231 40.775 30.6013 38.413C31.6214 37.9657 32.6753 37.5014 33.7902 36.9253C33.8072 36.9151 33.8275 36.9049 33.8478 36.8982L53.7203 27.5177C53.7542 27.5008 53.7982 27.5075 53.8254 27.5313C53.8559 27.555 53.866 27.5957 53.8559 27.6329C53.378 29.2427 53.3848 30.466 53.8762 31.4793C53.8999 31.5234 53.883 31.581 53.8389 31.6047L42.0591 38.6909L41.1984 46.0007C41.0899 46.9089 40.5036 47.6918 39.6632 48.0476C39.6124 48.0679 39.5547 48.0476 39.5344 47.9968C39.5141 47.9459 39.5344 47.8883 39.5852 47.868C40.3579 47.5427 40.9001 46.8174 41.0018 45.9804L41.8694 38.6231C41.8727 38.5926 41.8897 38.5655 41.9168 38.5519L53.6627 31.4861C53.2154 30.4999 53.1984 29.2867 53.6119 27.7888C51.5446 28.7648 33.9122 37.0879 33.8784 37.1015C32.76 37.681 31.7027 38.1453 30.6826 38.5926C25.3621 40.9309 21.1599 42.7779 15.7647 58.1092L19.5874 59.1462L27.9173 45.8482C27.941 45.8109 27.9885 45.794 28.0291 45.8075C28.0732 45.8211 28.1003 45.8618 28.0969 45.9058L27.7614 52.8293L28.3511 52.5108C28.3985 52.4837 28.4595 52.504 28.4832 52.5514C28.5104 52.5989 28.49 52.6599 28.4426 52.6836L27.7004 53.0869C27.6699 53.1038 27.6326 53.1038 27.6021 53.0869C27.5716 53.0665 27.5547 53.036 27.5547 52.9988L27.88 46.2752L19.7094 59.3157C19.6925 59.3462 19.6586 59.3631 19.6247 59.3631L19.6315 59.3597Z" fill="black"/>
<path d="M32.1431 46.0956C31.1027 46.0956 30.1132 45.7126 29.6015 44.7434C29.5777 44.696 29.5947 44.635 29.6421 44.6112C29.6896 44.5875 29.7506 44.6045 29.7743 44.6519C30.4927 46.0176 32.377 46.1464 33.8613 45.5669C33.9121 45.5466 33.9697 45.5737 33.9867 45.6211C34.007 45.672 33.9799 45.7296 33.9325 45.7465C33.3733 45.9634 32.7497 46.0956 32.1431 46.0956Z" fill="black"/>
<path d="M38.9277 42.9405C38.8836 42.9405 38.843 42.91 38.8328 42.866C38.8192 42.8151 38.8497 42.7609 38.904 42.7473C39.6495 42.5542 40.2765 42.0153 40.6289 41.2698C40.9847 40.5175 40.9983 39.6804 40.6662 38.9789C40.6425 38.9315 40.6662 38.8705 40.7136 38.8501C40.7611 38.8264 40.8221 38.8501 40.8424 38.8976C41.1982 39.6533 41.1847 40.5513 40.8051 41.3579C40.429 42.1577 39.7546 42.7372 38.9514 42.9439C38.9446 42.9439 38.9345 42.9439 38.9277 42.9439V42.9405Z" fill="black"/>
<path d="M34.204 33.5974L33.2822 37.3862C33.6923 38.5994 34.4751 40.4464 35.1936 40.3074C36.4305 40.0702 36.1492 35.9527 36.6643 34.1125L34.2006 33.5974H34.204Z" fill="white"/>
<path d="M35.1189 40.4125C34.3259 40.4125 33.577 38.5553 33.1906 37.4167C33.1839 37.3997 33.1839 37.3794 33.1906 37.3625L34.1124 33.5737C34.126 33.5228 34.1768 33.489 34.2276 33.5025L36.6913 34.0176C36.7185 34.0244 36.7422 34.038 36.7557 34.0617C36.7693 34.0854 36.7727 34.1125 36.7659 34.1396C36.5897 34.7733 36.5084 35.6714 36.4202 36.6203C36.2542 38.4808 36.0949 40.2396 35.2172 40.4057C35.1867 40.4125 35.1528 40.4158 35.1223 40.4158L35.1189 40.4125ZM33.3838 37.3794C33.8752 38.8231 34.6038 40.321 35.1765 40.2091C35.9085 40.0702 36.0746 38.2266 36.2237 36.6C36.305 35.6883 36.383 34.8276 36.5456 34.1837L34.2751 33.7092L33.3838 37.376V37.3794Z" fill="black"/>
<path d="M37.8404 32.1673C38.3657 34.2447 36.1765 35.3664 34.6887 33.9363C32.7943 34.5429 32.8689 31.659 34.5566 33.0145C34.8412 32.9908 34.7565 32.6214 34.6548 32.4486C34.1262 31.0761 35.5055 29.8324 36.7898 29.6494C36.8712 29.6324 37.1287 29.5409 37.2033 29.585C37.532 30.3814 37.6981 31.3065 37.8404 32.1673Z" fill="white"/>
<path d="M36.1765 34.6785C35.6512 34.6785 35.1157 34.4616 34.6616 34.0482C33.7568 34.3125 33.3874 33.7974 33.2959 33.6279C33.1095 33.2891 33.1502 32.879 33.3908 32.6757C33.5196 32.5672 33.8923 32.3741 34.5803 32.9129C34.6108 32.9027 34.6243 32.8858 34.6345 32.8722C34.6752 32.7909 34.6345 32.6147 34.5667 32.4994C34.5667 32.4961 34.5633 32.4893 34.56 32.4859C34.3566 31.9572 34.4075 31.4082 34.7057 30.8999C35.109 30.2153 35.9392 29.6731 36.7729 29.5545C36.7831 29.5545 36.8102 29.5443 36.8373 29.5376C37.0169 29.4867 37.1626 29.4528 37.2473 29.5037C37.2643 29.5138 37.2812 29.5308 37.288 29.5511C37.6167 30.3441 37.7794 31.232 37.9319 32.1504C38.1759 33.1196 37.8607 33.9906 37.1118 34.4277C36.8203 34.5972 36.4984 34.6819 36.1731 34.6819L36.1765 34.6785ZM34.6887 33.8414C34.7125 33.8414 34.7396 33.8516 34.7565 33.8686C35.4275 34.5124 36.3154 34.6649 37.0169 34.2583C37.6879 33.8652 37.9692 33.0756 37.7455 32.1944V32.1877C37.5998 31.2998 37.4405 30.439 37.1321 29.6765C37.0745 29.6799 36.9491 29.7172 36.8949 29.7307C36.861 29.7409 36.8305 29.7477 36.8102 29.7544C36.024 29.8663 35.2513 30.3678 34.8785 31.0049C34.6108 31.4591 34.5667 31.9471 34.743 32.4147C34.8073 32.5333 34.9022 32.7875 34.8107 32.9671C34.7768 33.0315 34.7091 33.1061 34.5667 33.1196C34.543 33.1196 34.5159 33.1128 34.4956 33.0993C34.0753 32.7604 33.7195 32.6655 33.5196 32.8316C33.3501 32.9739 33.3298 33.2823 33.4687 33.5398C33.6721 33.9092 34.116 34.0244 34.6582 33.8516C34.6684 33.8516 34.6786 33.8482 34.6887 33.8482V33.8414Z" fill="black"/>
<path d="M34.3806 33.6178C34.3806 33.6178 34.3806 33.6178 34.3772 33.6178L33.9299 33.5974C33.8756 33.5974 33.835 33.55 33.835 33.4958C33.835 33.4415 33.8858 33.4009 33.9366 33.4009L34.384 33.4212C34.4382 33.4212 34.4789 33.4687 34.4789 33.5229C34.4789 33.5771 34.4348 33.6178 34.3806 33.6178Z" fill="black"/>
<path d="M61.417 40.3142C61.3831 40.3142 61.3526 40.2973 61.3323 40.2668C61.3052 40.2194 61.3188 40.1617 61.3628 40.1312L67.4764 36.373C67.5238 36.3459 67.5814 36.3594 67.6119 36.4035C67.639 36.4509 67.6255 36.5085 67.5814 36.539L61.4679 40.2973C61.4679 40.2973 61.434 40.3109 61.417 40.3109V40.3142Z" fill="black"/>
<path d="M43.5473 28.7311C43.51 28.7311 43.4761 28.7107 43.4592 28.6768C43.4354 28.6294 43.4558 28.5684 43.5032 28.5447L50.769 24.9965C50.8164 24.9728 50.8774 24.9931 50.9012 25.0406C50.9249 25.088 50.9046 25.149 50.8571 25.1727L43.5913 28.7209C43.5913 28.7209 43.5642 28.7311 43.5473 28.7311Z" fill="black"/>
<path d="M57.5907 36.3595C57.5568 36.3595 57.523 36.3425 57.506 36.312C57.4789 36.2646 57.4924 36.207 57.5399 36.1765L77.0565 24.5729C77.1039 24.5458 77.1616 24.5593 77.1921 24.6068C77.2192 24.6542 77.2056 24.7118 77.1582 24.7423L57.6416 36.3459C57.6416 36.3459 57.6077 36.3595 57.5907 36.3595Z" fill="black"/>
<path d="M76.7008 25.8437C76.7008 25.8437 76.6771 25.8437 76.6636 25.8369C76.6127 25.8166 76.589 25.759 76.6093 25.7081L77.0262 24.6915L75.9282 24.5796C75.8739 24.5728 75.8367 24.5254 75.8401 24.4712C75.8468 24.417 75.8943 24.3763 75.9485 24.3831L77.1753 24.5085C77.2058 24.5085 77.2329 24.5288 77.2498 24.5559C77.2668 24.583 77.2668 24.6135 77.2566 24.644L76.7889 25.7827C76.772 25.82 76.7381 25.8437 76.6974 25.8437H76.7008Z" fill="black"/>
<path d="M70.3057 40.1549C70.2718 40.1549 70.2413 40.1379 70.221 40.1074C70.1939 40.06 70.2074 40.0024 70.2515 39.9719L80.1742 33.8719C80.2216 33.8448 80.2792 33.8583 80.3097 33.9024C80.3368 33.9498 80.3233 34.0074 80.2792 34.0379L70.3565 40.1379C70.3565 40.1379 70.3227 40.1515 70.3057 40.1515V40.1549Z" fill="black"/>
<path d="M79.9372 35.0919C79.9372 35.0919 79.9134 35.0919 79.8999 35.0851C79.8491 35.0648 79.8253 35.0072 79.8457 34.9564L80.2625 33.9397L79.1645 33.8279C79.1103 33.8211 79.073 33.7736 79.0764 33.7194C79.0832 33.6652 79.1306 33.6279 79.1848 33.6313L80.4116 33.7567C80.4421 33.7567 80.4692 33.777 80.4862 33.8041C80.5031 33.8313 80.5031 33.8618 80.4929 33.8923L80.0253 35.0309C80.0083 35.0682 79.9744 35.0919 79.9338 35.0919H79.9372Z" fill="black"/>
<path d="M87.5792 30.2357C87.1996 29.6461 87.3691 28.8632 87.9587 28.4837C88.0028 28.4566 88.0469 28.4294 88.0943 28.4091C87.9249 27.9143 87.8333 27.4026 87.8164 26.8909C87.7656 26.8875 87.7147 26.8807 87.6639 26.8672C86.9793 26.7181 86.5422 26.0437 86.6913 25.3591C86.8404 24.6746 87.5148 24.2408 88.1994 24.3865C88.2502 24.3967 88.301 24.4136 88.3485 24.4306C88.5721 23.9731 88.867 23.5427 89.2262 23.1597C89.1923 23.1191 89.1618 23.0784 89.1347 23.0343C88.7551 22.4447 88.9246 21.6618 89.5142 21.2823C90.1039 20.9027 90.8901 21.0722 91.2697 21.6618C91.2968 21.7059 91.3239 21.7499 91.3442 21.7974C91.8424 21.6279 92.3541 21.5364 92.8625 21.5195C92.8658 21.4687 92.8726 21.4178 92.8862 21.367C93.0353 20.6824 93.7097 20.2487 94.3942 20.3944C95.0788 20.5435 95.516 21.2179 95.3668 21.9024C95.3567 21.9533 95.3397 22.0041 95.3228 22.0516C95.7803 22.2752 96.2107 22.5701 96.5936 22.9293C96.6343 22.8954 96.675 22.8649 96.719 22.8378C97.3087 22.4582 98.0949 22.6277 98.4745 23.2173C98.854 23.807 98.6846 24.5898 98.0949 24.9694C98.0508 24.9965 98.0068 25.0236 97.9593 25.0439C98.1288 25.5387 98.2203 26.0504 98.2372 26.5622C98.2881 26.5656 98.3389 26.5723 98.3897 26.5859C99.0743 26.735 99.5115 27.4094 99.3624 28.0939C99.2132 28.7785 98.5388 29.2123 97.8543 29.0666C97.8035 29.0564 97.7526 29.0394 97.7052 29.0225C97.4815 29.48 97.1867 29.9104 96.8275 30.2933C96.8613 30.334 96.8918 30.3747 96.919 30.4187C97.2985 31.0084 97.1291 31.7912 96.5394 32.1708C95.9497 32.5503 95.1635 32.3809 94.784 31.7912C94.7568 31.7472 94.7297 31.7031 94.7094 31.6557C94.2112 31.8251 93.6995 31.9166 93.1912 31.9336C93.1878 31.9844 93.181 32.0352 93.1675 32.0861C93.0184 32.7706 92.344 33.2044 91.6594 33.0587C90.9748 32.9096 90.5377 32.2352 90.6868 31.5506C90.697 31.4998 90.7139 31.4489 90.7309 31.4015C90.2734 31.1778 89.843 30.883 89.46 30.5238C89.4194 30.5577 89.3787 30.5882 89.3346 30.6153C88.745 30.9948 87.9587 30.8254 87.5792 30.2357ZM91.046 28.0024C91.7509 29.0971 93.2115 29.4088 94.3027 28.7039C95.3973 27.9991 95.7125 26.5418 95.0042 25.4472C94.2993 24.3526 92.8387 24.0408 91.7475 24.7457C90.6529 25.4506 90.3377 26.9078 91.046 28.0024Z" fill="white"/>
<path d="M91.9273 33.1806C92.5577 33.1806 93.127 32.7434 93.2625 32.1029C93.2693 32.0792 93.2727 32.0521 93.2761 32.025C93.7472 32.0047 94.2114 31.9199 94.6588 31.7742C94.6723 31.7979 94.6859 31.8217 94.6994 31.842C95.1095 32.4757 95.9567 32.6587 96.5904 32.2487C96.8988 32.0521 97.1089 31.7471 97.1869 31.3879C97.2648 31.032 97.197 30.666 97.0005 30.3577C96.9869 30.3373 96.97 30.3136 96.9564 30.2933C97.275 29.9442 97.5427 29.5579 97.7562 29.1377C97.7833 29.1444 97.807 29.1512 97.8342 29.158C98.5695 29.3173 99.3015 28.8462 99.4574 28.1108C99.5354 27.755 99.4676 27.389 99.271 27.0806C99.0745 26.7756 98.7661 26.5621 98.4103 26.4842C98.3865 26.4774 98.3594 26.474 98.3323 26.4706C98.312 25.9995 98.2273 25.5353 98.0815 25.0879C98.1053 25.0744 98.129 25.0608 98.1493 25.0473C98.4577 24.8507 98.6678 24.5423 98.7458 24.1865C98.8237 23.8307 98.7559 23.4647 98.5594 23.1563C98.1493 22.5225 97.3021 22.3395 96.6684 22.7496C96.648 22.7632 96.6243 22.7801 96.604 22.7937C96.2549 22.4751 95.8686 22.2074 95.4484 21.9939C95.4552 21.9668 95.4619 21.943 95.4687 21.9159C95.5467 21.5601 95.4789 21.1941 95.2823 20.8857C95.0858 20.5773 94.7774 20.3672 94.4215 20.2893C93.6862 20.13 92.9542 20.601 92.7983 21.3364C92.7915 21.3602 92.7881 21.3873 92.7847 21.4144C92.3137 21.4347 91.8494 21.5194 91.402 21.6652C91.3885 21.6414 91.3749 21.6177 91.3614 21.5974C90.9513 20.9637 90.1041 20.7807 89.4704 21.1907C89.162 21.3873 88.9519 21.6923 88.8739 22.0515C88.796 22.4073 88.8638 22.7733 89.0603 23.0817C89.0739 23.102 89.0908 23.1258 89.1044 23.1461C88.7858 23.4952 88.5181 23.8815 88.3046 24.3017C88.2775 24.2949 88.2538 24.2882 88.2267 24.2814C87.4913 24.1221 86.7593 24.5932 86.6034 25.3285C86.5254 25.6844 86.5932 26.0504 86.7898 26.3588C86.9863 26.6638 87.2947 26.8773 87.6505 26.9552C87.6743 26.962 87.7014 26.9654 87.7285 26.9688C87.7488 27.4398 87.8335 27.9041 87.9793 28.3514C87.9555 28.365 87.9318 28.3785 87.9115 28.3921C87.6031 28.5887 87.393 28.8937 87.315 29.2529C87.2371 29.6087 87.3049 29.9747 87.5014 30.2831C87.9115 30.9168 88.7587 31.0998 89.3924 30.6898C89.4128 30.6762 89.4365 30.6593 89.4568 30.6457C89.8059 30.9643 90.1922 31.232 90.6124 31.4455C90.6057 31.4726 90.5989 31.4963 90.5921 31.5234C90.5142 31.8793 90.5819 32.2453 90.7785 32.5537C90.975 32.862 91.2834 33.0722 91.6393 33.1501C91.7375 33.1704 91.8324 33.1806 91.9273 33.1806ZM94.7096 31.5539C94.7096 31.5539 94.6893 31.5539 94.6791 31.5607C94.1979 31.7268 93.6963 31.8183 93.188 31.8318C93.1372 31.8318 93.0965 31.8725 93.0931 31.9199C93.0897 31.9742 93.0829 32.0182 93.0728 32.0623C92.9372 32.6926 92.3137 33.0959 91.6799 32.9603C91.3749 32.8959 91.114 32.7129 90.9412 32.452C90.7717 32.1877 90.7141 31.8759 90.7819 31.5709C90.792 31.5302 90.8022 31.4862 90.8225 31.4353C90.8395 31.3879 90.8192 31.337 90.7717 31.3167C90.3142 31.093 89.8974 30.805 89.5246 30.4559C89.4873 30.422 89.4331 30.4187 89.3958 30.4525C89.3552 30.4864 89.3179 30.5135 89.2806 30.5373C88.7384 30.8863 88.0132 30.7304 87.6607 30.1882C87.4913 29.9273 87.4337 29.6121 87.5014 29.3071C87.5658 29.0021 87.7488 28.7412 88.0098 28.5717C88.047 28.548 88.0843 28.5277 88.1352 28.5039C88.1792 28.4836 88.1995 28.4294 88.186 28.3853C88.0199 27.9041 87.9284 27.4025 87.9149 26.8942C87.9149 26.8434 87.8742 26.8027 87.8268 26.7993C87.7725 26.7959 87.7285 26.7892 87.6844 26.779C87.3794 26.7146 87.1185 26.5316 86.9457 26.2707C86.7762 26.0097 86.7186 25.6945 86.7864 25.3895C86.9219 24.7592 87.5455 24.3559 88.1792 24.4915C88.2199 24.5017 88.2673 24.5118 88.3148 24.5322C88.3622 24.5491 88.413 24.5288 88.4334 24.4813C88.657 24.0238 88.9485 23.607 89.2942 23.2376C89.328 23.2003 89.3314 23.1461 89.2975 23.1088C89.2637 23.0682 89.2365 23.0309 89.2128 22.9936C89.0434 22.7293 88.9858 22.4175 89.0535 22.1125C89.1179 21.8075 89.3009 21.5465 89.5619 21.3771C90.1041 21.028 90.8293 21.1839 91.1818 21.7262C91.2055 21.7634 91.2258 21.8041 91.2495 21.8515C91.2699 21.8956 91.3241 21.9159 91.3682 21.9024C91.8494 21.7363 92.3509 21.6448 92.8593 21.6313C92.9101 21.6313 92.9508 21.5906 92.9542 21.5432C92.9575 21.4889 92.9643 21.4449 92.9745 21.4008C93.11 20.7705 93.7336 20.3672 94.3673 20.5028C94.6723 20.5672 94.9333 20.7502 95.1061 21.0111C95.2755 21.272 95.3332 21.5872 95.2654 21.8922C95.2552 21.9329 95.245 21.9803 95.2247 22.0278C95.2078 22.0752 95.2281 22.126 95.2755 22.1498C95.733 22.3734 96.1499 22.6615 96.5227 23.0105C96.5599 23.0444 96.6142 23.0478 96.6514 23.0139C96.6921 22.98 96.7294 22.9529 96.7667 22.9292C97.3089 22.5802 98.0341 22.736 98.3865 23.2783C98.556 23.5392 98.6136 23.8544 98.5458 24.1594C98.4814 24.4644 98.2984 24.7253 98.0375 24.8948C98.0002 24.9185 97.9595 24.9422 97.9121 24.9625C97.868 24.9829 97.8443 25.0371 97.8613 25.0812C98.0273 25.5624 98.1188 26.0639 98.1324 26.5723C98.1324 26.6231 98.173 26.6638 98.2205 26.6672C98.2747 26.6705 98.3188 26.6773 98.3628 26.6875C98.6678 26.7519 98.9288 26.9349 99.0982 27.1958C99.2677 27.4568 99.3253 27.7719 99.2575 28.0769C99.1219 28.7073 98.4984 29.1105 97.8647 28.975C97.824 28.9648 97.7765 28.9547 97.7291 28.9343C97.6817 28.9174 97.6308 28.9411 97.6105 28.9852C97.3868 29.4427 97.0954 29.8595 96.7497 30.2289C96.7158 30.2662 96.7124 30.3204 96.7463 30.3577C96.7802 30.3983 96.8073 30.4356 96.831 30.4729C97.0005 30.7338 97.0581 31.049 96.9903 31.354C96.9259 31.659 96.7429 31.9199 96.482 32.0894C95.9398 32.4384 95.2145 32.2825 94.8621 31.7403C94.8384 31.703 94.818 31.6658 94.7943 31.6149C94.7774 31.581 94.7435 31.5607 94.7062 31.5607L94.7096 31.5539ZM93.0287 29.1783C93.4828 29.1783 93.9437 29.0529 94.3572 28.7886C94.9095 28.4328 95.2891 27.8838 95.4247 27.2433C95.5636 26.6028 95.445 25.9453 95.0892 25.3963C94.3572 24.261 92.8322 23.9323 91.6969 24.6643C91.1445 25.0202 90.7649 25.5692 90.6294 26.2097C90.4904 26.8502 90.609 27.5076 90.9649 28.0566C91.4325 28.7818 92.2255 29.1783 93.0321 29.1783H93.0287ZM93.0219 24.4678C93.7641 24.4678 94.4927 24.8338 94.9231 25.5014C95.2484 26.0063 95.3603 26.6129 95.2315 27.1992C95.1027 27.7889 94.7537 28.2938 94.2487 28.6192C93.2015 29.2935 91.8019 28.9919 91.1275 27.9448C90.8022 27.4398 90.6904 26.8332 90.8192 26.2435C90.9479 25.6539 91.297 25.1489 91.8019 24.8236C92.1781 24.5796 92.6051 24.4644 93.0219 24.4644V24.4678Z" fill="black"/>
<path d="M81.6216 20.5604C81.5233 20.208 81.7301 19.842 82.0859 19.7437C82.113 19.7369 82.1401 19.7301 82.1638 19.7267C82.1571 19.4522 82.1909 19.1811 82.2621 18.9236C82.2384 18.9134 82.2147 18.9032 82.1909 18.8897C81.8724 18.7101 81.7606 18.3034 81.9402 17.9848C82.1198 17.6663 82.5264 17.5545 82.845 17.7341C82.8687 17.7476 82.8924 17.7612 82.9128 17.7781C83.0958 17.585 83.3127 17.4155 83.5499 17.28C83.5397 17.2562 83.5296 17.2291 83.5228 17.202C83.4245 16.8496 83.6312 16.4836 83.9871 16.3853C84.3395 16.287 84.7055 16.4937 84.8038 16.8496C84.8106 16.8767 84.8173 16.9038 84.8207 16.9275C85.0952 16.9207 85.3663 16.9546 85.6239 17.0258C85.6341 17.0021 85.6442 16.9783 85.6578 16.9546C85.8374 16.6361 86.2441 16.5242 86.5626 16.7038C86.8812 16.8835 86.993 17.2901 86.8134 17.6087C86.7998 17.6324 86.7863 17.6561 86.7693 17.6765C86.9625 17.8595 87.132 18.0763 87.2675 18.3136C87.2912 18.3034 87.3183 18.2932 87.3454 18.2865C87.6979 18.1882 88.0639 18.3949 88.1622 18.7507C88.2604 19.1032 88.0537 19.4692 87.6979 19.5675C87.6708 19.5742 87.6437 19.581 87.6199 19.5844C87.6267 19.8589 87.5928 20.13 87.5217 20.3876C87.5454 20.3977 87.5691 20.4079 87.5928 20.4215C87.9114 20.6011 88.0232 21.0077 87.8436 21.3263C87.664 21.6448 87.2573 21.7567 86.9388 21.5771C86.9151 21.5635 86.8913 21.55 86.871 21.533C86.688 21.7262 86.4711 21.8956 86.2339 22.0312C86.2441 22.0549 86.2542 22.082 86.261 22.1091C86.3593 22.4616 86.1526 22.8276 85.7967 22.9258C85.4443 23.0241 85.0783 22.8174 84.98 22.4616C84.9732 22.4345 84.9664 22.4073 84.9631 22.3836C84.6886 22.3904 84.4174 22.3565 84.1599 22.2853C84.1497 22.3091 84.1396 22.3328 84.126 22.3565C83.9464 22.6751 83.5397 22.7869 83.2212 22.6073C82.9026 22.4277 82.7908 22.021 82.9704 21.7025C82.9839 21.6787 82.9975 21.655 83.0144 21.6347C82.8213 21.4517 82.6518 21.2348 82.5163 20.9976C82.4926 21.0077 82.4654 21.0179 82.4383 21.0247C82.0859 21.123 81.7199 20.9162 81.6216 20.5604ZM83.7024 19.9877C83.8854 20.6451 84.5632 21.0281 85.2206 20.8485C85.8781 20.6655 86.2644 19.9877 86.0814 19.3302C85.8984 18.6728 85.2206 18.2898 84.5632 18.4695C83.9057 18.6525 83.5194 19.3302 83.7024 19.9877Z" fill="white"/>
<path d="M85.6206 23.0512C85.6884 23.0512 85.7562 23.0411 85.8239 23.0241C86.0205 22.9699 86.1832 22.8411 86.2848 22.6649C86.3865 22.4887 86.4102 22.2819 86.356 22.0854C86.356 22.0854 86.356 22.082 86.356 22.0786C86.5492 21.9634 86.7288 21.8244 86.8881 21.6652C86.8881 21.6652 86.8914 21.6652 86.8948 21.6652C87.2608 21.8719 87.7285 21.7431 87.9352 21.3771C88.0369 21.2009 88.0606 20.9942 88.0064 20.7976C87.9522 20.6011 87.8234 20.4384 87.6472 20.3367C87.6472 20.3367 87.6438 20.3367 87.6404 20.3367C87.6946 20.1164 87.7217 19.8928 87.7217 19.6691C87.7217 19.6691 87.7251 19.6691 87.7285 19.6691C87.925 19.6149 88.0877 19.4861 88.1894 19.3099C88.2911 19.1337 88.3148 18.9269 88.2606 18.7304C88.1487 18.3237 87.7285 18.0865 87.3218 18.1983C87.3218 18.1983 87.3184 18.1983 87.315 18.1983C87.1998 18.0052 87.0609 17.8256 86.9016 17.6663C86.9016 17.6663 86.9016 17.6629 86.9016 17.6595C87.0033 17.4833 87.027 17.2766 86.9728 17.08C86.9186 16.8834 86.7898 16.7208 86.6135 16.6191C86.2475 16.4124 85.7799 16.5412 85.5732 16.9072C85.5732 16.9072 85.5732 16.9106 85.5732 16.9139C85.3529 16.8597 85.1292 16.8326 84.9022 16.8326C84.9022 16.8326 84.9022 16.8292 84.9022 16.8258C84.7903 16.4192 84.3701 16.1819 83.9634 16.2938C83.7669 16.348 83.6042 16.4768 83.5025 16.653C83.4009 16.8292 83.3772 17.0359 83.4314 17.2325C83.4314 17.2325 83.4314 17.2359 83.4314 17.2393C83.2382 17.3545 83.0586 17.4934 82.8993 17.6527C82.8993 17.6527 82.8959 17.6527 82.8925 17.6527C82.5265 17.446 82.0589 17.5748 81.8522 17.9408C81.7505 18.117 81.7268 18.3237 81.781 18.5203C81.8352 18.7168 81.964 18.8795 82.1402 18.9812C82.1402 18.9812 82.1436 18.9812 82.147 18.9812C82.0928 19.2014 82.0657 19.4251 82.0657 19.6488C82.0657 19.6488 82.0623 19.6488 82.0589 19.6488C81.8623 19.703 81.6997 19.8318 81.598 20.008C81.4963 20.1842 81.4726 20.3909 81.5268 20.5875C81.6387 20.9942 82.0589 21.2314 82.4655 21.1196C82.4655 21.1196 82.4689 21.1196 82.4723 21.1196C82.5875 21.3127 82.7265 21.4923 82.8858 21.6516C82.8858 21.6516 82.8858 21.655 82.8858 21.6584C82.7841 21.8346 82.7604 22.0413 82.8146 22.2379C82.8688 22.4344 82.9976 22.5971 83.1738 22.6988C83.5398 22.9055 84.0075 22.7767 84.2142 22.4107C84.2142 22.4107 84.2142 22.4073 84.2142 22.4039C84.4345 22.4582 84.6582 22.4853 84.8852 22.4853C84.8852 22.4853 84.8852 22.4887 84.8852 22.4921C84.9801 22.8309 85.2851 23.0512 85.6206 23.0512ZM86.8745 21.4381C86.8474 21.4381 86.8237 21.4483 86.8033 21.4686C86.6237 21.6584 86.417 21.8177 86.1899 21.9464C86.1459 21.9702 86.1289 22.0244 86.1459 22.0684C86.156 22.0888 86.1628 22.1125 86.1696 22.1328C86.2103 22.2786 86.1899 22.4311 86.1154 22.5632C86.0408 22.6954 85.9188 22.7903 85.7731 22.8309C85.4715 22.9123 85.1597 22.7361 85.075 22.4344C85.0682 22.4107 85.0648 22.3904 85.0614 22.3667C85.0547 22.3192 85.0106 22.2786 84.9632 22.2819C84.7022 22.2887 84.4413 22.2582 84.1905 22.1871C84.143 22.1735 84.0922 22.1972 84.0719 22.2447C84.0617 22.265 84.0549 22.2853 84.0414 22.3057C83.8889 22.5768 83.5398 22.6717 83.2687 22.5192C83.1365 22.4446 83.0417 22.3226 83.001 22.1769C82.9603 22.0312 82.9807 21.8787 83.0552 21.7465C83.0654 21.7262 83.0789 21.7058 83.0925 21.6889C83.123 21.6482 83.1162 21.594 83.0823 21.5601C82.8925 21.3805 82.7299 21.1738 82.6045 20.9467C82.5808 20.9027 82.5265 20.8857 82.4825 20.9027C82.4622 20.9128 82.4384 20.9196 82.4181 20.9264C82.1165 21.0111 81.8047 20.8315 81.72 20.5299C81.6793 20.3842 81.6997 20.2317 81.7742 20.0995C81.8488 19.9673 81.9708 19.8724 82.1165 19.8318C82.1402 19.825 82.1605 19.8216 82.1843 19.8182C82.2317 19.8114 82.269 19.7674 82.269 19.7199C82.2622 19.459 82.2927 19.1981 82.3639 18.9473C82.3774 18.8998 82.3537 18.849 82.3063 18.8287C82.2859 18.8185 82.2656 18.8117 82.2453 18.7982C82.1131 18.7236 82.0182 18.6016 81.9775 18.4559C81.9369 18.3102 81.9572 18.1577 82.0318 18.0255C82.1843 17.7544 82.5333 17.6595 82.8044 17.812C82.8248 17.8222 82.8451 17.8357 82.862 17.8493C82.9027 17.8798 82.9569 17.873 82.9908 17.8391C83.1704 17.6493 83.3772 17.4901 83.6042 17.3613C83.6483 17.3376 83.6652 17.2833 83.6483 17.2393C83.6381 17.2189 83.6313 17.1952 83.6245 17.1749C83.5839 17.0292 83.6042 16.8767 83.6788 16.7445C83.7533 16.6123 83.8753 16.5174 84.021 16.4768C84.3227 16.3954 84.6344 16.5717 84.7192 16.8733C84.7259 16.897 84.7293 16.9173 84.7327 16.9411C84.7395 16.9885 84.7836 17.0258 84.831 17.0258C85.0919 17.019 85.3529 17.0495 85.6037 17.1207C85.6511 17.1342 85.7019 17.1105 85.7223 17.0631C85.7324 17.0427 85.7392 17.0224 85.7528 17.0021C85.9053 16.7309 86.2543 16.6361 86.5254 16.7886C86.6576 16.8631 86.7525 16.9851 86.7932 17.1308C86.8338 17.2766 86.8135 17.4291 86.7389 17.5612C86.7288 17.5816 86.7152 17.6019 86.7017 17.6188C86.6712 17.6595 86.6779 17.7137 86.7118 17.7476C86.9016 17.9272 87.0643 18.1339 87.1897 18.361C87.2134 18.4051 87.2676 18.422 87.3117 18.4051C87.332 18.3949 87.3557 18.3881 87.376 18.3813C87.6777 18.2966 87.9894 18.4762 88.0742 18.7778C88.1148 18.9236 88.0945 19.0761 88.0199 19.2082C87.9454 19.3404 87.8234 19.4353 87.6777 19.4759C87.6539 19.4827 87.6336 19.4861 87.6099 19.4895C87.5624 19.4963 87.5252 19.5403 87.5252 19.5878C87.5319 19.8487 87.5014 20.1097 87.4303 20.3604C87.4167 20.4079 87.4404 20.4587 87.4879 20.4757C87.5082 20.4858 87.5285 20.4926 87.5489 20.5062C87.681 20.5807 87.7759 20.7027 87.8166 20.8484C87.8573 20.9942 87.8369 21.1467 87.7624 21.2788C87.6099 21.5499 87.2608 21.6448 86.9897 21.4923C86.9694 21.4822 86.949 21.4686 86.9321 21.4551C86.9152 21.4415 86.8948 21.4347 86.8745 21.4347V21.4381ZM84.8954 20.9908C85.014 20.9908 85.1326 20.9738 85.2512 20.9433C85.5935 20.8484 85.8815 20.6248 86.0544 20.3164C86.2306 20.008 86.2747 19.6488 86.1798 19.3065C85.9832 18.5982 85.2478 18.1814 84.5395 18.3779C84.1973 18.4728 83.9092 18.6965 83.7364 19.0049C83.5602 19.3133 83.5161 19.6725 83.611 20.0148C83.7737 20.6044 84.3125 20.9908 84.8954 20.9908ZM84.8954 18.5237C85.3935 18.5237 85.851 18.8558 85.99 19.3573C86.0713 19.6488 86.034 19.9572 85.8815 20.2181C85.7324 20.4824 85.4884 20.6722 85.197 20.7536C84.5938 20.9196 83.9668 20.5638 83.7974 19.9606C83.716 19.6691 83.7533 19.3607 83.9058 19.0998C84.0549 18.8354 84.2989 18.6457 84.5904 18.5643C84.692 18.5372 84.7937 18.5237 84.892 18.5237H84.8954Z" fill="black"/>
<path d="M96.4208 45.9466C96.4479 45.9466 96.4716 45.9364 96.4885 45.9195C96.5055 45.9025 96.519 45.8754 96.519 45.8483V34.8005C96.519 34.7463 96.475 34.7023 96.4208 34.7023C96.3665 34.7023 96.3225 34.7463 96.3225 34.8005V45.75L74.5963 45.706C74.5421 45.706 74.498 45.7501 74.498 45.8043C74.498 45.8585 74.5421 45.9025 74.5963 45.9025L96.4208 45.9466Z" fill="black"/>
</g>
<defs>
<clipPath id="clip0_2855_23419">
<rect width="122" height="122" fill="white"/>
</clipPath>
</defs>
</svg>
