<svg width="40" height="40" viewBox="0 0 40 40" fill="none" xmlns="http://www.w3.org/2000/svg">
<path d="M30.0417 6.3064H13.6959C12.8322 6.3064 12.131 7.00745 12.131 7.87103V9.12031H9.95703C9.09328 9.12031 8.39209 9.82136 8.39209 10.6849V32.1313C8.39209 32.9901 9.09328 33.696 9.95703 33.696H26.5867C27.4505 33.696 28.1516 32.9925 28.1516 32.1313V30.8796H30.0417C30.9055 30.8796 31.6067 30.1786 31.6067 29.315V7.87103C31.6067 7.00745 30.9055 6.3064 30.0417 6.3064ZM27.038 32.1289C27.038 32.3763 26.8366 32.5777 26.5867 32.5777H9.95946C9.70955 32.5777 9.50817 32.3763 9.50817 32.1289V10.6825C9.50817 10.4327 9.70955 10.2313 9.95946 10.2313H26.5891C26.839 10.2313 27.0404 10.4327 27.0404 10.6825V32.1289H27.038ZM30.493 29.315C30.493 29.5649 30.2916 29.7662 30.0417 29.7662H28.1516V10.6825C28.1516 9.81894 27.4505 9.11788 26.5867 9.11788H13.2446V7.8686C13.2446 7.61875 13.446 7.41741 13.6959 7.41741H30.0417C30.2916 7.41741 30.493 7.61875 30.493 7.8686V29.3126V29.315Z" fill="#E119A0"/>
<path d="M18.1673 22.928C15.3383 22.9134 13.0406 20.6016 13.0479 17.7756C13.0551 14.9496 15.3577 12.6499 18.1867 12.6499C21.0206 12.6548 23.328 14.9593 23.328 17.7877C23.328 19.1534 22.7918 20.4415 21.8188 21.4167C20.8459 22.3919 19.56 22.928 18.1988 22.928H18.1697H18.1673ZM18.2231 19.5828C18.1916 19.5828 18.16 19.5828 18.1261 19.5828C17.1507 19.6192 16.384 20.0486 15.8478 20.8612L15.7726 20.9728L15.8818 21.0528C16.5393 21.5356 17.3618 21.8 18.1964 21.8C19.0311 21.8 19.8584 21.5331 20.4868 21.0528L20.5863 20.9776L20.5232 20.8709C20.0671 20.0898 19.1645 19.5828 18.2231 19.5828ZM18.194 15.1994C19.1766 15.1994 20.0258 15.9271 20.1665 16.895C20.2733 17.6179 20.1787 18.1807 19.873 18.6683L19.7905 18.7993L19.9288 18.8696C20.4795 19.151 20.926 19.5197 21.2948 19.9976L21.4112 20.1504L21.5228 19.9928C22.7627 18.2341 22.1658 15.9732 20.8702 14.8016C20.1399 14.1393 19.1912 13.7755 18.1988 13.7755C17.1313 13.7755 16.122 14.1903 15.3625 14.9447C13.8582 16.4341 13.8825 18.6634 14.7681 19.8788L14.853 19.9952L15.0981 19.8084C15.3019 19.6507 15.4936 19.5052 15.6901 19.3669C15.8818 19.2311 16.0759 19.1025 16.2797 18.9691L16.5757 18.775L16.5005 18.6562C16.1947 18.1758 16.105 17.6131 16.2166 16.8853C16.3646 15.915 17.1919 15.2091 18.1843 15.2018H18.1964L18.194 15.1994ZM18.1649 16.3201C17.6359 16.3201 17.2963 16.7349 17.2963 17.3753C17.2963 18.1055 17.6311 18.3093 17.8859 18.4014C17.9975 18.4403 18.1066 18.4621 18.211 18.4621C18.4318 18.4621 18.6331 18.3748 18.8078 18.2001C19.1718 17.8387 19.1233 17.3632 19.0286 16.9484C18.951 16.6161 18.7108 16.3977 18.3468 16.3371C18.2862 16.3274 18.2255 16.3225 18.1673 16.3225L18.1649 16.3201Z" fill="#00A3FF"/>
<path d="M21.2365 25.8341H14.3362C14.2901 25.8341 14.244 25.8341 14.1955 25.8292C13.8849 25.7953 13.6666 25.5697 13.6617 25.281C13.6568 24.9972 13.8776 24.7595 14.1833 24.7207C14.2294 24.7158 14.2755 24.7134 14.3216 24.7134H22.0323C22.4424 24.7207 22.6996 24.9341 22.7044 25.2689C22.7093 25.6061 22.4497 25.8268 22.042 25.8341C21.9426 25.8341 21.7412 25.8341 21.7412 25.8341H21.2341H21.2365Z" fill="#E119A0"/>
<path d="M15.821 28.5365C15.7652 28.5365 15.7021 28.5365 15.6439 28.5268C15.3527 28.4831 15.144 28.2527 15.144 27.9761C15.144 27.6996 15.3551 27.4691 15.6463 27.4255C15.7045 27.4158 15.77 27.4158 15.8258 27.4158H20.4915C20.9574 27.4182 21.234 27.6292 21.234 27.9761C21.234 28.1071 21.1806 28.5341 20.5085 28.5365H18.7713H15.821Z" fill="#E119A0"/>
<path d="M3.48108 9.28285C3.19236 9.27315 2.98612 9.04997 2.97885 8.73947C2.97157 8.281 2.97157 7.82252 2.97399 7.36405V6.84251V6.76973V6.22878C2.97157 5.8261 2.96914 5.42342 2.97399 5.02316C2.99583 3.83453 3.83047 2.99763 5.00478 2.98065C5.52643 2.97337 6.04808 2.97095 6.56973 2.97095C7.09138 2.97095 7.62516 2.97095 8.15408 2.9758H8.65632C8.85042 2.97822 9.01056 3.03159 9.12459 3.13348C9.22892 3.22566 9.2823 3.35422 9.2823 3.50462C9.2823 3.82482 9.03482 4.03102 8.65389 4.03344C8.21717 4.03344 7.78044 4.03344 7.34371 4.03344H5.17462C4.40792 4.03344 4.03427 4.40459 4.03185 5.16386C4.03185 5.54471 4.03185 6.53443 4.03185 6.53443C4.03185 7.25004 4.03185 7.96322 4.02942 8.67883C4.02942 9.03299 3.81348 9.28042 3.50777 9.28285H3.48108Z" fill="#00A3FF"/>
<path d="M36.4977 9.28288C36.1775 9.28288 35.9688 9.03788 35.9688 8.65703C35.9664 7.92929 35.9688 7.20155 35.9688 6.47139V5.21241C35.9688 4.38764 35.6194 4.03347 34.8042 4.03347H32.7685C32.2881 4.03347 31.8077 4.03347 31.3249 4.03347C30.9658 4.03347 30.728 3.82728 30.7183 3.51436C30.7159 3.37366 30.7693 3.23539 30.8663 3.13351C30.9537 3.04375 31.0677 2.99281 31.189 2.99281L31.8902 2.98553C32.3852 2.98068 32.8826 2.97583 33.3775 2.97583C34.1151 2.97583 34.7217 2.98553 35.2894 3.00979C36.175 3.04618 36.9636 3.86852 37.0097 4.8073C37.0315 5.25122 37.0266 5.70727 37.0194 6.14876C37.0194 6.3307 37.0145 6.5102 37.0145 6.68971V6.71154L37.0242 6.78432V7.34225C37.0242 7.78132 37.0266 8.22038 37.0242 8.65945C37.0218 8.96268 36.8811 9.28773 36.5001 9.28773L36.4977 9.28288Z" fill="#00A3FF"/>
<path d="M6.77582 37.0217H5.68157C5.4632 37.0241 5.24241 37.0217 5.02405 37.0217C3.83032 36.9998 2.99083 36.1532 2.9787 34.9622C2.969 33.9458 2.97142 32.9124 2.97385 31.913V31.3817C2.97385 31.2265 3.0151 30.7195 3.50035 30.717C3.89098 30.717 4.0317 31.0567 4.0317 31.3744C4.0317 32.027 4.0317 32.6795 4.0317 33.332V34.819C4.0317 35.6002 4.40292 35.9664 5.19389 35.9664C5.19389 35.9664 8.2146 35.9664 8.70956 35.9664C8.98615 35.9664 9.15356 36.078 9.24334 36.3133C9.33311 36.5535 9.28216 36.7427 9.09776 36.8785C8.99586 36.9537 8.82359 37.0071 8.67073 37.012C8.39171 37.0217 8.11269 37.0241 7.83367 37.0241L6.77824 37.0192L6.77582 37.0217Z" fill="#00A3FF"/>
<path d="M33.4236 37.0289C32.9019 37.0289 32.3803 37.0289 31.8586 37.0241H31.3515C31.0482 37.0216 30.7231 36.8834 30.7183 36.5025C30.7183 36.3594 30.7619 36.2405 30.8517 36.1484C30.9657 36.0319 31.1501 35.9689 31.3709 35.9689C31.7446 35.9689 33.9161 35.9689 33.9161 35.9689H34.8502C35.5902 35.9664 35.9663 35.588 35.9663 34.8457C35.9663 34.1956 35.9663 33.5479 35.9663 32.8978V31.2944C35.9663 31.0178 36.0779 30.848 36.3132 30.7583C36.3909 30.7292 36.4637 30.7146 36.5316 30.7146C36.6748 30.7146 36.7888 30.7752 36.8786 30.899C36.9586 31.0081 37.0096 31.1876 37.0169 31.3623C37.0338 31.8111 37.029 32.2647 37.0266 32.7037C37.0266 32.876 37.0266 33.0458 37.0266 33.218C37.0266 33.4024 37.0266 33.5892 37.0266 33.7735C37.0266 34.1713 37.029 34.5716 37.0217 34.9694C36.9999 36.1629 36.1555 37.0047 34.9667 37.0192C34.4523 37.0241 33.9355 37.0265 33.4211 37.0265L33.4236 37.0289Z" fill="#00A3FF"/>
</svg>
