<svg width="40" height="40" viewBox="0 0 40 40" fill="none" xmlns="http://www.w3.org/2000/svg">
<path d="M35.1558 6.85599V32.6785C34.5727 34.2244 34.0125 34.6042 32.3152 34.6042C24.0809 34.6042 15.8465 34.6042 7.61425 34.6042C7.48721 34.6042 7.35809 34.6062 7.23105 34.6C5.94196 34.5274 5.00273 33.5666 5.00273 32.2925C4.99857 23.9402 4.99857 15.5901 5.0069 7.2378C5.0069 6.95974 5.06313 6.66923 5.15684 6.40777C5.49421 5.46982 6.34181 4.92822 7.43722 4.92822C15.8673 4.92822 24.2975 4.92822 32.7276 4.92822C32.7963 4.92822 32.865 4.92822 32.9337 4.93237C34.0208 4.99463 34.8372 5.67111 35.0996 6.72318C35.11 6.76883 35.1371 6.81033 35.1537 6.85391L35.1558 6.85599ZM5.91697 11.4357C5.91697 11.5644 5.91697 11.6598 5.91697 11.7574C5.91697 18.5554 5.91697 25.3513 5.91697 32.1493C5.91697 33.1537 6.45427 33.6828 7.4643 33.6828C15.8757 33.6828 24.287 33.6828 32.7005 33.6828C33.7064 33.6828 34.2416 33.1516 34.2416 32.141C34.2416 25.343 34.2416 18.5471 34.2416 11.7491C34.2416 11.6474 34.2312 11.5436 34.2249 11.4357H5.91697ZM34.2416 10.4895C34.2416 9.40835 34.2478 8.36251 34.2416 7.31666C34.2353 6.38909 33.6814 5.85164 32.7442 5.85164C24.3037 5.85164 15.8611 5.85164 7.42056 5.85164C6.47092 5.85164 5.92531 6.39324 5.92114 7.34363C5.91698 8.30233 5.92114 9.26102 5.92114 10.2197C5.92114 10.3048 5.93155 10.3899 5.93988 10.4895H34.2457H34.2416Z" fill="#E119A0"/>
<path d="M13.0121 23.2181C11.5606 23.2181 10.1091 23.2181 8.65753 23.2181C8.15564 23.2181 8.00987 23.0728 8.00154 22.5769C7.98905 21.8983 8.04944 21.2281 8.29726 20.591C8.63671 19.7195 9.20525 19.099 10.1736 18.9143C10.5776 18.8376 10.9213 18.6363 11.2045 18.3292C11.3503 18.1714 11.3773 18.0552 11.2232 17.8623C10.4985 16.943 10.1882 15.8909 10.3548 14.733C10.5589 13.3136 11.7938 12.4297 13.3474 12.5459C14.6448 12.6434 15.7028 13.8034 15.7069 15.1418C15.7069 16.1711 15.4216 17.109 14.7635 17.9141C14.6532 18.049 14.6573 18.1382 14.7594 18.2669C15.0259 18.6031 15.3716 18.8334 15.7819 18.9123C17.0377 19.153 17.6333 20.0058 17.8873 21.1554C17.9915 21.6265 18.0019 22.1224 18.0206 22.6101C18.0373 23.0645 17.8644 23.216 17.3959 23.2181C16.5129 23.2202 15.6299 23.2181 14.7469 23.2181C14.1679 23.2181 13.589 23.2181 13.01 23.2181H13.0121ZM8.8887 22.2801H17.0877C17.0814 21.6389 16.9835 21.0392 16.6482 20.4997C16.4275 20.1428 16.1109 19.9208 15.6924 19.8274C15.4279 19.7672 15.1634 19.6738 14.9218 19.5514C14.7615 19.4705 14.6615 19.4933 14.5303 19.5867C14.1492 19.8606 13.7535 20.1179 13.3745 20.3959C13.1183 20.5827 12.883 20.5931 12.6227 20.4042C12.2437 20.1262 11.8459 19.873 11.4669 19.595C11.3232 19.4891 11.2128 19.4725 11.0462 19.5597C10.8213 19.6759 10.5797 19.7713 10.3319 19.8211C9.81751 19.927 9.47182 20.2258 9.24065 20.674C8.9845 21.17 8.9012 21.7053 8.88662 22.2801H8.8887ZM14.7781 15.2559C14.7948 14.2682 14.1138 13.5025 13.1621 13.4382C12.125 13.3676 11.2961 14.0067 11.2191 15.0049C11.1483 15.9137 11.394 16.75 12.0229 17.4389C12.1645 17.5946 12.3478 17.7274 12.5352 17.8228C13.0475 18.0822 13.6119 17.8955 14.0721 17.3227C14.5553 16.721 14.7656 16.0216 14.7802 15.2559H14.7781ZM11.9688 18.7525V18.8438C12.2853 19.0554 12.5977 19.2712 12.9163 19.4746C12.9642 19.5057 13.0684 19.4974 13.1183 19.4642C13.4182 19.265 13.7098 19.0534 14.0034 18.8459C14.0034 18.8147 14.0034 18.7836 14.0034 18.7545C13.916 18.74 13.816 18.6902 13.7452 18.7193C13.237 18.9185 12.7372 18.9185 12.2291 18.713C12.1583 18.684 12.0562 18.7379 11.9688 18.7525Z" fill="#00A3FF"/>
<path d="M25.9489 16.0799C24.0746 16.0799 22.2024 16.0799 20.3281 16.0799C20.0241 16.0799 19.8262 15.9015 19.8221 15.6317C19.8179 15.3599 20.022 15.1565 20.3094 15.1565C24.008 15.1606 27.7045 15.1669 31.4031 15.171C31.8779 15.171 32.0861 15.3038 32.0924 15.613C32.0986 15.9326 31.8821 16.0758 31.3948 16.0758C29.5809 16.0758 27.7649 16.0758 25.951 16.0758C25.951 16.0758 25.951 16.0799 25.951 16.082L25.9489 16.0799Z" fill="#00A3FF"/>
<path d="M25.9489 8.5804C24.0746 8.5804 22.2024 8.5804 20.3281 8.5804C20.0241 8.5804 19.8262 8.40194 19.8221 8.13218C19.8179 7.86034 20.022 7.65698 20.3094 7.65698C24.008 7.66113 27.7045 7.66736 31.4031 7.67151C31.8779 7.67151 32.0861 7.80431 32.0924 8.1135C32.0986 8.43307 31.8821 8.57625 31.3948 8.57625C29.5809 8.57625 27.7649 8.57625 25.951 8.57625C25.951 8.57625 25.951 8.5804 25.951 8.58247L25.9489 8.5804Z" fill="#E119A0"/>
<path d="M25.9449 19.8358C24.0707 19.8358 22.1985 19.8358 20.3242 19.8358C20.0222 19.8358 19.8244 19.6552 19.8223 19.3834C19.8202 19.1116 20.0243 18.9124 20.3138 18.9124C22.5608 18.9165 24.8058 18.9227 27.0528 18.9269C28.5544 18.929 30.0538 18.9269 31.5553 18.9269C31.9322 18.9269 32.1676 19.178 32.078 19.4872C32.0051 19.7362 31.8302 19.8337 31.5678 19.8337C30.1058 19.8275 28.6439 19.8316 27.182 19.8316C26.7696 19.8316 26.3573 19.8316 25.9449 19.8316C25.9449 19.8316 25.9449 19.8358 25.9449 19.8378V19.8358Z" fill="#00A3FF"/>
<path d="M25.9511 23.5916C24.0768 23.5916 22.2046 23.5916 20.3303 23.5916C20.0138 23.5916 19.8117 23.4028 19.8222 23.1164C19.8305 22.8446 20.0367 22.6682 20.3345 22.6682C23.1001 22.6724 25.8657 22.6765 28.6334 22.6807C29.6247 22.6807 30.6159 22.6827 31.6052 22.6807C31.8446 22.6807 32.0342 22.7844 32.0591 23.0065C32.0779 23.1642 31.9967 23.3634 31.8946 23.4941C31.8322 23.575 31.6447 23.5833 31.5135 23.5833C29.6601 23.5896 27.8045 23.5875 25.9511 23.5875C25.9511 23.5875 25.9511 23.5916 25.9511 23.5937V23.5916Z" fill="#00A3FF"/>
<path d="M13.7579 28.8125C15.4739 28.8125 30.1037 28.8125 31.8197 28.8125C32.1259 28.8125 32.3445 29.0138 32.3383 29.2898C32.332 29.5554 32.1279 29.7442 31.8281 29.7442C28.3835 29.7442 12.0294 29.7442 8.58485 29.7401C8.26414 29.7401 8.06005 29.5492 8.0663 29.2711C8.07255 28.9951 8.27247 28.8229 8.60567 28.8229C10.3238 28.8229 12.0398 28.8229 13.7579 28.8229C13.7579 28.8208 13.7579 28.8187 13.7579 28.8146V28.8125Z" fill="#E119A0"/>
<path d="M13.5995 26.8827C11.9314 26.8827 10.2633 26.8681 8.59516 26.893C8.23072 26.8993 7.91209 26.5278 8.137 26.2124C8.22238 26.0941 8.42231 25.9945 8.57017 25.9924C9.54063 25.9738 10.5132 25.9821 11.4836 25.9821C13.8786 25.9821 29.1831 25.9821 31.5781 25.9821C31.9508 25.9821 32.182 26.2373 32.0904 26.5506C32.0154 26.8017 31.8321 26.8868 31.5718 26.8847C29.885 26.8785 15.2843 26.8806 13.5974 26.8806L13.5995 26.8827Z" fill="#E119A0"/>
</svg>
