<svg width="40" height="40" viewBox="0 0 40 40" fill="none" xmlns="http://www.w3.org/2000/svg">
<path d="M7.63096 35.3877C6.60478 35.3877 5.76904 34.5549 5.76904 33.5324V5.85527C5.76904 4.83275 6.60478 4 7.63096 4H30.0569C31.0831 4 31.9188 4.83275 31.9188 5.85527V12.4838C31.9188 12.7606 31.6925 12.9861 31.4147 12.9861C31.1369 12.9861 30.9106 12.7606 30.9106 12.4838V5.85527C30.9106 5.38643 30.5274 5.00466 30.0569 5.00466H7.63096C7.16044 5.00466 6.7773 5.38643 6.7773 5.85527V33.5324C6.7773 34.0013 7.16044 34.383 7.63096 34.383H30.0569C30.5274 34.383 30.9106 34.0013 30.9106 33.5324V29.0517C30.9106 28.7748 31.1369 28.5493 31.4147 28.5493C31.6925 28.5493 31.9188 28.7748 31.9188 29.0517V33.5324C31.9188 34.5549 31.0831 35.3877 30.0569 35.3877H7.63096Z" fill="#E119A0"/>
<path d="M24.6617 32.1081C24.5564 32.1081 24.4646 32.0657 24.3951 31.9875C24.301 31.8826 24.2562 31.7174 24.2719 31.5366C24.3212 30.9963 24.3839 30.4381 24.4399 29.9447L24.5609 28.8508C24.6304 28.21 24.6998 27.5626 24.785 26.9308C24.8096 26.7522 24.8634 26.4932 24.9889 26.2744C27.263 22.3317 29.7568 18.0228 32.6135 13.1022C33.1199 12.2293 33.9041 11.7471 34.8228 11.7471C35.2014 11.7471 35.589 11.8297 35.9766 11.9949C37.805 12.7741 37.3792 14.4976 37.3591 14.569C37.0409 15.5447 36.492 16.4355 35.9632 17.2972C35.7638 17.621 35.5577 17.9536 35.3672 18.2885C33.5411 21.4833 31.6591 24.7161 29.8352 27.8417L29.3356 28.699C29.2146 28.9088 29.0376 29.1075 28.8359 29.2549C27.6439 30.1479 26.4273 31.0432 25.2129 31.9116C25.0516 32.0277 24.8387 32.1036 24.6729 32.1036H24.6595L24.6617 32.1081ZM25.3989 30.5297L27.8254 28.7481L25.7327 27.5447L25.3989 30.5297ZM26.0083 26.5267L28.5715 28.0002L34.9572 16.978L32.3962 15.5045L26.0083 26.5267ZM34.8519 12.7361C34.3545 12.7361 33.8907 12.9951 33.6061 13.4304C33.4515 13.6671 33.3148 13.9082 33.1692 14.1649L32.9048 14.6249L35.468 16.0961L35.7347 15.6384C35.8848 15.3817 36.0282 15.1383 36.1559 14.8861C36.5233 14.1627 36.2903 13.3434 35.6025 12.9415C35.3717 12.8053 35.1118 12.7339 34.8519 12.7339V12.7361Z" fill="#00A3FF"/>
<path d="M18.8028 18.5118C15.7175 18.4962 13.2125 15.9845 13.2193 12.9147C13.226 9.84273 15.7399 7.34448 18.8207 7.34448C21.9105 7.34895 24.4244 9.85389 24.4266 12.9259C24.4266 14.4106 23.8418 15.8104 22.7798 16.8686C21.7178 17.9269 20.3152 18.5096 18.8297 18.5096H18.8005L18.8028 18.5118ZM18.861 14.8013C18.8229 14.8013 18.7871 14.8013 18.7512 14.8013C17.6175 14.8415 16.7302 15.3438 16.1118 16.2904L15.9864 16.4846L16.1723 16.623C16.9274 17.1812 17.8729 17.4893 18.8341 17.4893C19.7953 17.4893 20.7498 17.1812 21.4713 16.6208L21.6393 16.4891L21.534 16.3038C21.012 15.3884 19.9634 14.799 18.8655 14.799L18.861 14.8013ZM18.8297 10.1687C19.8671 10.1687 20.761 10.9345 20.9112 11.9503C21.0254 12.7317 20.9224 13.3389 20.5863 13.8591L20.4384 14.0891L20.6826 14.2119C21.301 14.5222 21.7984 14.933 22.2084 15.4688L22.4101 15.7345L22.605 15.4643C24.0502 13.4573 23.3736 10.8719 21.8836 9.53017C21.0478 8.77779 19.9656 8.36253 18.8341 8.36253C17.6153 8.36253 16.4659 8.83361 15.5965 9.69091C13.8668 11.3988 13.9093 13.9484 14.94 15.3326L15.0901 15.5313L15.4531 15.2545C15.6637 15.0915 15.8833 14.9241 16.1074 14.7655C16.3269 14.6115 16.5465 14.4664 16.7795 14.3123L17.1828 14.0467L17.0506 13.8413C16.7168 13.3278 16.6182 12.7227 16.7392 11.9369C16.896 10.9188 17.7676 10.1731 18.814 10.1665H18.8274L18.8297 10.1687ZM18.7983 11.1823C18.153 11.1823 17.7183 11.698 17.7161 12.466C17.7161 13.1291 17.9558 13.5354 18.4465 13.7095C18.581 13.7587 18.7154 13.7832 18.8454 13.7832C19.1187 13.7832 19.3764 13.6716 19.5915 13.4595C20.0351 13.0174 19.9791 12.4571 19.8671 11.9659C19.7707 11.5506 19.4682 11.2783 19.0156 11.2024C18.9417 11.189 18.8678 11.1845 18.7983 11.1845V11.1823Z" fill="#00A3FF"/>
<path d="M21.1597 21.7312H13.4835C13.4365 21.7312 13.3894 21.7312 13.3424 21.7267C13.0511 21.6932 12.8517 21.4945 12.8494 21.2288C12.845 20.9721 13.0488 20.7578 13.3312 20.722C13.3782 20.7153 13.423 20.7153 13.4701 20.7153H22.0492C22.4414 20.722 22.6788 20.9096 22.6833 21.2177C22.6878 21.5883 22.3652 21.7245 22.0582 21.7289C21.9462 21.7289 21.8364 21.7289 21.7244 21.7289H21.1597V21.7312Z" fill="#E119A0"/>
<path d="M13.4901 25.1982C13.4341 25.1982 13.3714 25.1982 13.3109 25.1892C13.0442 25.149 12.8516 24.9392 12.8516 24.6914C12.8516 24.4435 13.0465 24.2337 13.3131 24.1935C13.3736 24.1846 13.4363 24.1846 13.4924 24.1846H21.9729C22.2373 24.1846 22.6854 24.2538 22.6854 24.6914C22.6854 25.149 22.2015 25.1982 21.9931 25.1982H20.3553H13.4924H13.4901Z" fill="#E119A0"/>
<path d="M13.4902 28.6655C13.4342 28.6655 13.3692 28.6655 13.3087 28.6544C13.0421 28.6142 12.8494 28.4043 12.8494 28.1565C12.8494 27.9064 13.0443 27.6988 13.3109 27.6586C13.3714 27.6497 13.4386 27.6475 13.4947 27.6475H21.9707C22.2351 27.6475 22.6833 27.7167 22.681 28.1565C22.681 28.6142 22.1971 28.6633 21.9887 28.6633H20.0551H13.4879L13.4902 28.6655Z" fill="#E119A0"/>
<path d="M19.5688 32.135C19.365 32.135 19.1611 32.135 18.9549 32.135C18.6502 32.135 18.3231 32.001 18.3186 31.6326C18.3186 31.4987 18.3612 31.3848 18.4486 31.2955C18.5583 31.1839 18.7331 31.1214 18.9415 31.1214C19.4501 31.1214 19.961 31.1191 20.4696 31.1191C20.9782 31.1191 21.5204 31.1191 22.0447 31.1214C22.3494 31.1214 22.6765 31.2553 22.681 31.6237C22.681 31.7577 22.6407 31.8693 22.5555 31.9564C22.4413 32.0724 22.2575 32.135 22.0268 32.1372C21.8273 32.1372 21.6279 32.1372 21.4285 32.1372H20.5054H19.5666L19.5688 32.135Z" fill="#E119A0"/>
<path d="M10.7004 21.7266C10.4383 21.7266 10.1985 21.4877 10.1963 21.2265C10.1963 21.1015 10.2501 20.9742 10.3486 20.876C10.4472 20.7778 10.5727 20.722 10.6982 20.7197C10.967 20.7197 11.1978 20.9497 11.1978 21.2198C11.1978 21.4877 10.967 21.7244 10.7027 21.7266H10.6982H10.7004Z" fill="#E119A0"/>
<path d="M10.7005 25.1939C10.4428 25.1939 10.2031 24.9572 10.1964 24.6983C10.1941 24.5755 10.2479 24.4482 10.342 24.3478C10.4383 24.2473 10.5661 24.1892 10.6915 24.187C10.9582 24.187 11.1934 24.4125 11.1979 24.6804C11.2024 24.9483 10.9738 25.1872 10.7094 25.1939H10.7005Z" fill="#E119A0"/>
<path d="M10.7004 28.6609C10.436 28.6609 10.1963 28.4221 10.1963 28.1586C10.1963 28.0336 10.2523 27.9063 10.3486 27.8081C10.445 27.7099 10.5727 27.6541 10.7004 27.6541C10.9693 27.6541 11.1978 27.884 11.1978 28.1564C11.1978 28.4243 10.9648 28.6587 10.7004 28.6609Z" fill="#E119A0"/>
</svg>
