<svg width="40" height="40" viewBox="0 0 40 40" fill="none" xmlns="http://www.w3.org/2000/svg">
<path d="M20.4763 19.1029C20.3596 19.1029 20.2484 19.052 20.1712 18.9635C19.2972 17.9407 18.0898 17.2381 16.7731 16.9838C16.6676 16.9631 16.5772 16.9028 16.5169 16.8143C16.4567 16.7257 16.4341 16.6184 16.4548 16.5129C16.4906 16.3245 16.6563 16.187 16.8485 16.187C16.8729 16.187 16.8993 16.1889 16.9238 16.1945C18.4194 16.4846 19.7888 17.2814 20.7796 18.4398C20.9228 18.6075 20.9039 18.8618 20.7363 19.0049C20.6647 19.0671 20.5705 19.101 20.4763 19.101V19.1029Z" fill="#00A3FF"/>
<path d="M23.2623 17.1515C23.1248 17.1515 22.9985 17.0818 22.9251 16.9669C22.2074 16.01 21.1752 15.2735 20.0224 14.8949C19.8114 14.8252 19.6965 14.5992 19.7662 14.3882C19.8209 14.2225 19.9734 14.1113 20.1467 14.1113C20.19 14.1113 20.2315 14.1189 20.271 14.132C21.5858 14.5634 22.7631 15.4073 23.5825 16.5092C23.6352 16.5789 23.6616 16.6618 23.6616 16.7484C23.6616 16.9707 23.4808 17.1496 23.2604 17.1496L23.2623 17.1515Z" fill="#00A3FF"/>
<path d="M5.60497 23.3619C5.45051 23.3619 5.31112 23.2752 5.24331 23.1359C5.14724 22.9381 5.22824 22.6989 5.42414 22.6009C5.43167 22.5971 5.43921 22.5915 5.44674 22.5877C9.29501 20.5854 12.9549 18.5115 16.6374 16.2455C17.7205 15.5787 18.7961 14.9025 19.93 14.1754C23.2358 12.0544 26.5755 9.79028 30.5726 7.04394C30.6103 7.01757 30.6498 6.99873 30.6931 6.98743C31.0887 6.88006 31.5069 6.82544 31.9401 6.82544C32.9686 6.82544 34.0366 7.13812 34.9464 7.7051C36.4684 8.65445 37.5138 10.2461 37.8849 12.1882C37.9188 12.3633 37.8302 12.5423 37.6701 12.6233C37.0165 12.951 36.5173 13.2016 36.054 13.4389C32.4656 15.2717 28.8396 17.2702 25.2796 19.3761C25.2174 19.4119 25.1477 19.4326 25.0761 19.4326C24.9349 19.4326 24.803 19.3573 24.7314 19.2348C24.6184 19.0446 24.6824 18.7978 24.8727 18.6848C28.446 16.5714 32.0851 14.5653 35.6904 12.725C36.0879 12.5216 36.5098 12.3087 37.0335 12.045C36.6605 10.4627 35.7695 9.16492 34.5207 8.38697C33.7352 7.89723 32.8198 7.62787 31.9439 7.62787C31.6067 7.62787 31.2771 7.66743 30.9681 7.74654C26.9974 10.4759 23.6709 12.7288 20.3614 14.8516C19.2218 15.5825 18.1406 16.2606 17.0575 16.9293C13.3656 19.2009 9.69246 21.2824 5.82912 23.2922C5.81594 23.2997 5.7971 23.3092 5.77826 23.3186C5.72364 23.3449 5.66336 23.36 5.60309 23.36L5.60497 23.3619Z" fill="#E119A0"/>
<path d="M7.59041 33.3828C7.07994 33.3828 6.55252 33.2905 6.02322 33.1078C4.16407 32.4673 2.67977 30.8304 2.24276 28.9355C1.79822 26.9954 2.45185 24.8838 3.90601 23.5596C4.36185 23.1452 4.89116 22.8137 5.48262 22.5707C6.14754 22.2994 6.87651 22.1563 7.59229 22.1563C8.23273 22.1563 8.84868 22.2655 9.42319 22.4822C9.64169 22.565 9.85454 22.663 10.0599 22.776C11.4085 23.5182 12.4031 24.88 12.7422 26.434C15.6486 24.4374 18.6022 22.5104 21.5256 20.7059C21.5406 20.6946 21.5651 20.6795 21.5877 20.6682C21.6423 20.6418 21.7007 20.6287 21.761 20.6287C21.9136 20.6287 22.0567 20.7172 22.1227 20.8566C22.2093 21.0355 22.149 21.2521 21.9871 21.3633C21.9814 21.367 21.972 21.3746 21.9626 21.3802C18.8677 23.2884 15.7428 25.334 12.6725 27.4568C12.6047 27.5039 12.5255 27.5284 12.4445 27.5284C12.3862 27.5284 12.3296 27.5152 12.275 27.4908C12.1469 27.4305 12.0584 27.3062 12.0452 27.1649C11.8983 25.6165 10.9885 24.2038 9.67183 23.4786C9.50042 23.3844 9.31959 23.3015 9.13876 23.2318C8.65466 23.0491 8.13478 22.9568 7.59229 22.9568C6.98011 22.9568 6.35663 23.0793 5.78588 23.3128C5.28107 23.5182 4.83088 23.8007 4.44662 24.1511C3.22225 25.2681 2.64963 27.1178 3.02447 28.7547C3.39932 30.3859 4.67831 31.7968 6.28316 32.3487C6.72959 32.5012 7.16847 32.5785 7.59041 32.5785C8.01234 32.5785 8.37965 32.505 8.71494 32.3581C8.8807 32.2865 9.03893 32.1942 9.18585 32.0849C9.21599 32.0623 9.24801 32.0397 9.27626 32.0153C9.99393 31.4332 10.446 30.416 10.4573 29.3593C10.4611 28.9826 10.414 28.6059 10.316 28.2404C10.1484 27.6057 9.83759 27.0406 9.41754 26.6054C9.27626 26.4604 9.12369 26.3323 8.96546 26.2231C8.87693 26.1609 8.81854 26.0705 8.7997 25.965C8.78087 25.8595 8.80347 25.7522 8.86563 25.6655C8.94098 25.5581 9.06341 25.4922 9.19527 25.4922C9.27815 25.4922 9.35538 25.5167 9.42319 25.5638C9.62285 25.7032 9.81498 25.8652 9.99205 26.046C10.51 26.5791 10.8905 27.2666 11.0921 28.0351C11.2089 28.4702 11.2654 28.9186 11.2597 29.3687C11.2465 30.659 10.6796 31.9116 9.7792 32.6406C9.74152 32.6708 9.70197 32.7009 9.66618 32.7273C9.47028 32.8742 9.25743 32.9966 9.03516 33.0946C8.60004 33.2848 8.11406 33.3809 7.59041 33.3809V33.3828Z" fill="#E119A0"/>
<path d="M7.04615 31.0659C6.5451 31.0659 6.02522 30.9095 5.54301 30.6157C4.59554 30.0393 3.71023 28.8394 4.07 27.1931C4.32806 26.0008 5.27741 25.1437 6.60538 24.9045C6.80316 24.8687 7.00848 24.8499 7.21568 24.8499C7.9842 24.8499 8.76968 25.1041 9.42707 25.5675C9.54008 25.6466 9.60413 25.7766 9.59659 25.9141C9.59094 26.0516 9.51371 26.1759 9.39505 26.2437L7.4775 27.3363C8.06896 27.6697 8.52292 28.2253 8.70563 28.8507C8.90342 29.525 8.75838 30.1787 8.31949 30.5968L8.26298 30.6496L8.18575 30.5949L8.24414 30.6665C7.92957 30.9265 7.51706 31.0659 7.04992 31.0659H7.04615ZM7.21568 25.6523C7.05745 25.6523 6.89922 25.6655 6.74665 25.6937C5.74832 25.8746 5.04007 26.498 4.85171 27.3626C4.58423 28.5964 5.24728 29.4968 5.95741 29.9281C6.30965 30.1429 6.69768 30.2597 7.04615 30.2597C7.32116 30.2597 7.55473 30.1881 7.72049 30.0506L7.7657 30.0091C7.97855 29.8057 8.04071 29.4553 7.92957 29.0749C7.79019 28.5964 7.31739 27.9767 6.44715 27.8072C6.28328 27.7751 6.15519 27.6433 6.12882 27.4794C6.10245 27.3137 6.18156 27.1479 6.3266 27.065L8.37788 25.8953C8.00304 25.7352 7.60371 25.6504 7.21379 25.6504L7.21568 25.6523Z" fill="#E119A0"/>
<path d="M5.64086 26.0762C5.50901 26.0762 5.38657 26.0122 5.31123 25.9029C5.18502 25.7202 5.23023 25.4697 5.41294 25.3454C6.50545 24.5882 8.10278 23.6765 9.38554 22.9437L9.66808 22.7817C9.72836 22.7478 9.79805 22.729 9.86586 22.729C10.009 22.729 10.1428 22.8062 10.2143 22.9306C10.2671 23.0229 10.2821 23.1321 10.2539 23.2357C10.2256 23.3393 10.1597 23.426 10.0655 23.4787L9.78298 23.6407C8.50776 24.3697 6.92927 25.27 5.86878 26.0065C5.80097 26.0536 5.72186 26.0781 5.64086 26.0781V26.0762Z" fill="#E119A0"/>
<path d="M7.96152 30.7777C7.85415 30.7777 7.75432 30.7363 7.67709 30.661C7.60174 30.5856 7.5603 30.4839 7.5603 30.3765C7.5603 30.2692 7.60174 30.1693 7.67709 30.0921C7.69216 30.077 7.70911 30.062 7.72418 30.0488L7.76562 30.0111C8.56051 29.301 9.46654 28.5626 10.4611 27.8167C10.5308 27.7639 10.6137 27.7375 10.7022 27.7375C10.8284 27.7375 10.949 27.7978 11.0243 27.8977C11.0884 27.9843 11.1147 28.0898 11.0997 28.1953C11.0846 28.3008 11.0281 28.3949 10.9433 28.459C9.96759 29.1898 9.0804 29.9113 8.30434 30.6063L8.25725 30.6497L8.22899 30.6741C8.1593 30.7382 8.06323 30.7777 7.96152 30.7777Z" fill="#E119A0"/>
<path d="M9.38177 32.8442C9.25745 32.8442 9.14067 32.7877 9.06532 32.6898C8.9297 32.5146 8.96172 32.2622 9.13502 32.1266L9.17834 32.0927C9.21413 32.0663 9.24615 32.0418 9.27629 32.0173C13.198 28.996 17.3194 26.1724 21.5275 23.6238C21.5896 23.5861 21.6612 23.5654 21.7347 23.5654C21.8759 23.5654 22.004 23.637 22.0775 23.7576C22.1924 23.9478 22.1302 24.1946 21.9419 24.3095C17.7602 26.843 13.6652 29.6477 9.76792 32.6483C9.73778 32.6728 9.70011 32.7011 9.66244 32.7293L9.62476 32.7595C9.55318 32.8141 9.46842 32.8442 9.37801 32.8442H9.38177Z" fill="#E119A0"/>
<path d="M26.9731 21.3539C26.8261 21.3539 26.6905 21.2729 26.6208 21.1448C26.57 21.0506 26.5587 20.9414 26.5888 20.8397C26.6189 20.738 26.6867 20.6513 26.7809 20.6005C29.5292 19.103 32.3508 17.6959 35.1688 16.4169C35.7433 15.3865 35.8638 14.2243 35.4965 13.2204C35.4588 13.1205 35.4645 13.0113 35.5097 12.9133C35.5549 12.8154 35.6359 12.7419 35.7357 12.7061C35.7809 12.6892 35.8262 12.6816 35.8732 12.6816C36.0409 12.6816 36.1935 12.7871 36.25 12.9453C36.7133 14.2149 36.5476 15.6691 35.796 16.933C35.7546 17.0046 35.6924 17.0592 35.6171 17.0931C32.7765 18.3796 29.9323 19.7961 27.1633 21.3049C27.1049 21.337 27.039 21.3539 26.9712 21.3539H26.9731Z" fill="#E119A0"/>
<path d="M22.7802 21.6929C22.703 21.6929 22.6276 21.6891 22.5504 21.6835C22.2961 21.6608 22.0437 21.6006 21.7988 21.5026C21.7837 21.497 21.7649 21.4894 21.7461 21.48C20.9493 21.1428 20.3277 20.4233 20.1261 19.6058C20.0677 19.3666 20.0451 19.1198 20.0583 18.8731C20.0979 17.967 20.582 17.1137 21.326 16.6447C21.7046 16.4055 22.1624 16.2793 22.6464 16.2793C22.8103 16.2793 22.9761 16.2944 23.1418 16.3226C23.155 16.3245 23.1682 16.3283 23.1814 16.332C23.4828 16.3867 23.7917 16.494 24.0686 16.6428C24.8541 17.0667 25.406 17.9162 25.4738 18.809V18.8279C25.4945 19.1029 25.4681 19.3798 25.3966 19.651C25.308 20.0164 25.1329 20.3724 24.8936 20.6776C24.7411 20.8735 24.5602 21.0468 24.3606 21.1918C23.9725 21.4706 23.4903 21.6458 23.0025 21.6853C22.9271 21.691 22.8536 21.6948 22.7783 21.6948L22.7802 21.6929ZM22.6408 17.0798C22.3112 17.0798 22.0135 17.1627 21.7574 17.3228C21.2337 17.6525 20.8909 18.2609 20.8626 18.9107C20.8532 19.0821 20.8683 19.2517 20.9079 19.4156C21.0491 19.9976 21.4993 20.5081 22.0814 20.7492L22.0983 20.7567C22.2678 20.8245 22.4449 20.8678 22.6201 20.8829C22.6728 20.8867 22.7274 20.8904 22.7802 20.8904C23.1795 20.8904 23.5751 20.7642 23.8915 20.5363C24.029 20.4365 24.1534 20.3159 24.2626 20.1784C24.4321 19.9637 24.5546 19.7113 24.6186 19.4513C24.6695 19.2592 24.6883 19.0708 24.6751 18.8863C24.6751 18.8731 24.6751 18.8674 24.6751 18.8599C24.628 18.2402 24.2419 17.6431 23.69 17.3473C23.479 17.2343 23.2436 17.1533 23.0081 17.1137C22.9949 17.1119 22.9817 17.1081 22.9686 17.1043C22.865 17.0874 22.75 17.078 22.6408 17.078V17.0798Z" fill="#00A3FF"/>
<path d="M24.756 28.0201C24.6449 28.0201 24.5375 27.973 24.4603 27.8901C24.0063 27.3985 23.6108 26.9031 23.251 26.4378C22.8027 27.018 22.3864 27.4776 21.9494 27.8769C21.8759 27.9447 21.7799 27.9805 21.6801 27.9805C21.6235 27.9805 21.567 27.9692 21.5162 27.9447C21.3711 27.8788 21.277 27.7338 21.2788 27.5737C21.2883 26.9012 21.2996 26.2344 21.3109 25.5695C21.3109 25.5695 21.3297 24.4431 21.3372 23.9608C21.3542 22.7836 21.3636 21.8851 21.3655 21.0487C21.3655 20.8133 21.5463 20.6343 21.7667 20.6343C21.9871 20.6343 22.1679 20.8152 22.1679 21.0356C22.1679 21.8907 22.1585 22.793 22.1397 23.974C22.1321 24.4562 22.0963 26.5829 22.0963 26.5829C22.3619 26.2815 22.6332 25.9387 22.9233 25.5412C22.9967 25.4395 23.1173 25.3773 23.2435 25.3755C23.3697 25.3755 23.4921 25.4357 23.5675 25.5318L23.5919 25.5657C23.85 25.901 24.1118 26.2419 24.3906 26.5829C24.4151 25.3717 24.3831 24.1511 24.2964 22.955C24.2795 22.7289 24.2625 22.5123 24.2418 22.2957C24.1909 21.7231 24.1307 21.1636 24.0572 20.6287C24.0271 20.4102 24.1815 20.2068 24.4 20.1766C24.4189 20.1747 24.4358 20.1729 24.4546 20.1729C24.6543 20.1729 24.8257 20.3217 24.8521 20.5194C24.9256 21.0619 24.9877 21.6346 25.0405 22.2223C25.0612 22.4445 25.0781 22.6668 25.0951 22.8909C25.2081 24.4657 25.2288 26.0592 25.1572 27.6358C25.1497 27.7978 25.0461 27.9391 24.8935 27.9956C24.8483 28.0126 24.8031 28.0201 24.756 28.0201Z" fill="#00A3FF"/>
<path d="M28.1371 25.8596C28.0598 25.8596 27.9845 25.837 27.9204 25.7955C26.7206 25.0251 25.581 24.1869 24.4376 23.2319C24.3453 23.1547 24.2944 23.0435 24.2944 22.9249C24.2944 22.7026 24.4753 22.5236 24.6956 22.5236C24.8011 22.5236 24.901 22.5651 24.9763 22.6367C25.8616 23.375 26.7432 24.04 27.6586 24.6635C27.6172 24.1888 27.5964 23.8045 27.5927 23.4391C27.5889 23.2413 27.7302 23.0718 27.9261 23.0379C28.3141 22.9701 28.6984 22.9136 29.1015 22.8552C28.3348 22.3164 27.5475 21.7928 26.7601 21.2955C26.1027 20.8773 25.4284 20.4686 24.7559 20.0825C24.5638 19.9713 24.4979 19.7264 24.609 19.5343C24.6806 19.41 24.8143 19.3328 24.9575 19.3328C25.0272 19.3328 25.0969 19.3516 25.1571 19.3855C25.8409 19.7792 26.5247 20.1936 27.1896 20.6155C28.2708 21.2974 29.3426 22.0264 30.3767 22.7798C30.5086 22.8759 30.5688 23.0398 30.5312 23.198C30.4935 23.3562 30.3635 23.4749 30.2034 23.4994C29.9001 23.5465 29.6063 23.5898 29.3219 23.6312C28.9979 23.6783 28.7003 23.7216 28.4064 23.7687C28.429 24.3301 28.4855 24.882 28.5402 25.4169C28.5552 25.5695 28.4818 25.7202 28.3518 25.7993C28.2896 25.8388 28.2162 25.8577 28.1427 25.8577L28.1371 25.8596Z" fill="#00A3FF"/>
</svg>
