<svg width="40" height="40" viewBox="0 0 40 40" fill="none" xmlns="http://www.w3.org/2000/svg">
<path d="M28.9809 36.5467C28.434 36.4256 27.8824 36.3279 27.3448 36.1766C26.4999 35.9392 25.7528 35.4993 25.0825 34.9384C24.8847 34.7732 24.6915 34.715 24.4379 34.715C18.6519 34.722 12.866 34.7196 7.08013 34.7196C6.39355 34.7196 6.26554 34.594 6.26554 33.9074C6.26787 24.8049 6.2795 15.7071 6.25856 6.60703C6.2539 4.7102 7.50371 3.62331 8.63017 3.36962C8.90248 3.30911 9.18642 3.26954 9.46571 3.26954C17.0716 3.26489 24.6776 3.26023 32.2835 3.27885C32.593 3.27885 32.9445 3.43013 33.2052 3.61167C34.448 4.47746 34.9391 5.71797 34.7971 7.19121C34.7366 7.81728 34.5201 8.43171 34.3619 9.04847C34.2781 9.3743 34.05 9.51395 33.7079 9.50929C32.9515 9.49998 32.1951 9.50697 31.3968 9.50697V9.87702C31.3968 13.95 31.3991 18.0229 31.3898 22.0959C31.3898 22.3751 31.4806 22.4775 31.7389 22.559C34.9693 23.5714 36.9569 26.5807 36.7149 30.0625C36.4961 33.1789 33.9755 35.881 30.7847 36.4233C30.5519 36.4629 30.3192 36.5071 30.0864 36.549H28.9809V36.5467ZM30.3471 9.50464C30.1842 9.50464 30.0562 9.50464 29.9282 9.50464C23.1787 9.50929 16.4293 9.51162 9.67983 9.51628C9.13056 9.51628 8.90946 9.37663 8.89084 9.01356C8.87222 8.65979 9.05842 8.52015 9.61001 8.47128C10.7644 8.3712 11.6139 7.27499 11.444 6.10897C11.2694 4.91269 10.1546 4.10275 9.00256 4.33549C7.9273 4.55427 7.29658 5.3898 7.29658 6.61401C7.29658 15.507 7.29658 24.4 7.29658 33.293C7.29658 33.4093 7.30589 33.5234 7.31287 33.649H23.8118C22.1035 31.1029 21.8987 28.4659 23.4045 25.8267C24.915 23.1781 27.3029 22.0377 30.3471 22.2355V9.50464ZM11.7605 8.48757C11.9234 8.48757 12.0375 8.48757 12.1515 8.48757C17.2206 8.48291 22.2897 8.47826 27.3587 8.4736C29.2858 8.4736 31.2152 8.46197 33.1423 8.47593C33.4193 8.47593 33.5356 8.38749 33.5775 8.13613C33.638 7.79633 33.7381 7.45886 33.7661 7.11673C33.8545 6.02984 33.5287 5.10586 32.607 4.45884C32.4767 4.36575 32.2905 4.30756 32.1299 4.30756C25.4247 4.30058 18.7218 4.30058 12.0165 4.30291C11.9397 4.30291 11.8629 4.32153 11.7745 4.33084C12.7636 5.72029 12.7566 7.08182 11.7582 8.48757H11.7605ZM35.7094 29.3783C35.7141 26.0105 32.9771 23.2619 29.6023 23.2502C26.2416 23.2386 23.4743 25.9873 23.4627 29.3503C23.451 32.7251 26.2137 35.497 29.5907 35.4993C32.9515 35.4993 35.7048 32.746 35.7118 29.3783H35.7094Z" fill="#E119A0"/>
<path d="M18.8427 14.6527C16.3408 14.6527 13.8412 14.6527 11.3392 14.6527C10.8854 14.6527 10.6666 14.4572 10.6969 14.0801C10.7178 13.8055 10.8714 13.6472 11.146 13.61C11.2205 13.6007 11.2973 13.6054 11.3741 13.6054C16.3431 13.6054 21.3144 13.6054 26.2834 13.6054C26.3812 13.6054 26.4813 13.596 26.5743 13.6193C26.8443 13.6845 26.9677 13.88 26.9607 14.1453C26.9514 14.4106 26.8234 14.6015 26.5418 14.6434C26.4254 14.6597 26.3044 14.6527 26.1857 14.6527C23.7396 14.6527 21.2912 14.6527 18.8451 14.6527H18.8427Z" fill="#00A3FF"/>
<path d="M18.8287 17.8879C16.371 17.8879 13.9132 17.8879 11.4532 17.8879C11.3438 17.8879 11.2344 17.8972 11.1297 17.8809C10.8574 17.839 10.7084 17.6738 10.6968 17.3968C10.6851 17.1222 10.8131 16.9383 11.0808 16.8708C11.1832 16.8452 11.2949 16.8522 11.4043 16.8522C16.3523 16.8522 21.3027 16.8522 26.2508 16.8522C26.3578 16.8522 26.4695 16.8452 26.5743 16.8708C26.8443 16.936 26.9723 17.1268 26.9606 17.3968C26.949 17.6644 26.807 17.8437 26.5301 17.8832C26.423 17.8972 26.3136 17.8902 26.2065 17.8902C23.7488 17.8902 21.2911 17.8902 18.831 17.8902L18.8287 17.8879Z" fill="#00A3FF"/>
<path d="M15.5916 21.1275C14.1625 21.1275 12.7312 21.1275 11.3022 21.1275C11.0462 21.1275 10.8227 21.0763 10.725 20.8087C10.597 20.4642 10.7995 20.1454 11.1695 20.1058C11.2649 20.0942 11.365 20.0988 11.4628 20.0988C14.2254 20.0988 16.988 20.0988 19.7483 20.0988C19.867 20.0988 19.988 20.0942 20.1044 20.1128C20.372 20.157 20.5489 20.3758 20.5233 20.6434C20.4977 20.9088 20.3627 21.088 20.0788 21.1159C19.9717 21.1275 19.8623 21.1252 19.7553 21.1252C18.3682 21.1252 16.9834 21.1252 15.5962 21.1252L15.5916 21.1275Z" fill="#00A3FF"/>
<path d="M13.5666 23.3387C14.3137 23.3387 15.0584 23.3387 15.8055 23.3387C16.1989 23.3387 16.413 23.5273 16.4153 23.8531C16.4153 24.1789 16.1989 24.3721 15.8079 24.3721C14.3044 24.3744 12.8009 24.3744 11.2974 24.3721C10.8994 24.3721 10.6946 24.1882 10.6946 23.8554C10.6946 23.5179 10.8971 23.3387 11.295 23.3387C12.0515 23.3341 12.8102 23.3387 13.5666 23.3387Z" fill="#00A3FF"/>
<path d="M26.358 33.4186C26.4371 32.6832 26.5139 31.8849 26.6163 31.0912C26.6466 30.8631 26.5954 30.7072 26.4417 30.542C25.9251 29.988 25.42 29.4225 24.9126 28.8593C24.5193 28.4194 24.6543 27.9865 25.2292 27.8608C25.9902 27.6956 26.7536 27.5489 27.5123 27.3697C27.6566 27.3348 27.8196 27.2161 27.8987 27.0881C28.292 26.4411 28.6598 25.7801 29.0391 25.1238C29.3789 24.5326 29.8048 24.5373 30.1493 25.1354C30.5263 25.7917 30.8941 26.4527 31.2851 27.0997C31.3572 27.2208 31.5108 27.3325 31.6481 27.3651C32.3952 27.5396 33.1493 27.6839 33.8987 27.8468C34.5294 27.9818 34.6621 28.3914 34.2339 28.8686C33.7195 29.4411 33.1982 30.0043 32.6955 30.5862C32.6047 30.6909 32.5419 30.8701 32.5535 31.0074C32.621 31.7941 32.7117 32.5784 32.7979 33.3628C32.8584 33.9097 32.5162 34.189 32.0019 33.9725C31.2641 33.663 30.5426 33.3162 29.8072 33.0067C29.6792 32.9531 29.4906 32.9508 29.3626 33.0067C28.6248 33.3162 27.901 33.656 27.1679 33.9725C26.7257 34.1634 26.351 33.926 26.3603 33.4163L26.358 33.4186ZM29.5884 26.2572C29.2719 26.8042 28.96 27.3115 28.6807 27.8329C28.5178 28.1378 28.292 28.296 27.9522 28.3542C27.3843 28.452 26.8211 28.5823 26.1997 28.708C26.5767 29.1292 26.8863 29.5389 27.2587 29.8763C27.6846 30.2603 27.7544 30.6932 27.6566 31.2216C27.5705 31.6917 27.5403 32.1735 27.4821 32.6948C28.0034 32.4574 28.4805 32.2573 28.9414 32.0222C29.3696 31.8034 29.7653 31.7825 30.2005 32.0152C30.6543 32.2573 31.1361 32.4458 31.6621 32.6855C31.6086 32.1292 31.6039 31.6195 31.4969 31.1308C31.3712 30.5676 31.5713 30.1835 31.96 29.8112C32.3068 29.4783 32.607 29.0966 32.9538 28.708C32.3347 28.5823 31.7738 28.4543 31.2106 28.3589C30.8615 28.2984 30.6287 28.1331 30.4635 27.8143C30.1958 27.2976 29.8956 26.8018 29.5861 26.2596L29.5884 26.2572Z" fill="#00A3FF"/>
</svg>
